<?xml version="1.0" encoding="utf-8"?>
<!-- Generator: Adobe Illustrator 28.0.0, SVG Export Plug-In . SVG Version: 6.00 Build 0)  -->
<svg version="1.0" id="katman_1" xmlns="http://www.w3.org/2000/svg" xmlns:xlink="http://www.w3.org/1999/xlink" x="0px" y="0px"
	 viewBox="0 0 841.89 595.28" style="enable-background:new 0 0 841.89 595.28;" xml:space="preserve">
<style type="text/css">
	.st0{fill:#E41C13;}
	.st1{fill:#FFFFFF;}
</style>
<g>
	<g id="a">
		<g id="b">
			<g id="c">
				<path class="st0" d="M264.87,62.02h312.14c47.27,0,85.59,38.32,85.59,85.59v300.06c0,47.27-38.32,85.59-85.59,85.59H264.87
					c-47.27,0-85.59-38.32-85.59-85.59V147.61C179.29,100.34,217.61,62.02,264.87,62.02z"/>
			</g>
		</g>
	</g>
	<g id="d">
		<g id="e">
			<path class="st1" d="M443.11,377.7c0,2-1.62,3.63-3.63,3.63c-2,0-3.63-1.62-3.63-3.63c0-2,1.62-3.63,3.63-3.63
				C441.49,374.07,443.11,375.69,443.11,377.7z M435.85,386.39c-1.07,0-2.01,0.41-2.82,0.99c0.16-0.47,0.3-0.95,0.3-1.47
				c0-2.53-2.06-4.59-4.59-4.59s-4.59,2.06-4.59,4.59c0,2.54,2.06,4.59,4.59,4.59c0.95,0,1.78-0.35,2.51-0.85
				c-0.19,0.53-0.34,1.08-0.34,1.67c0,2.73,2.21,4.94,4.94,4.94c2.73,0,4.94-2.22,4.94-4.94S438.58,386.39,435.85,386.39
				L435.85,386.39z M427.27,397.36c-0.18-2.96-2.58-5.33-5.59-5.33c-0.53,0-1,0.17-1.49,0.3c0.87-0.95,1.43-2.19,1.43-3.58
				c0-2.95-2.39-5.34-5.34-5.34s-5.34,2.39-5.34,5.34s2.39,5.34,5.34,5.34c0.46,0,0.87-0.15,1.3-0.26
				c-0.96,1.01-1.57,2.36-1.57,3.87c0,2.58,1.76,4.66,4.11,5.35c0,0.08-0.04,0.14-0.04,0.21c0,3.37,2.73,6.11,6.11,6.11
				c3.37,0,6.11-2.74,6.11-6.11C432.3,400.26,430.11,397.89,427.27,397.36L427.27,397.36z M413.14,402.86
				c0.27-0.69,0.45-1.43,0.45-2.22c0-3.24-2.49-5.81-5.65-6.13c0.78-0.99,1.32-2.19,1.32-3.55c0-2.79-2-5.01-4.61-5.6
				c1.2-1,2-2.44,2-4.12c0-2.08-1.21-3.84-2.94-4.75c2.67-0.12,4.8-2.28,4.8-4.97c0-2.77-2.24-5.01-5.01-5.01
				c-2.77,0-5.01,2.24-5.01,5.01c0,1.88,1.08,3.46,2.61,4.32c-2.94,0.07-5.31,2.44-5.31,5.4c0,2.53,1.77,4.56,4.12,5.17
				c-1.38,1.07-2.33,2.67-2.33,4.55c0,2.95,2.22,5.29,5.06,5.69c-0.92,1.09-1.54,2.45-1.54,3.99c0,3,2.15,5.38,4.96,5.99
				c-0.46,0.94-0.78,1.95-0.78,3.07c0,3.87,3.14,7.01,7.01,7.01s7.01-3.14,7.01-7.01C419.3,406.14,416.59,403.31,413.14,402.86
				C413.14,402.86,413.14,402.86,413.14,402.86z M341.42,359.82c0,2.48-1.43,4.57-3.45,5.71c0.37-0.07,0.71-0.22,1.09-0.22
				c3.68,0,6.66,2.98,6.66,6.65c0,1.06-0.3,2.03-0.74,2.92c1.16-1,2.63-1.67,4.28-1.67c3.61,0,6.52,2.89,6.6,6.48
				c0.72-2.75,3.05-4.79,5.99-4.92c-0.61-0.92-1.06-1.97-1.06-3.16c0-3.23,2.62-5.84,5.84-5.84c3.23,0,5.84,2.62,5.84,5.84
				c0,3.01-2.3,5.39-5.22,5.72c0.87,1.12,1.48,2.46,1.48,3.99c0,1.73-0.7,3.27-1.78,4.44c1.2,1.16,1.91,2.74,2.1,4.49
				c0.19-1.68,0.93-3.17,2.11-4.25c-1.34-1.15-2.24-2.79-2.24-4.7c0-3.26,2.53-5.86,5.72-6.15c-0.81-0.98-1.36-2.19-1.36-3.56
				c0-2.06,1.15-3.78,2.79-4.77c-2.42-0.39-4.3-2.39-4.3-4.93c0-2.81,2.28-5.08,5.09-5.08s5.09,2.28,5.09,5.08
				c0,1.78-0.97,3.27-2.35,4.18c2.79,0.34,4.98,2.63,4.98,5.52c0,2.84-2.12,5.08-4.85,5.49c1.03,1.11,1.69,2.58,1.69,4.22
				c0,1.66-0.68,3.16-1.74,4.28c1.7,1.24,2.88,3.16,2.88,5.43c0,1.24-0.42,2.34-1,3.34c2.25,1.27,3.84,3.6,3.84,6.36
				c0,0.79-0.22,1.52-0.45,2.24c0.77,0.36,1.47,0.83,2.08,1.41c-0.7-1.07-1.21-2.28-1.21-3.66c0-1.46,0.56-2.74,1.34-3.85
				c-2.32-0.94-3.97-3.2-3.97-5.86c0-1.89,0.87-3.54,2.18-4.69c-1.77-1.01-3.02-2.83-3.02-5.01c0-3.06,2.37-5.48,5.36-5.75
				c-1.12-0.98-1.86-2.37-1.86-3.97c0-2.19,1.32-4.05,3.2-4.88c-0.28,0.05-0.53,0.17-0.82,0.17c-2.75,0-4.99-2.24-4.99-4.99
				c0-2.75,2.23-4.99,4.99-4.99c2.75,0,4.99,2.24,4.99,4.99c0,2.04-1.23,3.79-2.99,4.56c0.32-0.06,0.62-0.19,0.96-0.19
				c2.94,0,5.33,2.39,5.33,5.33c0,2.73-2.09,4.91-4.74,5.21c1.34,1.07,2.26,2.65,2.26,4.5c0,1.6-0.65,3.05-1.69,4.1
				c2.07,1.05,3.53,3.14,3.53,5.61c0,1.24-0.45,2.34-1.07,3.32c2.7,0.91,4.68,3.39,4.68,6.39c0,0.84-0.2,1.62-0.48,2.37
				c3.24,0.95,5.65,3.81,5.65,7.36c0,4.3-3.49,7.79-7.79,7.79c-3.71,0-6.67-2.66-7.45-6.14c-0.78,3.79-3.98,6.69-8,6.69
				c-3.27,0-6.04-1.93-7.4-4.67c-1.4,3.08-4.46,5.24-8.05,5.24c-3.29,0-6.05-1.88-7.58-4.54c-1.55,2.81-4.43,4.79-7.87,4.79
				c-3.33,0-6.11-1.87-7.71-4.54c-1.59,2.69-4.4,4.57-7.75,4.57c-3.91,0-7.19-2.48-8.5-5.94c-1.66,1.65-3.94,2.67-6.47,2.67
				c-5.07,0-9.18-4.11-9.18-9.18c0-0.39,0.18-0.73,0.23-1.11c-0.94,0.33-1.91,0.6-2.96,0.6c-5.03,0-9.11-4.08-9.11-9.11
				c0-1.97,0.76-3.7,1.83-5.19c-4.5-0.41-8.07-4.08-8.07-8.7c0-3.51,2.09-6.49,5.06-7.92c-2.62-1.47-4.47-4.17-4.47-7.39
				c0-4.64,3.69-8.37,8.29-8.54c-1.48-1.5-2.4-3.56-2.4-5.84c0-4.61,3.74-8.35,8.35-8.35c0.14,0,0.26,0.07,0.39,0.08
				c-1.61-1.5-2.65-3.6-2.65-5.98c0-4.55,3.69-8.23,8.23-8.23c0.34,0,0.62,0.15,0.94,0.19c-1.83-1.49-3.08-3.67-3.08-6.21
				c0-4.48,3.63-8.12,8.11-8.12c0.53,0,0.99,0.2,1.5,0.3c-2.07-1.45-3.51-3.72-3.51-6.44c0-4.42,3.58-7.99,7.99-7.99
				c0.73,0,1.38,0.23,2.06,0.41c-2.32-1.37-3.95-3.78-3.95-6.67c0-4.35,3.53-7.88,7.87-7.88c0.92,0,1.78,0.23,2.6,0.53
				c-2.57-1.26-4.37-3.85-4.37-6.9c0-4.29,3.47-7.76,7.76-7.76c2.28,0,4.29,1.03,5.71,2.6c0.89-0.39,1.86-0.63,2.89-0.63
				c2.31,0,4.28,1.16,5.59,2.85c0.91-0.47,1.89-0.79,2.98-0.79c2.36,0,4.34,1.31,5.51,3.17c0.89-0.52,1.87-0.89,2.97-0.89
				c2.81,0,5.06,1.95,5.74,4.55c0.6-0.23,1.24-0.39,1.93-0.39c3.03,0,5.49,2.45,5.49,5.48c0,1.61-0.72,3.02-1.82,4.03
				c0.58-0.24,1.21-0.38,1.87-0.38c2.68,0,4.84,2.17,4.84,4.85c0,1.32-0.53,2.5-1.39,3.37c0.76-0.69,1.75-1.13,2.86-1.13
				c2.39,0,4.32,1.93,4.32,4.32c0,2.38-1.94,4.32-4.32,4.32c-2.38,0-4.32-1.93-4.32-4.32c0-1.17,0.48-2.23,1.23-3.01
				c-0.86,0.78-1.98,1.29-3.23,1.29c-2.67,0-4.84-2.17-4.84-4.84c0-1.34,0.55-2.55,1.43-3.44c-0.65,0.28-1.37,0.43-2.13,0.43
				c-2.38,0-4.35-1.53-5.11-3.65c-0.78,0.37-1.63,0.61-2.55,0.61c-1.97,0-3.63-1-4.73-2.45c-1.08,0.76-2.32,1.31-3.75,1.31
				c-1.9,0-3.59-0.83-4.8-2.12c-1.11,0.71-2.36,1.22-3.77,1.22c-1.89,0-3.57-0.76-4.86-1.95c-1.13,0.64-2.36,1.1-3.74,1.1
				c-0.91,0-1.75-0.23-2.55-0.52c0.74,0.36,1.44,0.8,2.03,1.37c1.04-0.56,2.17-0.97,3.43-0.97c2.15,0,4.03,0.97,5.37,2.45
				c1.03-0.65,2.19-1.13,3.5-1.13c2.2,0,4.05,1.13,5.28,2.76c1-0.72,2.17-1.24,3.5-1.24c2.62,0,4.81,1.66,5.68,3.97
				c0.69-0.31,1.45-0.51,2.26-0.51c3.06,0,5.53,2.48,5.53,5.53c0,1.13-0.42,2.12-1,3c0.43-0.13,0.86-0.27,1.34-0.27
				c2.71,0,4.91,2.2,4.91,4.91c0,0.78-0.23,1.5-0.55,2.16c0.66-0.4,1.39-0.69,2.22-0.69c2.42,0,4.38,1.96,4.38,4.38
				c0,2.41-1.96,4.37-4.38,4.37c-2.42,0-4.38-1.96-4.38-4.37c0-0.64,0.15-1.23,0.39-1.78c-0.76,0.5-1.62,0.85-2.6,0.85
				c-2.71,0-4.91-2.2-4.91-4.91c0-0.91,0.31-1.72,0.75-2.45c-0.55,0.18-1.1,0.34-1.7,0.34c-2.21,0-4.08-1.32-4.97-3.18
				c-0.89,0.51-1.87,0.88-2.97,0.88c-1.78,0-3.35-0.79-4.47-2.01c-1.17,1.01-2.65,1.67-4.31,1.67c-1.72,0-3.26-0.7-4.44-1.77
				c-1.24,0.97-2.73,1.64-4.42,1.64c-0.98,0-1.91-0.21-2.77-0.56c0.81,0.35,1.54,0.86,2.17,1.46c1.14-0.88,2.51-1.49,4.07-1.49
				c2.03,0,3.8,0.94,5.04,2.35c1.09-0.96,2.48-1.59,4.04-1.59c2.46,0,4.54,1.46,5.53,3.55c0.8-0.45,1.68-0.78,2.67-0.78
				c3.08,0,5.58,2.49,5.58,5.57c0,0.71-0.16,1.38-0.4,2c0.34-0.08,0.66-0.21,1.02-0.21c2.75,0,4.98,2.23,4.98,4.98
				c0,0.48-0.15,0.91-0.27,1.35c0.64-0.36,1.34-0.63,2.13-0.63c2.43,0,4.4,1.97,4.4,4.41c0,2.43-1.97,4.4-4.4,4.4
				c-2.43,0-4.4-1.97-4.4-4.4c0-0.36,0.12-0.68,0.2-1.01c-0.78,0.5-1.65,0.87-2.64,0.87c-2.75,0-4.98-2.23-4.98-4.98
				c0-0.53,0.15-1.02,0.3-1.5c-0.49,0.14-0.98,0.3-1.52,0.3c-2.04,0-3.75-1.15-4.72-2.79c-1.01,0.71-2.17,1.22-3.49,1.22
				c-1.62,0-3.08-0.66-4.18-1.68c-0.59,0.63-1.3,1.14-2.1,1.5c0.39-0.08,0.76-0.24,1.17-0.24c2.3,0,4.23,1.31,5.31,3.17
				c0.92-0.64,1.97-1.1,3.17-1.1c3.1,0,5.62,2.52,5.62,5.62c0,0.4-0.15,0.75-0.23,1.13c0.37-0.09,0.73-0.23,1.13-0.23
				c2.76,0,5.01,2.25,5.01,5.01c0,0.25-0.11,0.46-0.14,0.69c0.66-0.4,1.4-0.69,2.23-0.69c2.43,0,4.4,1.97,4.4,4.4
				c0,2.43-1.97,4.4-4.4,4.4s-4.4-1.97-4.4-4.4c0-0.12,0.06-0.22,0.07-0.34c-0.8,0.55-1.72,0.95-2.76,0.95
				c-2.77,0-5.01-2.25-5.01-5.01c0-0.22,0.1-0.41,0.13-0.62c-0.53,0.16-1.06,0.33-1.64,0.33c-1.88,0-3.46-0.98-4.47-2.39
				c-1.09,0.93-2.46,1.55-4.01,1.55c-1.54,0-2.9-0.62-3.99-1.54c-0.27,0.35-0.52,0.7-0.85,1c2.03,0.09,3.73,1.15,4.83,2.71
				c1-0.84,2.24-1.41,3.65-1.41c3.16,0,5.72,2.57,5.72,5.73c0,0.09-0.05,0.17-0.05,0.26c0.39-0.1,0.76-0.24,1.18-0.24
				c2.78,0,5.03,2.26,5.03,5.03c0,2.78-2.25,5.03-5.03,5.03c-2.67,0-4.81-2.1-4.97-4.74c-0.6,0.21-1.21,0.38-1.88,0.38
				c-1.72,0-3.21-0.79-4.25-1.98c-1.15,1.15-2.74,1.87-4.5,1.87c-1.46,0-2.74-0.58-3.82-1.41c-0.15,0.25-0.3,0.49-0.48,0.71
				c1.7,0.22,3.15,1.05,4.17,2.32c1.06-1.08,2.52-1.76,4.15-1.76c3.22,0,5.83,2.61,5.83,5.83c0,3.22-2.61,5.83-5.83,5.83
				c-1.66,0-3.13-0.7-4.2-1.82c-1.19,1.44-2.92,2.42-4.94,2.42 M338.6,392.9c1.35,0.92,2.48,2.11,3.1,3.65
				c0.2-0.33,0.4-0.65,0.64-0.95c-0.99-1.21-1.64-2.69-1.7-4.36C340.06,391.92,339.38,392.46,338.6,392.9
				C338.6,392.9,338.6,392.9,338.6,392.9z M354.24,394.77c0.79,0.74,1.43,1.61,1.88,2.61c0.18-0.39,0.47-0.7,0.71-1.05
				c-0.88-0.83-1.47-1.9-1.85-3.08C354.79,393.79,354.53,394.28,354.24,394.77C354.24,394.77,354.24,394.77,354.24,394.77z
				 M369.05,391.79c-0.11,1-0.4,1.92-0.87,2.76c1.39,1.09,2.34,2.6,2.77,4.37c0.22-0.86,0.57-1.62,1.05-2.32
				C370.39,395.51,369.29,393.81,369.05,391.79C369.05,391.79,369.05,391.79,369.05,391.79z M352.71,385.36
				c1.07,0.9,1.84,2.05,2.27,3.4c0.42-1.29,1.16-2.38,2.16-3.24c-0.94-1.11-1.55-2.49-1.59-4.05
				C355.12,383.12,354.12,384.47,352.71,385.36L352.71,385.36z M339.06,378.62c-2.45,0-4.5-1.39-5.66-3.36
				c0.03,0.28,0.16,0.52,0.16,0.8c0,1.27-0.4,2.41-0.96,3.47c0.76-0.26,1.55-0.49,2.41-0.49c4.02,0,7.26,3.2,7.4,7.19
				c0.6-0.71,1.32-1.29,2.14-1.73c-1.19-1.2-1.93-2.85-1.93-4.67c0-1.05,0.3-2.01,0.73-2.89
				C342.19,377.95,340.72,378.62,339.06,378.62z M334.78,366.46c-1.67,0-3.15-0.67-4.32-1.69c-0.55,1.74-1.71,3.14-3.26,4.05
				c2.3,0.35,4.2,1.69,5.3,3.64c-0.01-0.17-0.1-0.32-0.1-0.49c0-2.49,1.43-4.58,3.46-5.72C335.5,366.3,335.17,366.46,334.78,366.46
				L334.78,366.46z M343.95,317.91c-1.53,0-2.87-0.6-4-1.45c-0.28,0.27-0.66,0.43-0.98,0.66c1.72,0.11,3.28,0.78,4.42,1.92
				c0.55-0.59,1.2-1.07,1.95-1.41C344.87,317.73,344.44,317.91,343.95,317.91C343.95,317.91,343.95,317.91,343.95,317.91z
				 M337.6,304.34c-0.58-0.25-1.06-0.66-1.55-1.05c-0.28,0.19-0.54,0.4-0.84,0.57C336.04,303.9,336.86,304.03,337.6,304.34z
				 M343.57,276.09c1.13,0,2.18-0.27,3.14-0.71c1.3,1.41,3.12,2.32,5.18,2.32c1.19,0,2.25-0.36,3.24-0.88
				c1.2,1.51,2.97,2.54,5.05,2.54c1.18,0,2.23-0.4,3.19-0.95c1.05,1.69,2.85,2.88,4.99,2.88c0.78,0,1.52-0.17,2.2-0.45
				c0.57,2.4,2.63,4.22,5.2,4.22c2.82,0,5.05-2.17,5.34-4.91c0.66,1.81,2.35,3.11,4.39,3.11c2.6,0,4.71-2.1,4.71-4.71
				c0-2.6-2.11-4.71-4.71-4.71c-2.41,0-4.33,1.84-4.6,4.17c-0.69-2.21-2.68-3.85-5.12-3.85c-0.56,0-1.07,0.16-1.58,0.32
				c-0.41-2.9-2.8-5.18-5.82-5.18c-0.87,0-1.69,0.21-2.44,0.55c-1.09-2.1-3.22-3.58-5.74-3.58c-0.87,0-1.69,0.19-2.44,0.5
				c-1.27-1.94-3.35-3.29-5.84-3.29c-0.82,0-1.57,0.21-2.31,0.47c-1.39-1.86-3.51-3.15-6.01-3.15c-4.22,0-7.64,3.41-7.64,7.63
				C335.93,272.67,339.35,276.09,343.57,276.09L343.57,276.09z M349.55,261.72c0.9,0,1.74-0.22,2.54-0.51
				c1.28,1.69,3.21,2.86,5.49,2.86c0.95,0,1.86-0.2,2.68-0.54c1.15,1.76,3.04,3,5.3,3c0.94,0,1.83-0.23,2.63-0.59
				c0.97,1.95,2.93,3.32,5.25,3.32c0.65,0,1.25-0.18,1.83-0.37c0.27,2.73,2.5,4.89,5.3,4.89c2.39,0,4.35-1.57,5.06-3.72
				c0.73,1.67,2.39,2.85,4.34,2.85c2.61,0,4.73-2.12,4.73-4.74s-2.12-4.74-4.73-4.74c-2,0-3.7,1.25-4.39,3.02
				c-0.78-2.02-2.71-3.48-5.01-3.48c-0.44,0-0.83,0.15-1.24,0.25c-0.07-3.21-2.67-5.8-5.89-5.8c-0.67,0-1.29,0.18-1.89,0.38
				c-0.92-2.43-3.24-4.18-5.99-4.18c-0.63,0-1.21,0.19-1.79,0.36c-1.15-2.29-3.46-3.91-6.2-3.91c-0.6,0-1.14,0.2-1.69,0.34
				c-1.31-2.2-3.61-3.73-6.35-3.73c-4.15,0-7.52,3.36-7.52,7.52C342.04,258.35,345.4,261.72,349.55,261.72L349.55,261.72z
				 M355.53,247.35c0.68,0,1.28-0.22,1.9-0.38c1.2,2.04,3.32,3.48,5.86,3.48c0.71,0,1.36-0.2,2-0.4c1.03,2.14,3.17,3.63,5.69,3.63
				c0.75,0,1.45-0.19,2.12-0.42c0.79,2.29,2.91,3.95,5.47,3.95c0.55,0,1.04-0.17,1.55-0.31c-0.01,0.08-0.04,0.14-0.04,0.21
				c0,2.96,2.4,5.36,5.36,5.36c2.05,0,3.78-1.19,4.67-2.89c0.71,1.73,2.41,2.95,4.39,2.95c2.63,0,4.76-2.13,4.76-4.76
				c0-2.63-2.13-4.76-4.76-4.76c-1.76,0-3.23,1-4.05,2.42c-0.71-2.12-2.65-3.67-5.01-3.67c-0.4,0-0.76,0.14-1.13,0.23
				c0.03-0.21,0.13-0.4,0.13-0.62c0-3.23-2.62-5.85-5.85-5.85c-0.54,0-1.03,0.17-1.52,0.31c-0.69-2.77-3.08-4.86-6.06-4.86
				c-0.45,0-0.85,0.17-1.28,0.26c-0.97-2.64-3.45-4.54-6.42-4.54c-0.38,0-0.71,0.16-1.08,0.22c-1.17-2.53-3.7-4.32-6.68-4.32
				c-4.08,0-7.39,3.31-7.39,7.4C348.14,244.03,351.45,247.35,355.53,247.35L355.53,247.35z M361.52,232.98
				c0.45,0,0.83-0.18,1.26-0.25c1.04,2.4,3.43,4.09,6.22,4.09c0.54,0,1.02-0.19,1.52-0.31c0.84,2.49,3.12,4.31,5.89,4.31
				c0.61,0,1.16-0.19,1.72-0.35c0.54,2.65,2.76,4.67,5.56,4.67c0.52,0,0.99-0.17,1.48-0.3c-0.06,0.33-0.2,0.63-0.2,0.98
				c0,2.93,2.38,5.31,5.31,5.31c1.79,0,3.3-0.95,4.26-2.31c0.63,1.9,2.37,3.29,4.48,3.29c2.64,0,4.78-2.15,4.78-4.79
				c0-2.64-2.14-4.79-4.78-4.79c-1.53,0-2.84,0.77-3.71,1.89c-0.62-2.25-2.59-3.93-5.03-3.93c-0.38,0-0.72,0.14-1.08,0.22
				c0.11-0.45,0.28-0.89,0.28-1.37c0-3.2-2.59-5.79-5.79-5.79c-0.41,0-0.77,0.15-1.15,0.23c-0.38-3.11-2.93-5.54-6.13-5.54
				c-0.33,0-0.61,0.14-0.93,0.19c-0.73-2.96-3.28-5.21-6.47-5.21c-0.24,0-0.44,0.11-0.67,0.14c-0.98-2.86-3.61-4.94-6.81-4.94
				c-4.02,0-7.28,3.25-7.28,7.28C354.24,229.72,357.5,232.98,361.52,232.98C361.52,232.98,361.52,232.98,361.52,232.98z
				 M367.5,218.6c0.32,0,0.59-0.14,0.89-0.18c0.84,2.74,3.29,4.77,6.3,4.77c0.41,0,0.76-0.16,1.15-0.23
				c0.57,2.84,2.96,5.02,5.96,5.02c0.47,0,0.89-0.17,1.33-0.27c0.19,3,2.62,5.38,5.66,5.38c0.5,0,0.94-0.16,1.4-0.28
				c-0.19,0.55-0.35,1.12-0.35,1.73c0,2.91,2.36,5.27,5.27,5.27c2.07,0,3.81-1.22,4.68-2.95c-0.03,0.2-0.12,0.38-0.12,0.6
				c0,2.66,2.15,4.81,4.81,4.81s4.81-2.15,4.81-4.81s-2.15-4.81-4.81-4.81c-1.88,0-3.46,1.11-4.25,2.68
				c0.04-0.27,0.16-0.51,0.16-0.78c0-2.91-2.36-5.27-5.27-5.27c-0.36,0-0.68,0.14-1.02,0.21c0.26-0.66,0.43-1.37,0.43-2.11
				c0-3.16-2.57-5.73-5.73-5.73c-0.28,0-0.52,0.12-0.79,0.16c0-0.01,0.01-0.02,0.01-0.03c0-3.43-2.77-6.2-6.2-6.2
				c-0.21,0-0.38,0.1-0.58,0.12c-0.42-3.29-3.12-5.88-6.53-5.88c-0.13,0-0.23,0.07-0.35,0.07c-0.73-3.17-3.45-5.59-6.84-5.59
				c-3.95,0-7.16,3.21-7.16,7.16C360.34,215.4,363.55,218.6,367.5,218.6L367.5,218.6z M373.59,204.28c0.28,0,0.52-0.13,0.79-0.16
				c0.48,3.18,3.11,5.66,6.42,5.66c0.42,0,0.79-0.17,1.19-0.24c0.04,3.37,2.77,6.1,6.15,6.1c0.69,0,1.32-0.18,1.93-0.39
				c-0.07,0.36-0.22,0.69-0.22,1.08c0,3.17,2.58,5.75,5.75,5.75c0.95,0,1.81-0.29,2.6-0.69c-0.74,0.92-1.24,2.03-1.24,3.3
				c0,2.95,2.39,5.34,5.33,5.34c2.95,0,5.33-2.39,5.33-5.34c0-2.94-2.39-5.33-5.33-5.33c-0.83,0-1.6,0.23-2.3,0.57
				c0.81-0.99,1.37-2.21,1.37-3.59c0-3.17-2.57-5.75-5.75-5.75c-0.56,0-1.07,0.17-1.58,0.32c0.12-0.47,0.29-0.93,0.29-1.43
				c0-3.41-2.76-6.17-6.17-6.17c-0.28,0-0.52,0.12-0.79,0.16c0-0.11,0.06-0.19,0.06-0.29c0-3.65-2.96-6.61-6.61-6.61
				c-0.11,0-0.2,0.06-0.31,0.06c-0.33-3.57-3.25-6.41-6.91-6.41c-3.89,0-7.04,3.15-7.04,7.04S369.7,204.28,373.59,204.28
				C373.59,204.28,373.59,204.28,373.59,204.28z M382.37,191.5c0.47,0,0.89-0.18,1.33-0.27c-0.03,0.23-0.13,0.42-0.13,0.66
				c0,3.63,2.94,6.57,6.57,6.57c0.72,0,1.37-0.2,2.02-0.4c-0.17,0.57-0.36,1.14-0.36,1.77c0,3.44,2.78,6.22,6.22,6.22
				c1.39,0,2.62-0.55,3.66-1.32c-0.93,1.04-1.53,2.37-1.53,3.88c0,3.25,2.64,5.89,5.89,5.89c3.25,0,5.89-2.64,5.89-5.89
				c0-3.25-2.64-5.89-5.89-5.89c-1.31,0-2.45,0.51-3.43,1.22c0.98-1.1,1.63-2.51,1.63-4.11c0-3.43-2.78-6.21-6.22-6.21
				c-0.61,0-1.16,0.18-1.72,0.34c0.22-0.66,0.42-1.34,0.42-2.07c0-3.63-2.94-6.58-6.57-6.58c-0.37,0-0.69,0.15-1.04,0.21
				c0.05-0.32,0.19-0.61,0.19-0.94c0-3.82-3.1-6.92-6.92-6.92s-6.92,3.1-6.92,6.92C375.45,188.4,378.55,191.5,382.37,191.5
				L382.37,191.5L382.37,191.5z M394.36,181.71c0.78,0,1.5-0.2,2.19-0.44c-0.38,0.83-0.63,1.74-0.63,2.72
				c0,3.61,2.93,6.54,6.54,6.54c3.61,0,6.53-2.92,6.53-6.54c0-3.61-2.92-6.54-6.53-6.54c-0.72,0-1.39,0.2-2.04,0.41
				c0.44-0.9,0.74-1.88,0.74-2.95c0-3.75-3.04-6.79-6.8-6.79s-6.8,3.04-6.8,6.79C387.57,178.66,390.61,181.71,394.36,181.71
				C394.36,181.71,394.36,181.71,394.36,181.71z M408.57,175.66c3.69,0,6.68-2.99,6.68-6.68c0-3.69-2.99-6.68-6.68-6.68
				s-6.68,2.99-6.68,6.68C401.89,172.67,404.88,175.66,408.57,175.66z M423.89,173.83c3.62,0,6.56-2.93,6.56-6.56
				c0-3.62-2.94-6.56-6.56-6.56c-3.62,0-6.56,2.93-6.56,6.56C417.33,170.9,420.26,173.83,423.89,173.83z M439.06,176.39
				c3.55,0,6.44-2.88,6.44-6.44s-2.88-6.44-6.44-6.44c-3.56,0-6.44,2.88-6.44,6.44S435.5,176.39,439.06,176.39z M458.33,188.98
				c-0.6-0.19-1.22-0.38-1.89-0.38c-3.52,0-6.38,2.86-6.38,6.38c0,0.88,0.18,1.72,0.5,2.48c-0.45-0.1-0.88-0.27-1.36-0.27
				c-3.53,0-6.39,2.86-6.39,6.39c0,1.34,0.5,2.5,1.2,3.53c-0.41-0.08-0.79-0.25-1.23-0.25c-3.49,0-6.31,2.83-6.31,6.31
				c0,1.58,0.64,2.98,1.6,4.09c-0.54-0.16-1.08-0.34-1.68-0.34c-3.34,0-6.05,2.71-6.05,6.05s2.71,6.05,6.05,6.05
				c3.34,0,6.04-2.71,6.04-6.05c0-1.49-0.6-2.8-1.49-3.86c0.59,0.18,1.18,0.37,1.84,0.37c3.48,0,6.31-2.83,6.31-6.31
				c0-1.31-0.49-2.46-1.17-3.47c0.42,0.09,0.82,0.26,1.28,0.26c3.53,0,6.39-2.86,6.39-6.38c0-0.89-0.18-1.73-0.51-2.5
				c0.45,0.1,0.88,0.27,1.36,0.27c3.52,0,6.38-2.85,6.38-6.37c0-0.68-0.19-1.3-0.38-1.91c0.56,0.17,1.12,0.35,1.74,0.35
				c3.43,0,6.2-2.77,6.2-6.2s-2.77-6.2-6.2-6.2c-3.42,0-6.2,2.77-6.2,6.2C457.97,187.85,458.16,188.42,458.33,188.98L458.33,188.98
				L458.33,188.98z M521.27,328.51c0,2.72,2.21,4.93,4.93,4.93c2.72,0,4.93-2.21,4.93-4.93c0-2.72-2.21-4.92-4.93-4.92
				C523.48,323.59,521.27,325.8,521.27,328.51z M527.47,342.75c0,2.62,2.12,4.74,4.74,4.74c2.62,0,4.74-2.12,4.74-4.74
				c0-2.62-2.12-4.74-4.74-4.74C529.59,338.01,527.47,340.13,527.47,342.75z M533.66,356.98c0,2.52,2.04,4.56,4.56,4.56
				c2.51,0,4.55-2.04,4.55-4.56c0-2.51-2.04-4.55-4.55-4.55C535.7,352.43,533.66,354.47,533.66,356.98z M539.56,371.34
				c0,2.41,1.96,4.37,4.37,4.37c2.41,0,4.37-1.96,4.37-4.37c0-2.41-1.96-4.37-4.37-4.37C541.52,366.97,539.56,368.93,539.56,371.34z
				 M544.41,382.48c-2.31,0-4.18,1.87-4.18,4.18c0,2.31,1.87,4.18,4.18,4.18c2.31,0,4.18-1.87,4.18-4.18
				C548.59,384.35,546.72,382.48,544.41,382.48z M538.04,396.6c-2.21,0-4,1.79-4,4c0,2.21,1.79,4,4,4c2.21,0,4-1.79,4-4
				C542.04,398.39,540.25,396.6,538.04,396.6z M527.24,407.49c-2.1,0-3.81,1.71-3.81,3.81s1.71,3.81,3.81,3.81
				c2.11,0,3.81-1.7,3.81-3.81S529.35,407.49,527.24,407.49z M515.07,410.67c-2.46,0-4.45,1.99-4.45,4.45
				c0,2.45,1.99,4.44,4.45,4.44c2.46,0,4.45-1.99,4.45-4.44C519.52,412.67,517.53,410.67,515.07,410.67L515.07,410.67z
				 M410.11,180.19c0,3.59,2.91,6.49,6.5,6.49c3.59,0,6.5-2.9,6.5-6.49c0-3.59-2.91-6.5-6.5-6.5
				C413.02,173.69,410.11,176.59,410.11,180.19z M424.77,180.86c0,3.57,2.89,6.46,6.46,6.46c3.57,0,6.46-2.89,6.46-6.46
				s-2.89-6.46-6.46-6.46C427.66,174.4,424.77,177.29,424.77,180.86z M444.93,179.54c-3.54,0-6.42,2.87-6.42,6.42
				c0,1.62,0.66,3.07,1.65,4.2c-0.77-0.32-1.61-0.51-2.49-0.51c-3.5,0-6.34,2.84-6.34,6.34c0,3.5,2.84,6.34,6.34,6.34
				s6.34-2.84,6.34-6.34c0-1.6-0.65-3.03-1.63-4.14c0.78,0.33,1.64,0.53,2.54,0.53c3.54,0,6.42-2.87,6.42-6.42
				c0-1.32-0.5-2.48-1.18-3.5c0.82,0.39,1.72,0.65,2.68,0.65c3.49,0,6.32-2.83,6.32-6.32c0-3.49-2.83-6.32-6.32-6.32
				s-6.32,2.83-6.32,6.32c0,1.3,0.48,2.43,1.15,3.43C446.85,179.81,445.93,179.54,444.93,179.54
				C444.93,179.54,444.93,179.54,444.93,179.54z M521.56,337.36c-2.71,0-4.9,2.2-4.9,4.9c0,2.71,2.2,4.9,4.9,4.9
				c2.71,0,4.9-2.2,4.9-4.9C526.46,339.55,524.26,337.36,521.56,337.36z M531.94,355.78c0-2.59-2.1-4.69-4.69-4.69
				c-2.59,0-4.69,2.1-4.69,4.69c0,2.6,2.1,4.7,4.69,4.7C529.84,360.48,531.94,358.38,531.94,355.78z M537.42,369.31
				c0-2.48-2.01-4.49-4.49-4.49c-2.47,0-4.48,2.01-4.48,4.49c0,2.47,2.01,4.48,4.48,4.48C535.41,373.79,537.42,371.79,537.42,369.31
				z M536.48,387.75c2.36,0,4.27-1.91,4.27-4.27c0-2.36-1.91-4.28-4.27-4.28s-4.27,1.91-4.27,4.28
				C532.21,385.84,534.12,387.75,536.48,387.75z M416.8,194c0-3.46-2.8-6.26-6.26-6.26c-3.46,0-6.26,2.8-6.26,6.26
				c0,3.46,2.8,6.26,6.26,6.26C414,200.26,416.8,197.46,416.8,194z M424.28,186.37c-3.48,0-6.3,2.82-6.3,6.3
				c0,3.48,2.82,6.3,6.3,6.3c3.48,0,6.3-2.82,6.3-6.3C430.58,189.19,427.76,186.37,424.28,186.37z M511.72,355.16
				c0,2.66,2.16,4.82,4.81,4.82s4.81-2.16,4.81-4.82c0-2.66-2.16-4.81-4.81-4.81S511.72,352.51,511.72,355.16z M517.3,367.95
				c0,2.53,2.05,4.58,4.58,4.58c2.53,0,4.58-2.05,4.58-4.58c0-2.53-2.05-4.58-4.58-4.58C519.35,363.37,517.3,365.42,517.3,367.95z
				 M531.17,380.9c0-2.4-1.95-4.35-4.35-4.35c-2.4,0-4.35,1.95-4.35,4.35s1.95,4.35,4.35,4.35
				C529.22,385.25,531.17,383.3,531.17,380.9z M530.93,390.86c-2.27,0-4.12,1.84-4.12,4.12c0,2.27,1.84,4.12,4.12,4.12
				c2.28,0,4.12-1.85,4.12-4.12C535.05,392.71,533.21,390.86,530.93,390.86z M425.89,381.89c2.44,0,4.43-1.98,4.43-4.43
				c0-2.45-1.99-4.43-4.43-4.43c-2.45,0-4.43,1.98-4.43,4.43C421.46,379.91,423.44,381.89,425.89,381.89z M414.73,383.09
				c2.77,0,5.02-2.25,5.02-5.02c0-2.77-2.25-5.02-5.02-5.02c-2.77,0-5.02,2.25-5.02,5.02C409.71,380.84,411.96,383.09,414.73,383.09
				z M418.55,211.33c3.33,0,6.03-2.7,6.03-6.04c0-3.33-2.7-6.03-6.03-6.03c-3.33,0-6.03,2.7-6.03,6.03
				C412.52,208.63,415.22,211.33,418.55,211.33z M437.62,206.89c0-3.41-2.76-6.18-6.17-6.18s-6.17,2.77-6.17,6.18
				s2.76,6.17,6.17,6.17S437.62,210.3,437.62,206.89z M506.23,350.54c-2.72,0-4.94,2.21-4.94,4.93s2.21,4.93,4.94,4.93
				c2.72,0,4.94-2.21,4.94-4.93S508.95,350.54,506.23,350.54z M506.55,367.5c0,2.59,2.09,4.68,4.68,4.68s4.68-2.09,4.68-4.68
				s-2.09-4.68-4.68-4.68S506.55,364.91,506.55,367.5z M520.67,379.53c0-2.44-1.98-4.43-4.42-4.43s-4.42,1.98-4.42,4.43
				s1.98,4.43,4.42,4.43S520.67,381.98,520.67,379.53z M522.46,395.95c2.3,0,4.17-1.87,4.17-4.17c0-2.31-1.87-4.17-4.17-4.17
				c-2.3,0-4.17,1.87-4.17,4.17C518.29,394.09,520.16,395.95,522.46,395.95z M527.35,403.58c0-2.17-1.75-3.92-3.92-3.92
				s-3.92,1.76-3.92,3.92c0,2.16,1.75,3.92,3.92,3.92S527.35,405.74,527.35,403.58z M423.52,367.98c0-2.59-2.1-4.69-4.69-4.69
				s-4.69,2.1-4.69,4.69c0,2.59,2.1,4.69,4.69,4.69S423.52,370.57,423.52,367.98z M354.86,374.6c3.24,0,5.87-2.63,5.87-5.87
				c0-3.24-2.63-5.87-5.87-5.87s-5.87,2.63-5.87,5.87C348.99,371.98,351.62,374.6,354.86,374.6z M353.13,359.36
				c0-3.25-2.64-5.89-5.89-5.89c-3.26,0-5.9,2.64-5.9,5.89c0,3.26,2.64,5.89,5.9,5.89C350.49,365.25,353.13,362.62,353.13,359.36z
				 M407.38,218.91c0,3.08,2.49,5.58,5.57,5.58c3.08,0,5.57-2.5,5.57-5.58s-2.49-5.57-5.57-5.57
				C409.88,213.34,407.38,215.83,407.38,218.91z M419.35,218.28c0,3.21,2.6,5.81,5.81,5.81s5.81-2.6,5.81-5.81s-2.6-5.81-5.81-5.81
				S419.35,215.07,419.35,218.28z M496.22,367.98c0,2.64,2.14,4.78,4.78,4.78c2.64,0,4.78-2.14,4.78-4.78
				c0-2.64-2.14-4.78-4.78-4.78C498.35,363.2,496.22,365.34,496.22,367.98z M510.18,379.3c0-2.48-2.01-4.5-4.5-4.5
				c-2.48,0-4.5,2.01-4.5,4.5c0,2.48,2.01,4.5,4.5,4.5C508.17,383.8,510.18,381.79,510.18,379.3z M513.15,385.99
				c-2.33,0-4.22,1.89-4.22,4.22c0,2.33,1.89,4.22,4.22,4.22c2.33,0,4.22-1.89,4.22-4.22C517.37,387.88,515.48,385.99,513.15,385.99
				z M514.46,396.66c-2.18,0-3.94,1.76-3.94,3.94s1.77,3.95,3.94,3.95s3.94-1.77,3.94-3.95S516.63,396.66,514.46,396.66z
				 M434.84,370.39c0-2.17-1.76-3.92-3.92-3.92c-2.17,0-3.93,1.76-3.93,3.92s1.76,3.92,3.93,3.92
				C433.08,374.32,434.84,372.56,434.84,370.39z M421.7,361.12c0,2.32,1.88,4.19,4.19,4.19c2.31,0,4.19-1.87,4.19-4.19
				s-1.88-4.19-4.19-4.19C423.58,356.93,421.7,358.8,421.7,361.12z M410.94,366.47c2.46,0,4.45-2,4.45-4.46
				c0-2.46-1.99-4.45-4.45-4.45c-2.46,0-4.45,1.99-4.45,4.45C406.49,364.48,408.48,366.47,410.94,366.47z M399.59,366.56
				c2.61,0,4.72-2.11,4.72-4.72s-2.11-4.72-4.72-4.72c-2.61,0-4.72,2.11-4.72,4.72S396.98,366.56,399.59,366.56z M365.73,365.42
				c2.8,0,5.07-2.27,5.07-5.07s-2.27-5.07-5.07-5.07c-2.8,0-5.07,2.27-5.07,5.07S362.93,365.42,365.73,365.42z M363.33,352.13
				c0-2.79-2.26-5.05-5.05-5.05s-5.05,2.26-5.05,5.05s2.26,5.05,5.05,5.05S363.33,354.91,363.33,352.13z M385.74,288.99
				c0-2.64-2.14-4.78-4.77-4.78c-2.64,0-4.78,2.14-4.78,4.78c0,2.64,2.14,4.77,4.78,4.77C383.6,293.76,385.74,291.62,385.74,288.99z
				 M413.93,236.53c2.82,0,5.1-2.28,5.1-5.1c0-2.81-2.28-5.1-5.1-5.1c-2.82,0-5.1,2.29-5.1,5.1
				C408.83,234.25,411.11,236.53,413.93,236.53z M425.15,225.75c-3,0-5.43,2.43-5.43,5.42c0,3,2.43,5.43,5.43,5.43
				s5.43-2.43,5.43-5.43C430.58,228.17,428.15,225.75,425.15,225.75z M492.39,367.56c-2.67,0-4.84,2.17-4.84,4.84
				c0,2.67,2.17,4.84,4.84,4.84c2.67,0,4.84-2.17,4.84-4.84C497.23,369.73,495.07,367.56,492.39,367.56z M496.71,387.44
				c2.51,0,4.55-2.03,4.55-4.54c0-2.51-2.03-4.55-4.55-4.55c-2.51,0-4.54,2.03-4.54,4.55C492.17,385.41,494.2,387.44,496.71,387.44z
				 M507.93,392.63c0-2.35-1.9-4.25-4.25-4.25c-2.34,0-4.25,1.9-4.25,4.25c0,2.35,1.9,4.25,4.25,4.25
				C506.02,396.88,507.93,394.98,507.93,392.63z M505.68,400.6c-2.18,0-3.95,1.77-3.95,3.96c0,2.19,1.77,3.96,3.95,3.96
				c2.19,0,3.96-1.77,3.96-3.96C509.64,402.37,507.87,400.6,505.68,400.6z M419.44,350.22c-2.25,0-4.07,1.83-4.07,4.07
				c0,2.25,1.82,4.07,4.07,4.07s4.07-1.82,4.07-4.07C423.52,352.04,421.69,350.22,419.44,350.22z M409.07,356.47
				c2.33,0,4.21-1.89,4.21-4.21c0-2.33-1.89-4.22-4.21-4.22c-2.33,0-4.22,1.89-4.22,4.22C404.86,354.58,406.74,356.47,409.07,356.47
				z M398.45,356.49c2.41,0,4.36-1.95,4.36-4.36c0-2.41-1.95-4.36-4.36-4.36c-2.41,0-4.36,1.95-4.36,4.36
				C394.09,354.54,396.04,356.49,398.45,356.49z M387.86,356.57c2.43,0,4.4-1.97,4.4-4.4s-1.97-4.4-4.4-4.4
				c-2.43,0-4.4,1.97-4.4,4.4S385.43,356.57,387.86,356.57z M377.29,356.28c2.43,0,4.4-1.97,4.4-4.4c0-2.43-1.97-4.4-4.4-4.4
				s-4.4,1.97-4.4,4.4C372.89,354.31,374.85,356.28,377.29,356.28z M373.89,345.27c0-2.43-1.97-4.4-4.4-4.4s-4.4,1.97-4.4,4.4
				c0,2.43,1.97,4.4,4.4,4.4S373.89,347.7,373.89,345.27z M387.02,300.53c2.35,0,4.26-1.91,4.26-4.26c0-2.36-1.91-4.26-4.26-4.26
				c-2.36,0-4.26,1.91-4.26,4.26C382.76,298.62,384.67,300.53,387.02,300.53z M387.07,286.57c0,2.32,1.88,4.2,4.2,4.2
				c2.32,0,4.21-1.88,4.21-4.2c0-2.32-1.88-4.2-4.21-4.2C388.95,282.37,387.07,284.25,387.07,286.57z M391.33,276.88
				c0,2.32,1.88,4.19,4.2,4.19c2.32,0,4.2-1.88,4.2-4.19c0-2.32-1.88-4.2-4.2-4.2C393.21,272.68,391.33,274.56,391.33,276.88z
				 M395.52,267.19c0,2.35,1.9,4.25,4.25,4.25s4.25-1.9,4.25-4.25c0-2.35-1.9-4.25-4.25-4.25S395.52,264.83,395.52,267.19z
				 M399.72,257.49c0,2.38,1.93,4.31,4.31,4.31c2.38,0,4.31-1.93,4.31-4.31c0-2.38-1.93-4.31-4.31-4.31
				C401.65,253.18,399.72,255.11,399.72,257.49z M404.48,248.09c0,2.41,1.95,4.36,4.36,4.36c2.41,0,4.36-1.95,4.36-4.36
				c0-2.41-1.95-4.36-4.36-4.36C406.44,243.73,404.48,245.68,404.48,248.09z M422.56,243.27c0-2.51-2.04-4.55-4.55-4.55
				s-4.55,2.03-4.55,4.55c0,2.51,2.04,4.55,4.55,4.55S422.56,245.78,422.56,243.27z M432.99,245.97c0-2.74-2.22-4.97-4.97-4.97
				s-4.97,2.23-4.97,4.97c0,2.75,2.22,4.97,4.97,4.97S432.99,248.71,432.99,245.97z M492.55,399.3c0,2.36,1.91,4.27,4.27,4.27
				s4.27-1.91,4.27-4.27s-1.91-4.27-4.27-4.27S492.55,396.95,492.55,399.3z M437.88,370.14c1.94,0,3.51-1.57,3.51-3.52
				c0-1.94-1.57-3.51-3.51-3.51s-3.51,1.57-3.51,3.51C434.37,368.57,435.94,370.14,437.88,370.14z M433.72,354.31
				c-1.88,0-3.4,1.52-3.4,3.4c0,1.88,1.53,3.4,3.4,3.4c1.88,0,3.4-1.52,3.4-3.4C437.12,355.83,435.6,354.31,433.72,354.31z
				 M427.18,347.08c-1.82,0-3.29,1.47-3.29,3.29c0,1.82,1.47,3.29,3.29,3.29s3.29-1.47,3.29-3.29
				C430.47,348.55,429,347.08,427.18,347.08z M418.82,348.36c1.75,0,3.18-1.42,3.18-3.18c0-1.76-1.42-3.18-3.18-3.18
				c-1.76,0-3.18,1.42-3.18,3.18C415.65,346.94,417.07,348.36,418.82,348.36z M409.33,345.78c1.74,0,3.15-1.41,3.15-3.16
				c0-1.74-1.41-3.15-3.15-3.15c-1.74,0-3.15,1.41-3.15,3.15C406.18,344.37,407.59,345.78,409.33,345.78z M396.3,342.42
				c0,1.75,1.42,3.16,3.16,3.16c1.75,0,3.16-1.42,3.16-3.16c0-1.75-1.42-3.16-3.16-3.16C397.72,339.26,396.3,340.68,396.3,342.42z
				 M389.59,339.31c-1.75,0-3.17,1.42-3.17,3.17c0,1.75,1.42,3.17,3.17,3.17c1.75,0,3.17-1.42,3.17-3.17
				C392.76,340.73,391.34,339.31,389.59,339.31z M384.17,338.87c0-1.76-1.42-3.18-3.18-3.18c-1.76,0-3.18,1.43-3.18,3.18
				s1.42,3.18,3.18,3.18C382.75,342.04,384.17,340.62,384.17,338.87z M378.26,329.5c0,1.76,1.43,3.19,3.19,3.19s3.19-1.43,3.19-3.19
				s-1.43-3.19-3.19-3.19S378.26,327.74,378.26,329.5z M388.68,320.49c0-1.78-1.44-3.22-3.22-3.22c-1.78,0-3.23,1.44-3.23,3.22
				c0,1.78,1.44,3.22,3.23,3.22C387.24,323.71,388.68,322.27,388.68,320.49z M389.48,308.15c-1.84,0-3.33,1.49-3.33,3.33
				c0,1.84,1.49,3.32,3.33,3.32s3.33-1.49,3.33-3.32C392.8,309.64,391.31,308.15,389.48,308.15z M396.92,302.46
				c0-1.89-1.54-3.43-3.43-3.43c-1.89,0-3.43,1.53-3.43,3.43c0,1.9,1.53,3.43,3.43,3.43C395.39,305.89,396.92,304.36,396.92,302.46z
				 M397.51,289.92c-1.95,0-3.53,1.58-3.53,3.53c0,1.95,1.58,3.53,3.53,3.53c1.95,0,3.53-1.58,3.53-3.53
				C401.04,291.51,399.46,289.92,397.51,289.92z M401.52,280.81c-2.01,0-3.63,1.62-3.63,3.63s1.63,3.63,3.63,3.63
				s3.63-1.62,3.63-3.63S403.53,280.81,401.52,280.81z M409.28,275.43c0-2.06-1.67-3.73-3.74-3.73c-2.06,0-3.74,1.67-3.74,3.73
				s1.67,3.73,3.74,3.73C407.6,279.17,409.28,277.5,409.28,275.43z M409.56,262.58c-2.12,0-3.84,1.72-3.84,3.84s1.72,3.83,3.84,3.83
				c2.12,0,3.84-1.72,3.84-3.83S411.68,262.58,409.56,262.58z M418.08,257.75c0-2.18-1.76-3.94-3.94-3.94s-3.94,1.77-3.94,3.94
				c0,2.18,1.77,3.94,3.94,3.94C416.31,261.69,418.08,259.93,418.08,257.75z M427.4,257.07c0-2.27-1.84-4.1-4.11-4.1
				c-2.27,0-4.11,1.84-4.11,4.1c0,2.27,1.84,4.11,4.11,4.11C425.56,261.18,427.4,259.34,427.4,257.07z M497.49,408.45
				c0,2.73-2.21,4.94-4.94,4.94c-2.73,0-4.94-2.21-4.94-4.94c0-0.68,0.14-1.33,0.39-1.92c-0.82,0.48-1.72,0.83-2.74,0.83
				c-3.04,0-5.51-2.47-5.51-5.51c0-0.97,0.32-1.83,0.75-2.62c-0.12,0.01-0.23,0.07-0.35,0.07c-3.25,0-5.87-2.63-5.87-5.87
				c0-1.18,0.44-2.22,1.03-3.14c-2.88-0.54-5.1-2.95-5.1-6c0-1.07,0.34-2.03,0.82-2.91c-2.79-0.76-4.88-3.2-4.88-6.23
				c0-0.99,0.25-1.9,0.64-2.74c-2.68-0.93-4.63-3.4-4.63-6.39c0-0.96,0.2-1.86,0.55-2.69c-2.57-1.02-4.4-3.51-4.4-6.45
				c0-0.92,0.2-1.79,0.52-2.59c-2.56-1.07-4.37-3.6-4.37-6.55c0-0.9,0.21-1.74,0.51-2.52c-2.56-1.12-4.35-3.65-4.35-6.62
				c0-0.88,0.21-1.69,0.5-2.46c-2.55-1.15-4.34-3.69-4.34-6.67c0-0.87,0.22-1.67,0.49-2.44c-2.52-1.19-4.3-3.72-4.3-6.7
				c0-0.93,0.22-1.81,0.53-2.63c-2.42-1.19-4.12-3.63-4.12-6.51c0-1.05,0.24-2.03,0.63-2.93c-2.33-1.12-3.96-3.45-3.96-6.2
				c0-1.21,0.39-2.3,0.94-3.29c-2.35-0.92-4.03-3.18-4.03-5.85c0-1.42,0.56-2.67,1.35-3.72c-2.51-0.58-4.42-2.72-4.42-5.41
				c0-1.66,0.74-3.12,1.88-4.16c-2.72-0.04-4.92-2.25-4.92-4.98c0-2.76,2.24-4.99,5-4.99c1.82,0,3.35,1.03,4.22,2.48
				c0.27-0.73,0.68-1.38,1.19-1.95c-2.27-0.22-4.13-1.7-4.87-3.78c-0.42,2.01-2.12,3.55-4.26,3.55c-2.46,0-4.44-1.99-4.44-4.44
				s1.99-4.45,4.44-4.45c1.8,0,3.34,1.09,4.04,2.63c0.22-1.52,0.99-2.82,2.15-3.72c-0.18,0.02-0.34,0.11-0.52,0.11
				c-2.97,0-5.39-2.41-5.39-5.38s2.41-5.39,5.39-5.39c0.58,0,1.12,0.16,1.64,0.33c-0.56-0.92-0.97-1.94-0.97-3.1
				c0-1.66,0.67-3.16,1.75-4.25c-0.44,0.11-0.86,0.27-1.33,0.27c-3.18,0-5.75-2.58-5.75-5.75c0-3.18,2.58-5.75,5.75-5.75
				c1.3,0,2.43,0.51,3.39,1.23c0-0.06-0.03-0.1-0.03-0.16c0-3.46,2.81-6.27,6.27-6.27c0.24,0,0.45,0.11,0.69,0.14
				c-0.39-0.83-0.65-1.73-0.65-2.71c0-3.55,2.88-6.43,6.43-6.43c0.22,0,0.39,0.1,0.6,0.12c-0.29-0.73-0.47-1.51-0.47-2.34
				c0-3.55,2.88-6.43,6.43-6.43c0.36,0,0.68,0.15,1.02,0.21c-0.1-0.44-0.27-0.85-0.27-1.33c0-3.5,2.84-6.34,6.34-6.34
				c0.53,0,1,0.18,1.48,0.3c-0.02-0.2-0.12-0.37-0.12-0.58c0-3.36,2.72-6.08,6.08-6.08c3.36,0,6.08,2.72,6.08,6.08
				c0,3.36-2.72,6.08-6.08,6.08c-0.45,0-0.85-0.16-1.27-0.26c0.04,0.27,0.16,0.51,0.16,0.79c0,3.5-2.84,6.33-6.34,6.33
				c-0.34,0-0.62-0.14-0.95-0.19c0.11,0.47,0.28,0.91,0.28,1.41c0,3.55-2.88,6.44-6.43,6.44c-0.21,0-0.4-0.1-0.61-0.12
				c0.29,0.72,0.47,1.5,0.47,2.33c0,0.53-0.18,0.99-0.3,1.48c1-2.28,3.27-3.88,5.91-3.88c0.41,0,0.77,0.16,1.16,0.23
				c-0.02-0.18-0.11-0.34-0.11-0.53c0-3.48,2.82-6.3,6.3-6.3c0.63,0,1.2,0.19,1.78,0.36c0.03-3.27,2.68-5.91,5.95-5.91
				c3.29,0,5.96,2.67,5.96,5.96c0,3.29-2.67,5.96-5.96,5.96c-0.52,0-0.99-0.17-1.48-0.3c0,0.08,0.05,0.15,0.05,0.23
				c0,3.48-2.82,6.29-6.3,6.29c-0.36,0-0.67-0.15-1.01-0.2c0.03,0.23,0.14,0.44,0.14,0.68c0,3.58-2.9,6.48-6.47,6.48
				c-0.23,0-0.42-0.11-0.65-0.13c0.12,0.51,0.31,0.99,0.31,1.53c0,2.56-1.51,4.72-3.64,5.79c0.67-0.23,1.36-0.42,2.11-0.42
				c0.3,0,0.55,0.13,0.83,0.17c-0.02-0.22-0.13-0.41-0.13-0.63c0-3.6,2.92-6.52,6.52-6.52c0.53,0,1.01,0.18,1.51,0.3
				c0.1-3.34,2.81-6.04,6.18-6.04c0.82,0,1.6,0.18,2.32,0.47c0.3-2.95,2.7-5.28,5.73-5.28c3.23,0,5.85,2.62,5.85,5.84
				s-2.62,5.85-5.85,5.85c-0.67,0-1.3-0.17-1.9-0.38c-0.16,3.3-2.83,5.93-6.16,5.93c-0.42,0-0.78-0.16-1.18-0.24
				c0,0.02,0.01,0.04,0.01,0.06c0,3.6-2.92,6.52-6.52,6.52c-0.25,0-0.47-0.12-0.72-0.14c0.03,0.25,0.15,0.48,0.15,0.74
				c0,2.43-1.37,4.47-3.32,5.63c0.55-0.14,1.08-0.33,1.67-0.33c0.43,0,0.8,0.17,1.2,0.24c0.07-3.47,2.88-6.27,6.36-6.27
				c0.74,0,1.43,0.19,2.09,0.42c0.35-3.02,2.82-5.39,5.93-5.39c1.04,0,1.96,0.33,2.82,0.78c0.41-2.76,2.69-4.92,5.56-4.92
				c3.16,0,5.73,2.57,5.73,5.73c0,3.16-2.57,5.73-5.73,5.73c-0.89,0-1.7-0.24-2.45-0.6c-0.34,3.03-2.81,5.41-5.93,5.41
				c-0.61,0-1.16-0.18-1.72-0.34c-0.23,3.31-2.92,5.96-6.3,5.96c-0.31,0-0.57-0.13-0.87-0.18c0,0.06,0.03,0.1,0.03,0.15
				c0,2.6-1.52,4.78-3.67,5.9c0.62-0.2,1.26-0.39,1.95-0.39c0.64,0,1.23,0.19,1.81,0.36c0.29-3.16,2.86-5.67,6.1-5.67
				c0.96,0,1.84,0.26,2.65,0.64c0.49-2.77,2.8-4.91,5.71-4.91c1.25,0,2.35,0.48,3.3,1.14c0.49-2.6,2.67-4.59,5.4-4.59
				c3.1,0,5.61,2.51,5.61,5.61c0,3.1-2.51,5.61-5.61,5.61c-1.11,0-2.09-0.41-2.96-0.97c-0.44,2.83-2.78,5.04-5.74,5.04
				c-0.83,0-1.61-0.18-2.32-0.48c-0.45,3-2.92,5.33-6.03,5.33c-0.52,0-0.97-0.18-1.45-0.29c-0.17,3.45-2.96,6.21-6.46,6.21
				c-0.32,0-0.59-0.14-0.89-0.18c-0.07,1.69-0.74,3.21-1.82,4.38c0.57,0.03,1.09,0.17,1.61,0.32c0.49-3,2.97-5.32,6.11-5.32
				c0.86,0,1.67,0.18,2.42,0.49c0.48-2.85,2.85-5.06,5.83-5.06c1.19,0,2.23,0.44,3.17,1.03c0.56-2.6,2.76-4.58,5.53-4.58
				c1.46,0,2.76,0.59,3.78,1.49c0.57-2.42,2.65-4.27,5.25-4.27c3.03,0,5.49,2.46,5.49,5.49c0,3.04-2.46,5.49-5.49,5.49
				c-1.34,0-2.53-0.54-3.49-1.34c-0.53,2.64-2.75,4.67-5.54,4.67c-1.07,0-2.02-0.37-2.88-0.89c-0.52,2.8-2.86,4.96-5.81,4.96
				c-0.74,0-1.44-0.18-2.1-0.42c-0.38,3.11-2.94,5.56-6.15,5.56c-0.51,0-0.97-0.18-1.44-0.29c-0.16,1.59-0.78,3.05-1.86,4.11
				c0.89,0.01,1.73,0.18,2.5,0.5c0.65-2.67,2.94-4.69,5.81-4.69c1.1,0,2.08,0.37,2.97,0.89c0.53-2.68,2.79-4.74,5.62-4.74
				c1.42,0,2.68,0.57,3.69,1.41c0.62-2.43,2.72-4.26,5.34-4.26c1.72,0,3.2,0.81,4.23,2.03c0.57-2.35,2.6-4.14,5.12-4.14
				c2.97,0,5.37,2.41,5.37,5.37c0,2.97-2.4,5.37-5.37,5.37c-1.6,0-3-0.73-3.98-1.84c-0.56,2.51-2.7,4.43-5.38,4.43
				c-1.32,0-2.48-0.52-3.44-1.29c-0.59,2.61-2.81,4.59-5.6,4.59c-0.99,0-1.88-0.31-2.7-0.75c-0.5,2.86-2.88,5.08-5.89,5.08
				c-0.71,0-1.36-0.18-1.99-0.4c-0.29,1.74-1.21,3.2-2.58,4.19c0.31-0.05,0.59-0.18,0.91-0.18c1.14,0,2.15,0.38,3.07,0.92
				c0.65-2.54,2.85-4.47,5.59-4.47c1.35,0,2.53,0.53,3.52,1.3c0.58-2.51,2.73-4.42,5.41-4.42c1.68,0,3.15,0.76,4.18,1.92
				c0.63-2.32,2.66-4.06,5.18-4.06c2.01,0,3.69,1.14,4.64,2.75c0.51-2.37,2.52-4.18,5.04-4.18c2.9,0,5.26,2.35,5.26,5.26
				c0,2.9-2.35,5.25-5.26,5.25c-1.9,0-3.5-1.07-4.42-2.59c-0.5,2.51-2.61,4.44-5.26,4.44c-1.58,0-2.98-0.69-3.98-1.77
				c-0.62,2.45-2.74,4.31-5.39,4.31c-1.25,0-2.35-0.49-3.29-1.18c-0.55,2.68-2.81,4.73-5.65,4.73c-0.96,0-1.83-0.28-2.63-0.69
				c-0.59,2.86-3,5.06-6.04,5.06c-0.26,0-0.47-0.12-0.72-0.15c0.27,0.66,0.39,1.39,0.43,2.13c1.05-1.7,2.84-2.89,4.99-2.89
				c1.38,0,2.58,0.54,3.59,1.33c0.62-2.45,2.74-4.31,5.39-4.31c1.6,0,3.04,0.68,4.07,1.75c0.61-2.36,2.66-4.14,5.22-4.14
				c2,0,3.66,1.12,4.62,2.71c0.55-2.35,2.56-4.14,5.08-4.14c2.4,0,4.35,1.62,5.01,3.8c0.31-2.53,2.38-4.53,4.99-4.53
				c2.82,0,5.11,2.29,5.11,5.11s-2.29,5.11-5.11,5.11c-2.29,0-4.15-1.52-4.8-3.6c-0.31,2.65-2.47,4.73-5.2,4.73
				c-1.91,0-3.51-1.07-4.45-2.58c-0.54,2.46-2.63,4.35-5.25,4.35c-1.52,0-2.89-0.61-3.88-1.61c-0.6,2.48-2.74,4.37-5.4,4.37
				c-1.25,0-2.34-0.49-3.28-1.17c-0.58,2.68-2.85,4.72-5.7,4.72c-0.5,0-0.94-0.17-1.4-0.28c0.25,0.66,0.43,1.37,0.43,2.11
				c0,2.05-1.08,3.78-2.63,4.9c0.28-0.04,0.53-0.16,0.81-0.16c0.78,0,1.51,0.16,2.19,0.44c-0.16-0.52-0.33-1.05-0.33-1.63
				c0-3.11,2.52-5.62,5.62-5.62c1.63,0,3.07,0.72,4.1,1.83c0.57-2.4,2.62-4.22,5.2-4.22c1.95,0,3.58,1.08,4.54,2.63
				c0.48-2.42,2.51-4.28,5.08-4.28c2.45,0,4.43,1.71,5.02,3.98c0.23-2.61,2.36-4.67,5.02-4.67c2.82,0,5.11,2.29,5.11,5.11
				s-2.29,5.11-5.11,5.11c-2.37,0-4.27-1.64-4.85-3.82c-0.23,2.7-2.43,4.84-5.19,4.84c-1.87,0-3.44-1.03-4.37-2.5
				c-0.47,2.53-2.59,4.49-5.25,4.49c-1.55,0-2.93-0.66-3.92-1.69c-0.56,2.52-2.7,4.44-5.38,4.44c-0.74,0-1.43-0.16-2.08-0.42
				c0.18,0.56,0.35,1.13,0.35,1.75c0,3.18-2.58,5.75-5.75,5.75c-1.44,0-2.72-0.58-3.72-1.45c-0.26,0.62-0.66,1.14-1.08,1.64
				c1.73,0.23,3.17,1.17,4.09,2.57c0.79-2.01,2.73-3.45,5.03-3.45c1.06,0,2,0.38,2.84,0.92c-0.16-0.51-0.32-1.02-0.32-1.59
				c0-2.94,2.39-5.33,5.33-5.33c1.99,0,3.65,1.13,4.57,2.74c0.36-2.51,2.44-4.47,5.05-4.47c2.44,0,4.39,1.72,4.95,3.99
				c0.08-2.72,2.28-4.91,5.02-4.91c2.79,0,5.04,2.26,5.04,5.04c0,2.79-2.26,5.05-5.04,5.05c-2.36,0-4.25-1.66-4.8-3.85
				c-0.08,2.8-2.34,5.05-5.16,5.05c-1.91,0-3.52-1.09-4.42-2.63c-0.35,2.61-2.49,4.65-5.19,4.65c-1.03,0-1.94-0.37-2.75-0.88
				c0.17,0.53,0.33,1.06,0.33,1.64c0,3-2.43,5.43-5.43,5.43c-1.83,0-3.37-0.97-4.36-2.35c-0.31,0.92-0.8,1.74-1.49,2.39
				c2.53,0,4.58,1.75,5.22,4.08c0.46-2.37,2.45-4.19,4.95-4.19c1.35,0,2.57,0.55,3.48,1.4c-0.16-0.49-0.31-0.99-0.31-1.53
				c0-2.79,2.26-5.05,5.05-5.05c2.79,0,5.05,2.26,5.05,5.05s-2.26,5.05-5.05,5.05c-1.32,0-2.51-0.54-3.41-1.37
				c0.17,0.51,0.32,1.02,0.32,1.58c0,2.84-2.3,5.14-5.14,5.14c-2.32,0-4.21-1.57-4.85-3.69c-0.31,1.74-1.37,3.18-2.9,3.95
				c0.5-0.16,1.01-0.32,1.57-0.32c2.88,0,5.21,2.34,5.21,5.22s-2.33,5.21-5.21,5.21c-1.09,0-2.04-0.41-2.88-0.98
				c-0.15,0.72-0.38,1.39-0.75,2c1.24,0.39,2.26,1.14,3.03,2.15c0.61-2,2.41-3.49,4.61-3.49c2.71,0,4.9,2.2,4.9,4.9
				c0,2.71-2.19,4.9-4.9,4.9c-1.37,0-2.6-0.57-3.49-1.47c-0.17,0.88-0.5,1.67-1,2.38c1.85,0.42,3.41,1.61,4.14,3.33
				c0.33-2.22,2.15-3.94,4.45-3.94c2.53,0,4.59,2.05,4.59,4.59c0,2.53-2.05,4.58-4.59,4.58c-1.8,0-3.31-1.06-4.07-2.57
				c-0.06,0.95-0.37,1.79-0.82,2.57c0.05-0.01,0.09-0.03,0.14-0.03c3.04,0,5.51,2.47,5.51,5.51c0,0.84-0.22,1.62-0.56,2.33
				c0.71-0.39,1.48-0.67,2.34-0.67C495.28,403.51,497.49,405.72,497.49,408.45L497.49,408.45L497.49,408.45z M448,237.16
				c0.45-0.1,0.88-0.27,1.36-0.27c0.21,0,0.39,0.1,0.59,0.12c-0.14-0.5-0.28-0.99-0.31-1.52C449.2,236.15,448.66,236.7,448,237.16
				L448,237.16z M471.7,313.6C471.69,313.6,471.69,313.61,471.7,313.6L471.7,313.6C471.7,313.61,471.7,313.6,471.7,313.6z
				 M479.58,367.59c-0.54,0.18-1.09,0.34-1.69,0.34c-0.84,0-1.62-0.22-2.33-0.56c-0.12,0.59-0.25,1.15-0.52,1.67
				c0.76,0.29,1.43,0.72,2.02,1.26C477.54,369.11,478.44,368.17,479.58,367.59L479.58,367.59z M474,358.49
				c-0.04,0-0.08,0.03-0.12,0.03c-0.67,0-1.29-0.18-1.89-0.38c-0.1,0.54-0.15,1.08-0.37,1.57c0.43,0.18,0.76,0.5,1.14,0.75
				C473.04,359.71,473.45,359.03,474,358.49L474,358.49z M476.07,336.38c-0.33,0.05-0.62,0.19-0.96,0.19
				c-1.13,0-2.12-0.38-3.03-0.92c-0.18,0.42-0.5,0.75-0.76,1.13c1.15,0.27,2.22,0.75,3.03,1.57
				C474.76,337.56,475.35,336.91,476.07,336.38L476.07,336.38z M466.15,265.99c-0.2,0-0.36-0.1-0.56-0.11
				c0,0.05,0.03,0.09,0.03,0.13c0,1.75-0.71,3.3-1.78,4.52c0.32,0.02,0.61,0.12,0.92,0.19c0.2-2.26,1.52-4.13,3.42-5.14
				C467.53,265.79,466.87,265.99,466.15,265.99L466.15,265.99z M461.14,253.9c-0.21,0-0.39-0.1-0.6-0.12
				c0.05,0.31,0.18,0.58,0.18,0.9c0,0.41-0.16,0.77-0.24,1.16c0.57-0.94,1.34-1.71,2.29-2.27
				C462.24,253.71,461.72,253.9,461.14,253.9z M458.2,241.34c-0.66,0.22-1.33,0.41-2.06,0.41c-0.23,0-0.43-0.11-0.66-0.13
				c0.16,0.56,0.35,1.11,0.35,1.73c0,0.04-0.02,0.07-0.02,0.11C456.44,242.57,457.22,241.83,458.2,241.34
				C458.2,241.34,458.2,241.34,458.2,241.34z M450.98,229.68c-0.28,0-0.51-0.13-0.78-0.16c0.31,0.69,0.47,1.45,0.52,2.24
				c1.16-1.82,3.1-3.1,5.42-3.1c0.25,0,0.46,0.12,0.71,0.14c-0.12-0.49-0.3-0.95-0.3-1.48c0-0.53,0.18-1.01,0.3-1.5
				C455.85,228.09,453.6,229.68,450.98,229.68z M502.2,409.03c-2.4,0-4.35,1.95-4.35,4.36c0,2.41,1.95,4.36,4.35,4.36
				c2.41,0,4.36-1.95,4.36-4.36C506.55,410.98,504.6,409.03,502.2,409.03z"/>
		</g>
	</g>
</g>
</svg>
