<?xml version="1.0" encoding="UTF-8" standalone="no"?>
<!DOCTYPE svg PUBLIC "-//W3C//DTD SVG 1.1//EN" "http://www.w3.org/Graphics/SVG/1.1/DTD/svg11.dtd">
<svg xmlns="http://www.w3.org/2000/svg" version="1.1" viewBox="0.00 0.00 512.00 512.00">
<g stroke-width="2.00" fill="none" stroke-linecap="butt">
<path stroke="#808080" vector-effect="non-scaling-stroke" d="
  M 450.24 185.13
  A 0.30 0.30 0.0 0 0 450.03 184.62
  L 300.97 184.62
  A 0.30 0.30 0.0 0 0 300.75 184.71
  L 174.06 319.24
  A 0.30 0.30 0.0 0 0 174.27 319.75
  L 323.34 319.75
  A 0.30 0.30 0.0 0 0 323.56 319.66
  L 450.24 185.13"
/>
<path stroke="#808080" vector-effect="non-scaling-stroke" d="
  M 292.01 420.62
  A 0.39 0.39 0.0 0 0 292.39 420.33
  L 314.46 337.62
  A 0.39 0.39 0.0 0 0 314.08 337.13
  L 160.48 337.13
  A 0.39 0.39 0.0 0 0 160.10 337.42
  L 138.03 420.13
  A 0.39 0.39 0.0 0 0 138.41 420.62
  L 292.01 420.62"
/>
</g>
<rect fill="#000000" x="-8.91" y="-30.38" transform="translate(343.71,107.10) rotate(14.4)" width="17.82" height="60.76" rx="8.68"/>
<rect fill="#000000" x="-8.93" y="-30.35" transform="translate(193.27,129.22) rotate(-27.6)" width="17.86" height="60.70" rx="8.72"/>
<path fill="#000000" d="
  M 450.05 281.24
  Q 449.34 282.27 448.56 283.11
  Q 377.65 358.79 306.59 434.34
  C 304.07 437.03 301.71 438.00 297.81 438.00
  Q 213.64 438.00 129.47 438.00
  Q 124.11 438.00 121.83 436.57
  C 117.76 434.01 117.54 429.87 118.76 425.29
  Q 132.03 375.52 145.31 325.76
  Q 145.91 323.52 147.78 321.54
  Q 220.03 245.16 292.10 168.60
  C 293.04 167.61 296.29 167.25 298.03 167.25
  Q 382.84 167.25 467.65 167.25
  Q 471.84 167.25 474.09 168.54
  Q 479.56 171.67 477.67 178.74
  Q 464.11 229.46 450.71 279.79
  A 4.88 4.87 69.5 0 1 450.05 281.24
  Z
  M 450.24 185.13
  A 0.30 0.30 0.0 0 0 450.03 184.62
  L 300.97 184.62
  A 0.30 0.30 0.0 0 0 300.75 184.71
  L 174.06 319.24
  A 0.30 0.30 0.0 0 0 174.27 319.75
  L 323.34 319.75
  A 0.30 0.30 0.0 0 0 323.56 319.66
  L 450.24 185.13
  Z
  M 292.01 420.62
  A 0.39 0.39 0.0 0 0 292.39 420.33
  L 314.46 337.62
  A 0.39 0.39 0.0 0 0 314.08 337.13
  L 160.48 337.13
  A 0.39 0.39 0.0 0 0 160.10 337.42
  L 138.03 420.13
  A 0.39 0.39 0.0 0 0 138.41 420.62
  L 292.01 420.62
  Z"
/>
<path fill="#ffffff" d="
  M 450.24 185.13
  L 323.56 319.66
  A 0.30 0.30 0.0 0 1 323.34 319.75
  L 174.27 319.75
  A 0.30 0.30 0.0 0 1 174.06 319.24
  L 300.75 184.71
  A 0.30 0.30 0.0 0 1 300.97 184.62
  L 450.03 184.62
  A 0.30 0.30 0.0 0 1 450.24 185.13
  Z"
/>
<rect fill="#000000" x="-30.28" y="-8.96" transform="translate(97.85,226.99) rotate(20.0)" width="60.56" height="17.92" rx="8.73"/>
<path fill="#ffffff" d="
  M 292.01 420.62
  L 138.41 420.62
  A 0.39 0.39 0.0 0 1 138.03 420.13
  L 160.10 337.42
  A 0.39 0.39 0.0 0 1 160.48 337.13
  L 314.08 337.13
  A 0.39 0.39 0.0 0 1 314.46 337.62
  L 292.39 420.33
  A 0.39 0.39 0.0 0 1 292.01 420.62
  Z"
/>
<rect fill="#000000" x="-30.26" y="-8.95" transform="translate(60.52,354.30) rotate(-9.7)" width="60.52" height="17.90" rx="8.71"/>
</svg>
