<?xml version="1.0" encoding="UTF-8" standalone="no"?>
<!DOCTYPE svg PUBLIC "-//W3C//DTD SVG 1.1//EN" "http://www.w3.org/Graphics/SVG/1.1/DTD/svg11.dtd">
<svg xmlns="http://www.w3.org/2000/svg" version="1.1" viewBox="0.00 0.00 64.00 64.00">
<g stroke-width="2.00" fill="none" stroke-linecap="butt">
<path stroke="#87839c" vector-effect="non-scaling-stroke" d="
  M 48.10 35.69
  C 46.67 32.83 43.01 29.66 39.55 31.05
  Q 39.05 31.25 39.12 31.78
  C 40.68 44.28 26.91 53.54 16.89 44.84
  Q 14.93 43.14 16.51 45.20
  C 22.67 53.23 34.65 55.17 43.13 49.64
  C 53.79 42.69 55.87 28.22 47.47 18.28
  A 0.45 0.45 0.0 0 1 47.58 17.60
  Q 49.52 16.43 51.78 16.45
  A 0.76 0.76 0.0 0 0 52.36 15.19
  Q 47.13 9.15 39.48 12.01
  Q 39.00 12.19 38.52 12.02
  Q 32.40 9.91 27.00 11.74
  C 20.81 13.84 15.15 20.42 20.29 26.56
  Q 20.62 26.95 20.41 27.42
  Q 19.33 29.77 19.23 30.74
  Q 19.11 31.97 20.41 32.03
  Q 20.87 32.05 21.20 31.73
  Q 23.87 29.22 26.86 27.14
  C 34.27 21.99 43.82 24.81 47.72 33.01
  Q 48.32 34.26 48.37 35.62
  Q 48.40 36.29 48.10 35.69"
/>
<path stroke="#87839c" vector-effect="non-scaling-stroke" d="
  M 14.3341 36.1745
  A 0.34 0.34 0.0 0 0 13.9947 35.8339
  L 9.5547 35.8261
  A 0.34 0.34 0.0 0 0 9.2141 36.1655
  L 9.2059 40.8655
  A 0.34 0.34 0.0 0 0 9.5453 41.2061
  L 13.9853 41.2139
  A 0.34 0.34 0.0 0 0 14.3259 40.8745
  L 14.3341 36.1745"
/>
</g>
<path fill="#ffffff" d="
  M 30.12 0.00
  L 33.98 0.00
  C 51.07 2.47 61.75 12.34 64.00 29.88
  L 64.00 33.96
  C 62.66 50.26 50.36 62.57 34.08 64.00
  L 29.76 64.00
  C 12.48 61.74 2.55 51.20 0.00 34.11
  L 0.00 29.77
  Q 0.38 27.76 0.85 25.81
  Q 6.41 2.92 30.12 0.00
  Z
  M 48.10 35.69
  C 46.67 32.83 43.01 29.66 39.55 31.05
  Q 39.05 31.25 39.12 31.78
  C 40.68 44.28 26.91 53.54 16.89 44.84
  Q 14.93 43.14 16.51 45.20
  C 22.67 53.23 34.65 55.17 43.13 49.64
  C 53.79 42.69 55.87 28.22 47.47 18.28
  A 0.45 0.45 0.0 0 1 47.58 17.60
  Q 49.52 16.43 51.78 16.45
  A 0.76 0.76 0.0 0 0 52.36 15.19
  Q 47.13 9.15 39.48 12.01
  Q 39.00 12.19 38.52 12.02
  Q 32.40 9.91 27.00 11.74
  C 20.81 13.84 15.15 20.42 20.29 26.56
  Q 20.62 26.95 20.41 27.42
  Q 19.33 29.77 19.23 30.74
  Q 19.11 31.97 20.41 32.03
  Q 20.87 32.05 21.20 31.73
  Q 23.87 29.22 26.86 27.14
  C 34.27 21.99 43.82 24.81 47.72 33.01
  Q 48.32 34.26 48.37 35.62
  Q 48.40 36.29 48.10 35.69
  Z
  M 14.3341 36.1745
  A 0.34 0.34 0.0 0 0 13.9947 35.8339
  L 9.5547 35.8261
  A 0.34 0.34 0.0 0 0 9.2141 36.1655
  L 9.2059 40.8655
  A 0.34 0.34 0.0 0 0 9.5453 41.2061
  L 13.9853 41.2139
  A 0.34 0.34 0.0 0 0 14.3259 40.8745
  L 14.3341 36.1745
  Z"
/>
<path fill="#0e0638" d="
  M 48.37 35.62
  Q 48.32 34.26 47.72 33.01
  C 43.82 24.81 34.27 21.99 26.86 27.14
  Q 23.87 29.22 21.20 31.73
  Q 20.87 32.05 20.41 32.03
  Q 19.11 31.97 19.23 30.74
  Q 19.33 29.77 20.41 27.42
  Q 20.62 26.95 20.29 26.56
  C 15.15 20.42 20.81 13.84 27.00 11.74
  Q 32.40 9.91 38.52 12.02
  Q 39.00 12.19 39.48 12.01
  Q 47.13 9.15 52.36 15.19
  A 0.76 0.76 0.0 0 1 51.78 16.45
  Q 49.52 16.43 47.58 17.60
  A 0.45 0.45 0.0 0 0 47.47 18.28
  C 55.87 28.22 53.79 42.69 43.13 49.64
  C 34.65 55.17 22.67 53.23 16.51 45.20
  Q 14.93 43.14 16.89 44.84
  C 26.91 53.54 40.68 44.28 39.12 31.78
  Q 39.05 31.25 39.55 31.05
  C 43.01 29.66 46.67 32.83 48.10 35.69
  Q 48.40 36.29 48.37 35.62
  Z"
/>
<rect fill="#0e0638" x="-2.56" y="-2.69" transform="translate(11.77,38.52) rotate(0.1)" width="5.12" height="5.38" rx="0.34"/>
</svg>
