<svg xmlns="http://www.w3.org/2000/svg" version="1.1" xmlns:xlink="http://www.w3.org/1999/xlink" xmlns:svgjs="http://svgjs.com/svgjs" width="1000" height="1000">
  <rect width="1000" height="1000" rx="200" ry="200" fill="#ffffff"></rect>
  <g transform="matrix(0.8888888888888888,0,0,0.8888888888888888,100.00026236640088,100.00519646538629)">
    <svg xmlns="http://www.w3.org/2000/svg" version="1.1" xmlns:xlink="http://www.w3.org/1999/xlink" xmlns:svgjs="http://svgjs.com/svgjs" width="900" height="900">
      <svg stroke="#000000" stroke-width="70" stroke-linecap="round" stroke-linejoin="round" fill="none" version="1.0" viewBox="0 0 900.000000 900.000000" xmlns="http://www.w3.org/2000/svg" xmlns:svg="http://www.w3.org/2000/svg">
        <path d="M 377.87067,204.44461 H 237.22342"></path>
        <path d="M 377.87067,696.30454 H 237.22342"></path>
        <path d="M 44.006543,450.58215 H 378.23337"></path>
        <path d="m 390.12249,816.41119 h -34.30236 z m -2e-5,-244.02432 c 67.3855,10e-6 122.01223,54.62674 122.01223,122.01224 0,67.3855 -54.62673,122.01223 -122.01223,122.01224 m 2e-5,-732.92251 h -34.30236 z m 0,488.89796 H 117.4206 M 390.12249,327.5133 H 117.4206 m 272.70189,0 c 9.25813,0 18.2754,1.88018 26.94328,3.83389 54.42144,12.26638 95.06893,60.90002 95.06893,119.02738 1e-5,67.3855 -54.62673,122.01223 -122.01223,122.01224 m 0,-488.897995 c 67.38549,6e-6 122.01223,54.626745 122.01223,122.012235 0,67.3855 -54.62673,122.01223 -122.01223,122.01224"></path>
        <path d="m 665.60738,313.65619 c 1.2e-4,-36.55373 -20.93078,-69.87909 -53.85861,-85.75152 -11.69852,-5.63919 -24.42719,-8.82507 -37.40287,-9.3616 -22.87255,-0.94549 -45.3198,6.38302 -63.22825,20.64258 m 297.28106,-7.97082 c -29.45304,-17.0047 -65.74064,-17.0047 -95.1937,0 -29.45369,17.00474 -47.59788,48.43134 -47.59763,82.44136"></path>
        <path d="m 667.65527,523.68604 c -5.74508,-30.22378 -25.74175,-55.80828 -53.68359,-68.68213 -12.04981,-5.552 -25.10905,-8.51549 -38.3335,-8.72461 -1.8892,-0.0299 -3.78129,-0.004 -5.6748,0.0791 -15.14849,0.66466 -29.91815,4.93877 -43.08106,12.46582 l 0.0454,0.0205 c -5.91434,3.37635 -11.35219,7.3159 -16.2733,11.72019 m 157.00084,53.12112 c 8.90399,42.22431 44.99998,72.9184 87.62989,75.37353 l -0.0176,0.10986 c 9.09431,0.52899 17.9958,-0.24304 26.50928,-2.16504"></path>
        <path d="m 474.21307,798.35706 c -1.74174,-3.44439 -3.27503,-6.99429 -4.58954,-10.62941 M 775.99658,219.9624 C 764.21914,159.53022 726.61288,107.26596 673.05469,76.896973 642.60745,59.63722 608.34198,50.229742 573.3501,49.521973 529.48289,48.634354 486.43204,61.45468 450.19775,86.197266 M 760.80176,408.84961 c 38.50272,1e-5 73.21385,-23.19308 87.94775,-58.76514 14.73408,-35.57163 6.58881,-76.51662 -20.63672,-103.7417 -14.17837,-14.03758 -32.40882,-23.26603 -52.11621,-26.38037 M 651.12305,730.7666 c 22.05976,33.77137 63.00941,49.97254 102.20361,40.43555 39.19437,-9.53699 68.12207,-42.74065 72.19922,-82.87207 3.71292,-36.5945 -13.9891,-72.05399 -45.46875,-91.07959 46.65157,-9.63646 78.99848,-52.27406 75.71045,-99.79688 -3.46244,-49.89696 -44.94887,-88.60454 -94.96582,-88.604 M 474.52588,798.95508 c 22.25734,43.26045 73.55202,62.7776 118.93652,45.25342 45.38418,-17.52429 70.25219,-66.44965 57.66065,-113.4419 M 450.19775,86.197266 c -3.03881,2.159818 -6.01362,4.395532 -8.92215,6.704"></path>
      </svg>
    </svg>
  </g>
</svg>