<svg width="7976" height="2171" viewBox="0 0 7976 2171" fill="none" xmlns="http://www.w3.org/2000/svg">
    <path d="M1342.67 901.491C1309.81 917.922 1285.16 868.631 1315.29 849.462L1967.02 463.348C2082.04 405.842 2139.54 556.453 2035.48 597.529L1342.67 901.491ZM1808.2 145.694C1890.35 55.327 1764.38 -59.6856 1682.23 36.1583L1175.63 701.589C1150.98 726.234 1189.32 767.31 1216.7 742.664L1808.2 145.694ZM1060.61 646.821C1049.66 685.158 989.416 671.466 1005.85 630.39L1038.71 487.994C1057.88 427.749 1131.81 452.394 1109.91 509.901L1060.61 646.821ZM871.665 627.652C871.665 660.513 816.897 668.728 814.159 633.129L786.775 433.226C778.56 370.243 871.665 362.027 871.665 427.749V627.652ZM693.669 671.466C710.1 704.327 658.07 731.711 641.64 698.85L515.674 493.47C480.074 435.964 564.965 394.888 595.087 452.394L693.669 671.466ZM545.796 781.002C575.918 805.648 534.842 846.724 507.458 824.816L277.433 649.559C219.927 605.745 282.91 534.546 337.678 583.837L545.796 781.002ZM447.214 931.614C482.813 942.567 469.121 1000.07 430.783 989.12L107.653 906.968C44.6695 890.538 66.5767 789.217 140.513 813.863L447.214 931.614ZM417.091 1172.59L58.3615 1224.62C-12.8368 1232.84 -23.7904 1128.78 52.8847 1126.04L411.615 1115.09C458.167 1112.35 455.429 1169.85 417.091 1172.59ZM474.598 1347.85L121.345 1553.23C58.3615 1586.09 11.8087 1492.98 77.5302 1460.12L444.475 1293.08C482.813 1273.91 510.197 1328.68 474.598 1347.85ZM597.825 1495.72L315.771 1846.24C269.218 1903.74 192.543 1840.76 239.096 1783.25L554.011 1457.39C581.395 1424.52 622.471 1465.6 597.825 1495.72ZM764.868 1583.35L644.378 2043.4C625.209 2125.55 496.505 2089.96 534.842 1996.85L710.1 1561.44C723.792 1525.85 778.56 1547.75 764.868 1583.35ZM956.555 1597.04L1025.02 2095.43C1044.18 2188.54 901.787 2199.49 899.049 2106.39V1602.52C893.572 1564.18 953.817 1558.71 956.555 1597.04ZM1137.29 1539.54L1419.34 2007.8C1471.37 2089.96 1348.15 2152.94 1304.33 2062.57L1085.26 1566.92C1068.83 1534.06 1118.12 1506.68 1137.29 1539.54ZM1290.64 1408.09L1742.47 1744.92C1838.32 1816.12 1739.74 1933.87 1652.11 1846.24L1255.04 1451.91C1227.66 1427.26 1263.26 1386.19 1290.64 1408.09ZM1381.01 1224.62L1986.19 1383.45C2073.82 1410.83 2035.48 1536.8 1942.38 1506.68L1364.58 1282.13C1328.98 1268.44 1342.67 1216.41 1381.01 1224.62ZM1394.7 1090.44C1391.96 1090.44 1389.22 1090.44 1383.74 1090.44C1353.62 1084.96 1353.62 1038.41 1386.48 1032.93L2060.13 931.614C2180.62 920.66 2177.88 1071.27 2071.08 1076.75L1394.7 1090.44Z" fill="url(#paint0_radial_553_251)"/>
    <path d="M3678.49 687.901C3725.04 687.901 3760.64 723.501 3760.64 767.315C3760.64 813.868 3725.04 849.467 3678.49 849.467L3021.27 846.728V849.467C2988.41 849.467 2961.03 852.205 2941.86 860.42C2928.17 865.897 2917.21 874.112 2911.74 882.328C2906.26 893.281 2903.52 904.235 2903.52 915.188C2906.26 926.142 2909 937.095 2914.47 942.572C2922.69 953.526 2939.12 961.741 2958.29 969.956C2982.93 980.91 3015.79 989.125 3048.65 997.34H3051.39L3536.09 1095.92C3596.33 1106.88 3656.58 1128.78 3700.39 1169.86C3744.21 1208.2 3771.59 1260.23 3771.59 1331.42V1334.16C3771.59 1388.93 3746.95 1443.7 3703.13 1482.04C3662.06 1520.37 3604.55 1545.02 3527.87 1545.02H3522.4V1547.76H2835.06C2788.51 1547.76 2752.91 1509.42 2752.91 1465.61C2752.91 1421.79 2788.51 1383.45 2835.06 1383.45H3522.4H3527.87C3558 1383.45 3579.9 1375.24 3593.6 1364.29C3604.55 1353.33 3610.03 1342.38 3610.03 1331.42C3610.03 1312.26 3601.81 1298.56 3593.6 1290.35C3571.69 1273.92 3541.57 1262.96 3508.71 1254.75H3503.23L3021.27 1156.17H3015.79C2974.72 1147.95 2933.64 1137 2895.3 1120.57C2854.23 1104.14 2815.89 1079.49 2788.51 1046.63C2761.12 1013.77 2744.69 969.956 2741.95 923.403C2739.22 882.328 2750.17 838.513 2772.08 800.176C2796.72 761.838 2832.32 731.716 2878.87 709.809C2917.21 693.378 2966.5 685.163 3021.27 685.163L3678.49 687.901Z" fill="white"/>
    <path d="M4891.64 687.949C4935.45 687.949 4971.05 726.287 4971.05 770.101C4971.05 813.915 4935.45 849.515 4891.64 849.515H4201.56C4138.58 849.515 4100.24 876.899 4083.81 909.759C4078.34 923.451 4072.86 934.405 4072.86 948.097C4072.86 959.05 4075.6 972.742 4081.07 983.696C4097.5 1013.82 4135.84 1038.46 4201.56 1038.46H4606.85C4653.4 1038.46 4689 1074.06 4689 1117.88C4689 1164.43 4653.4 1200.03 4606.85 1200.03H4201.56C4064.64 1200.03 3977.01 1137.05 3935.94 1052.16C3919.51 1019.3 3911.29 983.696 3911.29 945.358C3911.29 909.759 3919.51 874.16 3935.94 841.299C3977.01 753.671 4067.38 687.949 4201.56 687.949H4891.64Z" fill="white"/>
    <path d="M4891.64 1383.46C4935.45 1383.46 4971.05 1419.06 4971.05 1462.87C4971.05 1509.43 4935.45 1545.03 4891.64 1545.03H4201.56C4102.98 1545.03 4026.31 1506.69 3977.01 1451.92C3974.28 1451.92 3974.28 1449.18 3971.54 1446.44C3952.37 1424.54 3938.68 1399.89 3927.72 1372.51C3916.77 1345.12 3911.29 1315 3911.29 1284.88C3911.29 1219.16 3938.68 1153.44 3993.44 1106.88C4004.4 1095.93 4015.35 1084.98 4029.04 1076.76C4042.74 1071.28 4056.43 1063.07 4070.12 1057.59C4083.81 1052.12 4094.77 1049.38 4105.72 1046.64C4119.41 1041.16 4130.36 1038.42 4144.06 1038.42C4187.87 1030.21 4228.95 1063.07 4234.42 1106.88C4242.64 1150.7 4209.78 1191.77 4165.96 1197.25C4160.49 1199.99 4152.27 1199.99 4146.79 1202.73C4141.32 1202.73 4135.84 1205.47 4130.36 1208.2C4124.89 1210.94 4119.41 1213.68 4113.93 1216.42C4108.46 1219.16 4102.98 1221.9 4100.24 1227.37C4083.81 1241.06 4075.6 1262.97 4075.6 1284.88C4075.6 1295.83 4075.6 1306.79 4081.07 1315C4083.81 1325.95 4089.29 1334.17 4094.77 1342.39L4097.5 1345.12C4116.67 1367.03 4152.27 1383.46 4201.56 1383.46H4891.64Z" fill="white"/>
    <path fill-rule="evenodd" clip-rule="evenodd" d="M6334.74 1383.47C6378.56 1383.47 6416.89 1419.07 6416.89 1465.63C6416.89 1509.44 6378.56 1547.78 6334.74 1547.78C6288.19 1547.78 6252.59 1509.44 6252.59 1465.63C6252.59 1419.07 6288.19 1383.47 6334.74 1383.47Z" fill="white"/>
    <path d="M6668.81 1514.94C6641.42 1550.54 6592.13 1558.76 6553.79 1534.11C6518.2 1509.47 6509.98 1457.44 6534.63 1421.84C6540.1 1416.36 6581.18 1334.21 6627.73 1238.37C6687.98 1120.62 6759.17 983.696 6794.77 915.236C6838.59 835.823 6871.45 783.793 6920.74 745.456C6972.77 704.38 7033.01 687.949 7120.64 687.949C7164.46 690.688 7202.79 726.287 7200.06 770.101C7200.06 816.654 7164.46 852.253 7117.9 849.515C7071.35 849.515 7041.23 857.73 7019.32 874.16C6994.68 893.329 6970.03 931.666 6937.17 991.911C6898.83 1060.37 6830.37 1197.29 6772.87 1309.57C6720.84 1413.62 6677.02 1501.25 6668.81 1514.94Z" fill="white"/>
    <path d="M7684.7 1421.84C7709.35 1457.44 7701.13 1509.47 7662.79 1534.11C7627.19 1558.76 7575.16 1550.54 7550.52 1512.21C7539.56 1498.51 7495.75 1413.62 7443.72 1309.57C7386.21 1194.55 7317.75 1060.37 7282.16 991.911C7246.56 931.666 7224.65 893.329 7197.27 871.422C7178.1 854.991 7147.97 849.515 7098.68 849.515C7054.87 849.515 7016.53 813.915 7016.53 770.101C7016.53 726.287 7052.13 687.949 7095.94 687.949C7186.31 687.949 7246.56 704.38 7298.59 745.456C7345.14 783.793 7380.74 835.823 7421.81 912.498C7460.15 980.958 7531.35 1120.62 7588.86 1235.63C7638.15 1334.21 7679.22 1413.62 7684.7 1421.84Z" fill="white"/>
    <path d="M7810.78 764.577C7810.78 720.762 7849.12 685.163 7892.93 685.163C7936.75 685.163 7975.08 720.762 7975.08 764.577V1465.61C7975.08 1509.42 7936.75 1545.02 7892.93 1545.02C7849.12 1545.02 7810.78 1509.42 7810.78 1465.61V764.577Z" fill="white"/>
    <path fill-rule="evenodd" clip-rule="evenodd" d="M6764.56 1161.62H7191.75C7235.57 1161.62 7271.17 1197.22 7271.17 1243.77C7271.17 1287.59 7235.57 1323.19 7191.75 1323.19H6764.56C6720.75 1323.19 6685.15 1287.59 6685.15 1243.77C6685.15 1197.22 6720.75 1161.62 6764.56 1161.62Z" fill="white"/>
    <path d="M5471.98 687.949H5841.66C5959.42 687.949 6066.21 734.502 6142.89 813.915C6222.3 890.59 6268.85 997.388 6268.85 1115.14C6268.85 1235.63 6222.3 1342.43 6142.89 1419.1C6066.21 1498.51 5959.42 1545.07 5841.66 1545.07H5471.98C5354.23 1545.07 5247.43 1498.51 5168.02 1419.1C5091.34 1342.43 5042.05 1235.63 5042.05 1115.14C5042.05 997.388 5091.34 890.59 5168.02 813.915C5247.43 734.502 5354.23 687.949 5471.98 687.949ZM5841.66 849.515H5471.98C5398.04 849.515 5332.32 879.637 5283.03 928.928C5236.48 975.481 5206.36 1043.94 5206.36 1115.14C5206.36 1189.08 5236.48 1257.54 5283.03 1304.09C5332.32 1353.38 5398.04 1383.5 5471.98 1383.5H5841.66C5912.86 1383.5 5981.32 1353.38 6027.88 1304.09C6077.17 1257.54 6107.29 1189.08 6107.29 1115.14C6107.29 1043.94 6077.17 975.481 6027.88 928.928C5981.32 879.637 5912.86 849.515 5841.66 849.515Z" fill="white"/>
    <defs>
        <radialGradient id="paint0_radial_553_251" cx="0" cy="0" r="1" gradientUnits="userSpaceOnUse" gradientTransform="translate(663.019 855.499) rotate(84.2332) scale(1093.14 1079.12)">
            <stop offset="0.1875" stop-color="#FF5E2B"/>
            <stop offset="0.526042" stop-color="#DBF253"/>
            <stop offset="1" stop-color="#25CA57"/>
        </radialGradient>
    </defs>
</svg>
