<?xml version="1.0" encoding="UTF-8" standalone="no"?>
<!DOCTYPE svg PUBLIC "-//W3C//DTD SVG 1.1//EN" "http://www.w3.org/Graphics/SVG/1.1/DTD/svg11.dtd">
<svg xmlns="http://www.w3.org/2000/svg" version="1.1" viewBox="0.00 0.00 256.00 256.00">
<g stroke-width="2.00" fill="none" stroke-linecap="butt">
<path stroke="#bfa28f" vector-effect="non-scaling-stroke" d="
  M 116.76 8.27
  Q 120.66 11.52 125.75 12.65
  Q 129.24 13.42 132.51 14.72
  Q 138.63 17.14 139.09 17.28
  C 147.00 19.65 156.23 20.29 164.26 17.87
  C 166.60 17.16 168.26 16.93 170.64 15.71
  C 172.49 14.75 174.39 14.53 176.24 13.47
  Q 176.96 13.05 177.93 12.91
  C 180.30 12.55 182.41 11.27 184.42 10.74
  Q 191.92 8.76 199.50 6.20"
/>
<path stroke="#bfa28f" vector-effect="non-scaling-stroke" d="
  M 213.74 7.28
  Q 213.70 7.52 212.93 7.98"
/>
<path stroke="#937d72" vector-effect="non-scaling-stroke" d="
  M 212.93 7.98
  C 198.09 7.16 183.52 14.71 171.83 23.55
  Q 166.32 27.72 162.84 35.43"
/>
<path stroke="#bfa28f" vector-effect="non-scaling-stroke" d="
  M 162.84 35.43
  C 160.55 41.17 157.45 48.66 158.70 54.32
  Q 158.75 54.51 158.86 54.63
  Q 158.97 54.73 159.08 54.80
  A 0.36 0.36 0.0 0 0 159.61 54.53
  Q 160.65 47.47 163.51 40.93
  Q 163.73 40.41 164.23 40.15
  C 165.69 39.36 166.69 37.85 167.69 37.12
  C 175.49 31.44 185.34 32.24 192.81 38.18
  Q 197.63 42.02 198.82 48.49"
/>
<path stroke="#e2c7ac" vector-effect="non-scaling-stroke" d="
  M 198.82 48.49
  Q 201.78 54.61 201.88 59.51
  Q 201.91 61.37 202.68 62.19
  Q 203.02 62.55 203.18 63.01
  L 203.84 64.90
  A 0.80 0.79 60.6 0 1 203.60 65.77
  C 202.87 66.38 202.35 66.68 201.86 67.53
  C 199.27 72.00 195.53 73.45 191.90 76.71
  Q 191.54 77.03 191.06 77.12
  Q 190.71 77.18 190.55 77.30
  Q 188.29 78.94 186.38 80.89
  Q 186.03 81.25 185.54 81.40
  Q 185.10 81.54 184.76 81.84
  C 181.08 85.06 173.62 86.32 168.07 87.18
  Q 167.59 87.26 167.15 87.06
  Q 166.80 86.90 166.41 86.99
  C 164.17 87.52 161.81 86.75 160.70 85.09"
/>
<path stroke="#9b8475" vector-effect="non-scaling-stroke" d="
  M 160.70 85.09
  Q 165.12 81.89 163.57 77.71
  C 158.84 64.96 145.91 65.70 142.21 78.20
  C 140.88 82.69 145.86 85.62 149.03 87.05"
/>
<path stroke="#e2c7ac" vector-effect="non-scaling-stroke" d="
  M 149.03 87.05
  Q 148.91 87.93 148.45 88.46
  Q 148.05 88.92 147.16 88.91
  Q 142.98 88.83 140.76 88.08
  Q 137.34 86.92 135.54 86.88"
/>
<path stroke="#d5c3b9" vector-effect="non-scaling-stroke" d="
  M 135.54 86.88
  Q 134.47 86.67 136.07 86.58
  A 0.21 0.20 -23.9 0 0 136.21 86.23
  Q 136.03 86.05 135.70 86.11
  Q 136.38 86.19 137.03 86.00
  Q 137.75 85.80 137.01 85.74
  L 134.98 85.59
  Q 134.29 85.53 134.85 85.13
  Q 135.48 84.68 136.37 84.92
  Q 136.38 84.92 136.38 84.89
  Q 136.39 84.87 136.37 84.89
  Q 135.34 84.74 134.27 84.51
  A 0.13 0.13 0.0 0 1 134.24 84.26
  Q 134.39 84.19 134.53 84.12
  Q 134.82 83.97 134.50 83.91
  Q 127.42 82.68 124.49 81.90
  Q 121.74 81.16 117.68 79.44
  C 115.94 78.70 113.61 78.28 111.69 77.16
  Q 111.62 77.12 111.56 77.18
  Q 111.46 77.29 111.36 77.39
  Q 111.22 77.52 111.04 77.44
  C 108.75 76.29 106.79 74.84 104.40 73.53
  Q 100.01 71.11 97.38 66.75
  Q 97.11 66.30 96.63 66.05
  Q 95.85 65.65 95.86 64.84
  Q 95.87 64.49 95.66 64.23
  C 94.89 63.24 95.64 61.94 95.07 60.55
  Q 94.89 60.09 94.96 59.61
  Q 95.21 58.04 96.09 56.86
  Q 96.38 56.46 96.43 55.96
  Q 96.66 53.67 98.17 52.00
  Q 98.53 51.60 98.65 51.08
  C 100.76 41.44 106.99 35.88 115.54 32.85"
/>
<path stroke="#e2c7ac" vector-effect="non-scaling-stroke" d="
  M 115.54 32.85
  L 119.24 31.97"
/>
<path stroke="#a59084" vector-effect="non-scaling-stroke" d="
  M 119.24 31.97
  Q 124.10 31.81 128.72 33.47
  C 129.77 33.85 130.43 34.80 131.77 34.92
  Q 132.25 34.96 132.67 35.20
  C 135.50 36.83 138.98 39.25 140.63 42.14
  C 141.82 44.22 142.86 45.46 143.41 47.89
  Q 143.90 50.04 144.43 52.18
  Q 144.59 52.80 144.54 53.84
  Q 144.50 54.92 144.97 55.57
  Q 145.86 56.80 146.19 55.32
  Q 147.26 50.65 146.57 46.29"
/>
<path stroke="#937d72" vector-effect="non-scaling-stroke" d="
  M 146.57 46.29
  C 144.86 36.16 141.44 28.33 132.77 22.48
  Q 114.51 10.15 93.01 5.18
  Q 86.88 3.76 66.86 2.46"
/>
<path stroke="#573c2d" vector-effect="non-scaling-stroke" d="
  M 146.57 46.29
  Q 146.65 48.17 146.34 48.94
  Q 145.34 51.39 144.81 48.76
  Q 143.17 40.53 138.30 33.72
  A 1.28 1.27 -9.9 0 0 137.61 33.24
  Q 137.16 33.12 136.90 32.79
  C 136.05 31.68 135.49 31.20 134.17 30.72
  Q 133.93 30.63 133.89 30.38
  Q 133.86 30.20 133.69 30.09
  C 132.08 29.11 130.64 29.55 129.13 29.07
  Q 122.00 26.78 115.49 25.94
  C 113.63 25.70 112.09 24.86 110.61 24.63
  C 101.13 23.15 94.21 27.63 87.76 33.89
  C 86.69 34.93 86.12 36.20 85.18 37.31
  C 83.89 38.84 83.37 40.75 82.21 42.22
  Q 81.32 43.35 80.44 44.49
  Q 80.38 44.57 80.37 44.48
  Q 80.34 44.32 80.51 44.24
  Q 80.61 44.20 80.62 44.10
  Q 80.69 43.19 81.50 41.75
  Q 83.35 38.48 85.33 35.28
  C 86.05 34.12 86.40 32.13 87.88 31.11
  Q 91.28 28.74 96.55 26.11
  Q 97.00 25.89 97.50 25.89
  Q 98.06 25.89 98.53 25.64
  C 102.13 23.72 105.37 24.12 108.91 24.12
  Q 110.94 24.13 113.96 24.93
  Q 117.28 25.83 120.76 25.68"
/>
<path stroke="#573c2d" vector-effect="non-scaling-stroke" d="
  M 120.76 25.68
  Q 122.86 27.12 124.54 27.01
  Q 125.38 26.96 124.67 26.51
  Q 123.08 25.50 120.76 25.68"
/>
<path stroke="#573c2d" vector-effect="non-scaling-stroke" d="
  M 120.76 25.68
  Q 117.05 24.98 113.40 24.08
  Q 108.97 22.98 105.99 23.18
  Q 101.78 23.46 97.71 24.71
  C 95.87 25.27 94.04 26.38 92.06 27.10
  Q 91.95 27.14 91.90 27.03
  L 91.90 27.02
  Q 91.86 26.91 91.97 26.86
  C 93.90 26.07 95.77 24.86 97.59 24.29
  Q 103.52 22.44 109.74 23.15
  Q 115.93 23.84 122.03 25.06
  C 123.77 25.40 125.43 26.47 127.52 26.64
  A 1.70 1.68 65.8 0 1 128.42 26.99
  Q 130.20 28.39 132.49 28.78
  Q 132.83 28.84 133.02 29.11
  Q 133.46 29.72 134.16 29.86
  Q 134.80 29.99 134.32 29.55
  C 133.27 28.57 132.55 27.59 131.26 26.92
  C 127.36 24.91 123.97 22.39 119.84 21.10
  C 112.03 18.64 101.10 15.90 93.09 20.21
  Q 92.22 20.67 88.86 23.85
  Q 85.95 26.60 82.31 27.45"
/>
<path stroke="#8f7666" vector-effect="non-scaling-stroke" d="
  M 155.57 87.79
  L 151.68 87.75"
/>
<path stroke="#704f39" vector-effect="non-scaling-stroke" d="
  M 215.58 8.84
  Q 214.46 8.02 212.93 7.98"
/>
<path stroke="#a68667" vector-effect="non-scaling-stroke" d="
  M 119.24 31.97
  Q 115.40 31.71 113.12 32.60
  C 111.45 33.25 109.64 33.60 108.38 34.24
  Q 106.13 35.39 104.00 36.82
  Q 103.95 36.86 103.97 36.80
  Q 103.98 36.72 104.04 36.56
  Q 104.14 36.28 103.91 36.46
  Q 102.27 37.76 100.38 37.73"
/>
<path stroke="#83624b" vector-effect="non-scaling-stroke" d="
  M 100.38 37.73
  Q 101.55 35.18 105.24 34.80
  Q 105.75 34.74 106.11 34.40
  Q 106.91 33.63 108.00 33.48
  Q 108.51 33.41 108.85 33.02
  C 110.09 31.59 112.84 31.23 114.63 31.06
  Q 114.95 31.03 115.16 30.79
  Q 115.33 30.61 115.56 30.64
  C 119.46 31.16 123.75 30.55 127.87 31.03
  Q 127.97 31.05 128.02 30.96
  Q 128.08 30.84 128.14 30.72
  A 0.19 0.19 0.0 0 0 127.97 30.45
  Q 126.70 30.48 125.66 29.80
  Q 125.26 29.55 124.79 29.52
  Q 116.07 28.91 113.39 28.32
  Q 112.46 28.12 110.12 26.49
  Q 109.73 26.22 109.25 26.20
  Q 102.47 25.96 100.77 26.70
  C 95.94 28.81 90.29 32.50 87.75 37.30
  Q 87.54 37.71 87.73 38.12
  Q 87.95 38.57 87.42 38.99
  C 87.09 39.26 86.81 39.81 86.67 40.18
  Q 86.42 40.88 87.02 40.44
  Q 88.29 39.51 89.02 38.14
  Q 89.04 38.09 89.11 38.12
  Q 89.24 38.18 89.19 38.26
  L 84.72 45.75"
/>
<path stroke="#a68667" vector-effect="non-scaling-stroke" d="
  M 84.72 45.75
  Q 84.42 46.41 83.11 48.13
  C 82.12 49.45 80.79 52.09 80.24 54.35
  C 79.35 58.02 78.62 61.02 78.82 66.13"
/>
<path stroke="#80695b" vector-effect="non-scaling-stroke" d="
  M 78.82 66.13
  Q 77.82 65.01 78.27 67.34
  Q 78.35 67.75 78.55 67.38
  Q 78.73 67.04 78.61 66.63
  Q 78.61 66.63 78.62 66.63
  Q 78.62 66.63 78.62 66.62
  A 0.01 0.00 -38.0 0 1 78.63 66.62
  L 79.33 72.20"
/>
<path stroke="#745743" vector-effect="non-scaling-stroke" d="
  M 79.33 72.20
  Q 78.41 71.01 77.67 70.60
  Q 77.06 70.27 76.98 70.95
  Q 76.75 72.73 77.09 75.50
  Q 77.96 82.52 74.49 89.06"
/>
<path stroke="#d6b99d" vector-effect="non-scaling-stroke" d="
  M 115.54 32.85
  Q 114.39 32.72 113.30 32.95
  Q 112.82 33.05 112.46 33.38
  Q 112.07 33.73 111.13 34.11
  Q 104.75 36.75 98.76 42.74
  Q 98.32 43.18 98.64 43.64
  Q 98.84 43.92 98.60 44.17
  L 96.55 46.37
  Q 96.39 46.54 96.39 46.76
  Q 96.39 46.90 96.39 47.03
  Q 96.39 47.11 96.35 47.17
  L 92.26 52.77
  Q 92.00 53.14 92.38 53.39
  L 92.82 53.67
  Q 93.29 53.96 93.01 54.44
  Q 92.13 55.93 92.08 57.68
  Q 92.06 58.18 91.57 58.28
  Q 90.47 58.51 90.35 59.58
  Q 90.28 60.25 90.86 61.29
  Q 92.02 63.40 92.83 65.66
  C 93.19 66.65 94.22 67.51 94.46 68.27
  Q 95.22 70.60 96.24 71.65
  C 98.52 74.03 100.63 75.90 103.77 77.36
  C 107.55 79.11 110.13 81.27 114.00 81.72
  Q 114.28 81.75 114.46 81.89
  Q 114.68 82.06 114.87 82.28
  Q 115.18 82.66 115.67 82.75
  Q 121.77 83.82 127.75 85.37
  Q 128.03 85.45 128.11 85.65
  Q 128.20 85.91 128.48 85.95
  L 135.54 86.88"
/>
<path stroke="#9c7a58" vector-effect="non-scaling-stroke" d="
  M 149.03 87.05
  L 151.68 87.75"
/>
<path stroke="#d6b99d" vector-effect="non-scaling-stroke" d="
  M 151.68 87.75
  Q 152.06 88.65 153.00 88.62
  Q 153.79 88.60 155.57 87.79"
/>
<path stroke="#9c7a58" vector-effect="non-scaling-stroke" d="
  M 155.57 87.79
  Q 158.67 86.85 160.70 85.09"
/>
<path stroke="#ae957a" vector-effect="non-scaling-stroke" d="
  M 209.34 73.60
  C 205.56 83.78 191.38 89.21 181.20 92.05
  Q 172.73 94.42 164.20 96.57
  C 151.89 99.67 138.25 94.80 125.76 92.37
  Q 109.59 89.22 94.74 82.20"
/>
<path stroke="#bca083" vector-effect="non-scaling-stroke" d="
  M 94.74 82.20
  Q 84.56 76.87 80.89 66.02
  Q 80.83 65.85 80.81 66.02
  Q 80.75 66.40 80.65 66.37
  A 1.51 1.08 -84.2 0 1 79.87 65.00
  L 79.87 61.00
  Q 79.87 60.81 79.63 60.81
  L 79.62 60.81
  Q 79.45 60.81 79.44 60.98
  Q 79.32 63.05 79.39 65.13
  Q 79.40 65.13 79.38 65.13
  Q 79.37 65.13 79.37 65.13
  L 79.37 61.25
  Q 79.37 61.05 79.14 61.06
  L 79.14 61.06
  Q 78.98 61.06 78.98 61.23
  L 78.82 66.13"
/>
<path stroke="#704f39" vector-effect="non-scaling-stroke" d="
  M 199.56 29.89
  Q 198.94 28.15 197.83 26.97
  A 1.12 1.11 67.7 0 0 197.03 26.63
  Q 196.18 26.62 195.55 26.07
  Q 195.16 25.73 194.68 25.57
  Q 189.22 23.68 186.00 24.75
  C 182.99 25.75 179.03 25.55 175.75 27.13
  Q 174.52 27.72 172.00 28.43
  C 168.46 29.42 165.55 33.48 163.61 36.57
  A 0.40 0.40 0.0 0 1 162.87 36.37
  L 162.84 35.43"
/>
<path stroke="#8b705e" vector-effect="non-scaling-stroke" d="
  M 211.06 65.40
  C 209.71 66.69 210.69 67.95 210.66 69.16
  Q 210.59 71.76 209.34 73.60"
/>
<path stroke="#bf9973" vector-effect="non-scaling-stroke" d="
  M 209.34 73.60
  Q 209.82 69.63 209.37 66.76
  Q 209.28 66.19 208.68 65.74
  Q 208.45 65.56 208.24 65.76
  L 207.88 66.12
  A 0.25 0.25 0.0 0 1 207.46 66.02
  L 206.23 62.22
  Q 206.09 61.80 205.78 61.49
  Q 204.03 59.71 202.96 57.45
  C 202.50 56.48 202.66 55.32 201.85 54.32
  Q 201.54 53.93 201.47 53.45
  Q 201.06 50.52 198.82 48.49"
/>
<path stroke="#88786e" vector-effect="non-scaling-stroke" d="
  M 94.74 82.20
  L 88.42 80.50
  A 2.02 2.02 0.0 0 0 85.89 82.27
  Q 85.74 83.84 84.49 83.25"
/>
<path stroke="#7b6250" vector-effect="non-scaling-stroke" d="
  M 84.49 83.25
  L 83.82 82.30"
/>
<path stroke="#80695b" vector-effect="non-scaling-stroke" d="
  M 83.82 82.30
  L 80.93 76.24"
/>
<path stroke="#8a715e" vector-effect="non-scaling-stroke" d="
  M 80.93 76.24
  L 79.33 72.20"
/>
<path stroke="#bf9973" vector-effect="non-scaling-stroke" d="
  M 100.38 37.73
  Q 98.50 38.28 97.97 36.28
  Q 97.84 35.80 97.37 35.63
  Q 95.58 34.98 93.77 36.17
  Q 90.85 38.09 88.92 40.55
  Q 88.88 40.60 87.54 42.81
  Q 86.53 44.48 84.72 45.75"
/>
<path stroke="#745743" vector-effect="non-scaling-stroke" d="
  M 80.93 76.24
  Q 80.01 75.73 79.62 74.54
  A 0.34 0.32 79.8 0 0 79.31 74.31
  L 78.94 74.31
  Q 78.44 74.31 78.41 74.81
  L 77.72 85.86
  Q 77.69 86.28 77.28 86.41
  Q 76.97 86.51 76.74 86.73
  Q 76.51 86.94 76.44 87.37
  Q 76.07 89.52 76.12 91.76
  Q 76.13 92.23 75.87 92.63
  C 75.20 93.68 75.45 94.53 74.77 95.47
  C 73.29 97.51 71.43 98.28 70.08 100.95"
/>
<path stroke="#6f5038" vector-effect="non-scaling-stroke" d="
  M 70.08 100.95
  L 64.38 113.27
  Q 64.17 113.71 64.11 114.20
  Q 63.96 115.32 63.36 116.21
  Q 62.15 118.00 61.97 118.50
  C 59.88 124.19 58.63 130.04 56.81 135.79
  C 56.32 137.33 56.21 139.10 55.74 140.75
  C 53.84 147.43 52.66 154.55 51.72 161.43
  C 51.20 165.24 48.75 174.20 50.48 177.77
  Q 51.89 180.70 51.90 184.00
  Q 51.91 185.93 54.63 190.62
  Q 55.58 192.26 56.24 197.69
  Q 56.25 197.81 57.20 202.20
  Q 58.26 207.12 54.96 212.96"
/>
<path stroke="#685243" vector-effect="non-scaling-stroke" d="
  M 207.04 85.81
  Q 202.10 91.46 198.86 98.02
  Q 197.24 101.30 196.46 104.74"
/>
<path stroke="#725e52" vector-effect="non-scaling-stroke" d="
  M 196.46 104.74
  L 195.90 107.41"
/>
<path stroke="#88786e" vector-effect="non-scaling-stroke" d="
  M 195.90 107.41
  Q 195.70 104.85 193.60 105.79
  Q 192.28 106.39 191.46 106.47
  Q 187.08 106.89 184.76 107.42
  C 182.72 107.89 181.04 107.81 179.03 108.23
  C 175.61 108.95 171.86 109.13 168.37 109.19
  Q 168.24 109.19 168.23 109.31
  Q 168.23 109.38 168.24 109.43
  Q 168.26 109.56 168.19 109.57
  Q 157.21 111.09 146.26 109.70
  Q 145.62 109.62 141.30 108.70
  C 139.16 108.25 136.22 108.51 134.36 107.42
  Q 133.42 106.87 132.52 106.67
  C 128.57 105.81 125.19 104.22 121.40 103.00
  C 119.31 102.33 117.47 101.41 115.38 101.03
  Q 110.73 100.17 106.09 99.22
  C 104.54 98.90 103.44 98.01 101.89 97.52
  Q 101.41 97.37 100.95 97.57
  Q 100.41 97.80 99.85 97.93
  Q 99.39 98.04 99.25 98.25
  Q 99.04 98.57 99.27 99.03"
/>
<path stroke="#88684d" vector-effect="non-scaling-stroke" d="
  M 99.27 99.03
  L 97.67 97.98"
/>
<path stroke="#685243" vector-effect="non-scaling-stroke" d="
  M 97.67 97.98
  Q 90.78 92.89 85.84 85.38"
/>
<path stroke="#6d5748" vector-effect="non-scaling-stroke" d="
  M 85.84 85.38
  Q 84.90 84.46 84.49 83.25"
/>
<path stroke="#654835" vector-effect="non-scaling-stroke" d="
  M 83.82 82.30
  Q 83.14 82.24 82.71 81.63
  Q 82.66 81.56 82.01 81.39
  Q 81.88 81.36 81.76 81.38
  Q 81.47 81.43 81.41 81.72
  L 79.57 90.59
  Q 79.47 91.08 79.63 91.55
  Q 80.48 93.94 78.28 94.76
  Q 78.13 94.82 78.12 94.75
  Q 78.11 94.61 78.11 94.47
  A 0.20 0.19 63.8 0 0 77.76 94.35
  Q 75.48 97.31 74.46 97.72
  Q 72.44 98.54 70.08 100.95"
/>
<path stroke="#5b3c26" vector-effect="non-scaling-stroke" d="
  M 85.84 85.38
  Q 83.43 84.98 83.59 87.02
  Q 83.81 89.72 83.66 92.48
  Q 83.63 93.04 84.15 93.24
  L 90.41 95.68
  Q 90.86 95.86 91.34 95.95
  Q 94.09 96.45 96.56 98.31"
/>
<path stroke="#7b532f" vector-effect="non-scaling-stroke" d="
  M 96.56 98.31
  C 93.67 98.04 91.58 97.97 89.15 99.81
  Q 86.75 101.63 86.23 102.50
  Q 83.13 107.79 83.35 115.24
  C 83.48 119.39 84.90 123.78 86.15 127.93
  Q 87.04 130.92 88.70 132.35
  C 91.01 134.36 92.84 136.50 94.90 138.75
  A 1.00 0.00 34.0 0 1 95.70 139.29
  Q 96.10 139.55 96.15 140.15
  Q 96.21 140.68 96.63 140.99
  L 108.94 149.89
  A 1.13 1.11 -28.8 0 0 109.68 150.10
  Q 110.74 150.03 111.38 150.86
  A 0.77 0.76 62.5 0 0 112.23 151.13
  Q 113.11 150.86 113.45 151.33
  Q 113.69 151.66 114.09 151.69
  L 119.37 152.06"
/>
<path stroke="#5b3c26" vector-effect="non-scaling-stroke" d="
  M 119.37 152.06
  C 117.51 163.82 111.90 173.42 104.81 183.29
  Q 101.01 188.56 95.38 191.72
  Q 93.88 192.56 92.51 193.63
  Q 92.21 193.86 91.83 193.90
  C 91.30 193.95 90.65 195.36 89.66 195.66
  Q 89.12 195.82 88.86 196.32
  Q 88.47 197.06 87.64 196.90
  Q 87.12 196.79 86.66 197.03
  Q 84.37 198.19 82.33 199.75
  Q 81.94 200.04 81.48 200.19
  Q 80.21 200.58 78.99 201.10
  C 77.29 201.82 75.69 201.89 73.98 202.28
  A 0.89 0.88 -71.9 0 0 73.59 202.48
  L 71.35 204.35
  Q 71.13 204.53 70.89 204.40
  Q 70.71 204.30 70.50 204.38
  Q 67.85 205.30 64.74 205.76"
/>
<path stroke="#754e2b" vector-effect="non-scaling-stroke" d="
  M 97.67 97.98
  Q 97.93 99.17 96.56 98.31"
/>
<path stroke="#80695b" vector-effect="non-scaling-stroke" d="
  M 195.90 107.41
  L 195.24 109.72"
/>
<path stroke="#b09c90" vector-effect="non-scaling-stroke" d="
  M 193.08 118.92
  C 192.13 116.16 189.38 116.12 187.01 116.52
  Q 183.65 117.09 180.24 117.30
  Q 173.47 117.70 166.69 118.05
  C 164.95 118.13 162.95 118.90 161.00 118.91
  Q 154.12 118.93 147.25 119.18
  Q 144.86 119.27 137.48 117.33
  Q 137.39 117.31 137.36 117.23
  Q 137.30 117.11 137.25 117.00
  Q 137.20 116.89 137.09 116.87
  Q 131.28 115.86 125.59 114.31
  Q 125.19 114.20 124.90 113.90
  L 124.63 113.64
  A 0.86 0.85 -21.6 0 0 124.05 113.39
  Q 123.24 113.37 122.74 112.71
  A 1.07 1.01 -8.5 0 0 122.25 112.37
  Q 119.97 111.65 118.00 110.34
  C 116.76 109.52 115.85 109.19 114.58 108.61
  Q 113.78 108.25 113.36 108.51
  Q 112.79 108.86 112.90 109.98"
/>
<path stroke="#967455" vector-effect="non-scaling-stroke" d="
  M 112.90 109.98
  C 109.08 105.43 105.17 103.07 99.27 99.03"
/>
<path stroke="#af8d6f" vector-effect="non-scaling-stroke" d="
  M 112.90 109.98
  Q 117.63 116.93 119.88 124.58"
/>
<path stroke="#967455" vector-effect="non-scaling-stroke" d="
  M 119.88 124.58
  Q 121.86 131.66 122.13 138.22"
/>
<path stroke="#7f5a3a" vector-effect="non-scaling-stroke" d="
  M 122.13 138.22
  L 121.62 137.12
  Q 121.22 136.26 120.96 137.16
  Q 120.76 137.83 120.83 138.82"
/>
<path stroke="#754e2b" vector-effect="non-scaling-stroke" d="
  M 120.83 138.82
  Q 120.65 138.37 120.64 137.89
  Q 120.64 137.87 120.63 137.87
  Q 120.54 137.86 120.66 137.88
  Q 120.68 137.88 120.67 137.90
  L 119.37 152.06"
/>
<path stroke="#754e2b" vector-effect="non-scaling-stroke" d="
  M 198.67 113.11
  Q 193.76 121.58 194.66 131.25
  Q 194.96 134.54 196.25 138.99
  Q 196.40 139.53 196.96 139.64
  L 199.57 140.15"
/>
<path stroke="#5f4330" vector-effect="non-scaling-stroke" d="
  M 181.72 175.16
  L 182.28 171.97"
/>
<path stroke="#6e5542" vector-effect="non-scaling-stroke" d="
  M 182.28 171.97
  L 184.84 167.71"
/>
<path stroke="#765d4c" vector-effect="non-scaling-stroke" d="
  M 184.84 167.71
  Q 191.72 154.37 191.50 138.22"
/>
<path stroke="#8f7666" vector-effect="non-scaling-stroke" d="
  M 191.50 138.22
  Q 191.78 137.37 191.55 137.47"
/>
<path stroke="#5f4330" vector-effect="non-scaling-stroke" d="
  M 191.55 137.47
  Q 191.73 137.57 191.84 137.62
  Q 192.15 137.78 192.16 137.43
  L 192.46 124.54"
/>
<path stroke="#8f7666" vector-effect="non-scaling-stroke" d="
  M 192.46 124.54
  L 193.08 118.92"
/>
<path stroke="#765d4c" vector-effect="non-scaling-stroke" d="
  M 193.08 118.92
  L 195.24 109.72"
/>
<path stroke="#5f4330" vector-effect="non-scaling-stroke" d="
  M 195.24 109.72
  Q 197.22 107.68 196.46 104.74"
/>
<path stroke="#6a4b34" vector-effect="non-scaling-stroke" d="
  M 122.25 140.48
  L 121.80 151.47"
/>
<path stroke="#6e5542" vector-effect="non-scaling-stroke" d="
  M 121.74 152.38
  L 120.46 157.19"
/>
<path stroke="#5f4330" vector-effect="non-scaling-stroke" d="
  M 120.46 157.19
  C 119.26 160.99 117.85 164.72 117.26 168.72
  Q 116.90 171.17 116.46 173.66
  Q 116.38 174.11 116.01 174.36
  Q 115.45 174.76 115.62 175.42
  Q 115.74 175.92 115.53 176.39
  Q 113.84 180.00 113.92 184.00
  Q 113.97 186.23 114.87 187.11
  Q 118.60 190.78 124.79 192.05
  Q 125.23 192.14 125.46 192.52
  Q 125.79 193.04 127.19 193.38
  A 0.97 0.96 -77.5 0 1 127.90 194.51
  Q 127.76 195.18 128.03 195.74
  Q 128.37 196.43 128.53 196.55
  Q 129.32 197.16 129.93 197.96
  C 131.09 199.46 132.35 200.20 134.00 200.97
  Q 134.33 201.13 133.97 201.13
  L 133.35 201.13
  Q 132.78 201.13 133.06 201.63
  Q 133.19 201.88 133.53 201.98
  Q 139.29 203.71 145.36 201.99
  Q 145.86 201.84 146.39 201.86
  C 148.88 201.96 151.10 200.90 153.67 200.85
  Q 155.56 200.81 156.73 200.34
  Q 158.21 199.74 159.61 199.00"
/>
<path stroke="#765d4c" vector-effect="non-scaling-stroke" d="
  M 142.56 232.33
  Q 141.74 234.17 142.34 235.84
  Q 142.49 236.23 142.88 236.40
  Q 144.65 237.16 145.16 238.93
  Q 145.32 239.51 144.80 239.80
  Q 142.71 240.98 142.09 242.74"
/>
<path stroke="#6e5542" vector-effect="non-scaling-stroke" d="
  M 130.93 244.31
  C 132.39 240.57 130.76 239.60 128.83 237.11
  Q 128.11 236.18 127.33 235.82"
/>
<path stroke="#5f4330" vector-effect="non-scaling-stroke" d="
  M 107.33 228.12
  Q 106.07 225.87 103.26 224.12
  Q 102.72 223.78 101.03 223.64
  Q 100.55 223.59 100.13 223.35
  L 96.37 221.14"
/>
<path stroke="#6e5542" vector-effect="non-scaling-stroke" d="
  M 96.37 221.14
  Q 94.65 220.38 89.14 219.15
  Q 83.18 217.81 78.93 211.46
  Q 77.47 209.28 76.41 206.83
  A 0.74 0.72 -10.4 0 0 75.75 206.39
  Q 75.46 206.38 75.21 206.25"
/>
<path stroke="#998275" vector-effect="non-scaling-stroke" d="
  M 192.46 124.54
  L 191.55 137.47"
/>
<path stroke="#b09c90" vector-effect="non-scaling-stroke" d="
  M 191.50 138.22
  Q 191.14 138.73 191.08 139.29
  A 1.48 1.45 70.1 0 1 190.69 140.15
  C 188.78 142.24 187.63 143.94 185.01 145.43
  Q 182.90 146.64 181.03 148.22
  C 177.15 151.49 170.70 152.01 165.80 153.16
  C 163.38 153.73 160.96 153.66 158.48 153.96
  C 151.56 154.80 144.06 153.43 137.38 151.63
  C 133.02 150.46 126.73 147.51 125.73 142.56
  Q 125.36 140.74 124.18 138.00
  Q 123.05 135.38 122.34 130.01
  C 122.08 127.96 120.93 126.32 119.88 124.58"
/>
<path stroke="#8e7b6d" vector-effect="non-scaling-stroke" d="
  M 184.84 167.71
  C 181.09 170.90 177.17 173.22 173.37 175.98
  Q 171.63 177.24 169.00 177.88
  C 158.23 180.49 150.09 182.60 140.00 180.96
  C 139.13 180.82 138.77 180.21 137.62 180.38
  Q 137.23 180.44 136.88 180.27
  L 132.05 177.97
  Q 131.65 177.78 131.43 177.39
  Q 130.96 176.57 130.07 176.30
  Q 129.59 176.15 129.21 175.82
  C 127.31 174.17 125.33 173.44 124.56 170.76
  C 123.85 168.31 123.48 166.64 123.41 163.70
  Q 123.35 160.79 121.83 158.23
  Q 121.59 157.83 121.60 157.35
  L 121.74 152.38"
/>
<path stroke="#765d4c" vector-effect="non-scaling-stroke" d="
  M 121.74 152.38
  Q 121.60 152.13 121.80 151.47"
/>
<path stroke="#8a715e" vector-effect="non-scaling-stroke" d="
  M 121.80 151.47
  Q 123.25 145.94 122.25 140.48"
/>
<path stroke="#80695b" vector-effect="non-scaling-stroke" d="
  M 122.25 140.48
  L 122.13 138.22"
/>
<path stroke="#5f4330" vector-effect="non-scaling-stroke" d="
  M 122.25 140.48
  Q 121.47 140.31 121.62 139.42
  A 0.09 0.09 0.0 0 0 121.48 139.34
  L 121.10 139.62
  A 0.27 0.27 0.0 0 1 120.67 139.43
  Q 120.65 139.10 120.83 138.82"
/>
<path stroke="#786151" vector-effect="non-scaling-stroke" d="
  M 182.28 171.97
  C 181.11 173.74 180.34 175.44 178.45 176.56
  Q 168.78 182.30 158.50 183.87
  Q 151.53 184.93 148.47 185.47
  Q 147.83 185.59 146.51 185.56
  C 143.65 185.50 141.39 185.66 137.87 184.64
  Q 135.63 183.98 132.05 182.23
  Q 131.96 182.19 127.52 180.45
  C 124.93 179.44 122.37 177.63 121.80 174.69
  C 121.28 172.01 121.58 168.59 121.63 165.81
  Q 121.66 164.32 120.91 161.80
  Q 120.24 159.58 120.46 157.19"
/>
<path stroke="#786151" vector-effect="non-scaling-stroke" d="
  M 96.37 221.14
  L 97.68 223.31
  A 1.35 1.32 32.5 0 1 97.86 224.08
  C 97.75 225.67 98.69 227.05 98.64 228.93
  C 98.61 229.98 97.90 230.79 97.90 231.99
  Q 97.90 232.44 97.72 232.85
  Q 97.00 234.40 96.85 236.11
  A 1.00 0.98 23.9 0 0 97.17 236.92
  Q 98.36 238.02 99.98 237.87
  Q 100.37 237.83 100.70 238.06
  Q 102.61 239.42 104.97 239.36
  Q 105.43 239.34 105.80 239.62
  C 108.41 241.53 110.87 240.14 113.30 240.16
  C 116.07 240.19 120.47 240.57 122.33 238.02"
/>
<path stroke="#8e7b6d" vector-effect="non-scaling-stroke" d="
  M 109.76 251.71
  Q 110.07 250.77 108.69 250.08
  Q 108.27 249.87 108.09 249.43
  Q 107.49 248.02 106.52 246.88
  Q 106.24 246.56 106.13 246.14
  L 105.91 245.29
  Q 105.78 244.80 105.29 244.64
  Q 104.76 244.48 104.48 244.78
  Q 104.12 245.15 104.19 245.67
  Q 104.24 246.14 104.01 246.49
  Q 103.76 246.87 103.69 246.42
  C 103.15 242.65 107.11 243.57 108.97 244.51
  Q 109.39 244.71 109.70 244.37
  Q 110.24 243.77 109.72 243.25
  Q 107.98 241.55 105.47 240.65
  A 1.12 1.12 0.0 0 0 104.10 241.17
  Q 103.51 242.25 102.24 242.14
  Q 101.76 242.09 101.83 241.61
  Q 102.03 240.26 101.63 239.76
  Q 100.60 238.48 100.00 238.57
  A 2.59 2.30 -88.2 0 0 98.02 240.66
  L 96.98 246.66"
/>
<path stroke="#a89487" vector-effect="non-scaling-stroke" d="
  M 75.47 245.77
  Q 75.07 241.98 76.00 238.34"
/>
<path stroke="#6e5542" vector-effect="non-scaling-stroke" d="
  M 96.81 226.14
  Q 96.14 225.00 95.99 223.20
  A 2.31 2.30 -89.2 0 0 93.97 221.12
  C 85.17 220.10 79.80 215.31 74.39 207.84"
/>
<path stroke="#8e7b6d" vector-effect="non-scaling-stroke" d="
  M 165.43 235.94
  Q 165.00 238.15 165.79 239.59"
/>
<path stroke="#765d4c" vector-effect="non-scaling-stroke" d="
  M 165.79 239.59
  Q 166.35 241.72 169.61 243.59"
/>
<path stroke="#998275" vector-effect="non-scaling-stroke" d="
  M 73.06 243.36
  Q 72.78 241.17 73.42 239.67"
/>
<path stroke="#786151" vector-effect="non-scaling-stroke" d="
  M 179.08 234.34
  L 180.61 237.45"
/>
<path stroke="#6e5542" vector-effect="non-scaling-stroke" d="
  M 178.90 241.58
  Q 173.11 240.20 166.93 237.13
  Q 166.26 236.80 165.89 237.44
  Q 165.51 238.10 165.79 239.59"
/>
<path stroke="#7b726e" vector-effect="non-scaling-stroke" d="
  M 140.4768 49.6922
  A 20.02 19.59 -14.9 0 0 116.0928 35.9087
  A 20.02 19.59 -14.9 0 0 101.7832 59.9878
  A 20.02 19.59 -14.9 0 0 126.1672 73.7713
  A 20.02 19.59 -14.9 0 0 140.4768 49.6922"
/>
<path stroke="#7b726e" vector-effect="non-scaling-stroke" d="
  M 187.5913 73.2372
  A 19.25 17.46 68.8 0 0 196.9084 48.9760
  A 19.25 17.46 68.8 0 0 173.6687 37.3428
  A 19.25 17.46 68.8 0 0 164.3516 61.6040
  A 19.25 17.46 68.8 0 0 187.5913 73.2372"
/>
<path stroke="#885721" vector-effect="non-scaling-stroke" d="
  M 139.59 54.81
  A 18.27 18.27 0.0 0 0 121.32 36.54
  A 18.27 18.27 0.0 0 0 103.05 54.81
  A 18.27 18.27 0.0 0 0 121.32 73.08
  A 18.27 18.27 0.0 0 0 139.59 54.81"
/>
<path stroke="#885721" vector-effect="non-scaling-stroke" d="
  M 185.0667 72.3859
  A 17.80 16.13 74.3 0 0 195.7782 50.8852
  A 17.80 16.13 74.3 0 0 175.4333 38.1141
  A 17.80 16.13 74.3 0 0 164.7218 59.6148
  A 17.80 16.13 74.3 0 0 185.0667 72.3859"
/>
<path stroke="#885721" vector-effect="non-scaling-stroke" d="
  M 135.79 54.55
  A 14.33 14.33 0.0 0 0 121.46 40.22
  A 14.33 14.33 0.0 0 0 107.13 54.55
  A 14.33 14.33 0.0 0 0 121.46 68.88
  A 14.33 14.33 0.0 0 0 135.79 54.55"
/>
<path stroke="#885721" vector-effect="non-scaling-stroke" d="
  M 185.5726 68.1151
  A 13.95 12.74 69.6 0 0 192.6510 50.5992
  A 13.95 12.74 69.6 0 0 175.8474 41.9649
  A 13.95 12.74 69.6 0 0 168.7690 59.4808
  A 13.95 12.74 69.6 0 0 185.5726 68.1151"
/>
<path stroke="#8a8a8a" vector-effect="non-scaling-stroke" d="
  M 126.5069 44.3600
  A 4.82 4.49 -15.4 0 0 120.6677 41.3112
  A 4.82 4.49 -15.4 0 0 117.2131 46.9200
  A 4.82 4.49 -15.4 0 0 123.0523 49.9688
  A 4.82 4.49 -15.4 0 0 126.5069 44.3600"
/>
<path stroke="#8a8a8a" vector-effect="non-scaling-stroke" d="
  M 183.8988 49.8783
  A 4.70 4.03 48.1 0 0 183.7596 43.6886
  A 4.70 4.03 48.1 0 0 177.6212 42.8817
  A 4.70 4.03 48.1 0 0 177.7604 49.0714
  A 4.70 4.03 48.1 0 0 183.8988 49.8783"
/>
<path stroke="#5f4330" vector-effect="non-scaling-stroke" d="
  M 157.96 83.51
  Q 158.82 83.01 158.95 82.00
  C 159.36 78.82 160.47 73.05 155.95 71.99
  Q 154.07 71.55 152.16 72.58
  Q 151.70 72.83 151.66 73.35
  Q 151.55 74.72 151.60 76.08
  C 151.68 78.18 153.08 79.43 153.68 81.51
  C 154.33 83.79 155.76 84.81 157.96 83.51"
/>
<path stroke="#786151" vector-effect="non-scaling-stroke" d="
  M 154.15 75.94
  Q 153.90 77.49 154.42 78.60
  Q 154.87 79.54 154.87 78.50
  L 154.87 76.74
  Q 154.87 76.29 155.29 76.12
  Q 156.27 75.70 156.77 76.60"
/>
<path stroke="#80695b" vector-effect="non-scaling-stroke" d="
  M 156.77 76.60
  Q 154.60 74.86 155.20 79.34
  Q 155.27 79.85 155.78 79.86
  L 156.52 79.88"
/>
<path stroke="#786151" vector-effect="non-scaling-stroke" d="
  M 156.52 79.88
  L 155.40 79.98
  Q 154.70 80.04 155.15 80.58
  Q 155.50 80.99 156.06 80.95
  Q 156.49 80.92 156.82 80.52
  Q 158.06 79.05 157.78 76.96"
/>
<path stroke="#83624b" vector-effect="non-scaling-stroke" d="
  M 157.78 76.96
  C 157.78 74.98 156.47 73.86 154.48 74.64"
/>
<path stroke="#745743" vector-effect="non-scaling-stroke" d="
  M 154.48 74.64
  Q 154.23 74.47 154.19 74.45
  A 0.60 0.59 -77.2 0 0 153.38 74.97
  Q 153.21 77.68 154.23 80.13
  Q 154.32 80.35 154.54 80.26
  L 154.55 80.26
  Q 154.77 80.17 154.67 79.96
  Q 153.76 78.05 154.15 75.94"
/>
<path stroke="#8d6a4e" vector-effect="non-scaling-stroke" d="
  M 154.48 74.64
  Q 154.81 74.74 154.24 75.72"
/>
<path stroke="#826955" vector-effect="non-scaling-stroke" d="
  M 154.24 75.72
  Q 154.20 75.83 154.15 75.94"
/>
<path stroke="#91735d" vector-effect="non-scaling-stroke" d="
  M 157.78 76.96
  C 157.03 75.30 156.04 74.27 154.24 75.72"
/>
<path stroke="#8e7b6d" vector-effect="non-scaling-stroke" d="
  M 156.52 79.88
  Q 157.92 78.92 156.77 76.60"
/>
<path stroke="#d5c3b9" vector-effect="non-scaling-stroke" d="
  M 153.10 141.53
  Q 153.91 140.23 155.42 140.68
  Q 155.83 140.80 156.04 141.17
  C 157.29 143.46 159.19 145.37 161.61 144.58
  Q 164.39 143.68 165.17 140.83
  Q 165.31 140.34 165.72 140.04
  Q 169.92 136.91 175.25 137.70
  C 178.31 138.15 179.65 132.99 180.17 130.92
  A 1.20 1.20 0.0 0 0 179.17 129.43
  C 177.81 129.25 176.96 128.50 175.56 128.42
  Q 170.66 128.14 165.75 127.87
  C 163.28 127.73 161.33 128.67 159.40 128.58
  Q 156.53 128.46 153.79 127.46
  Q 153.31 127.28 152.83 127.46
  Q 148.35 129.14 145.51 128.14
  Q 138.34 125.61 131.12 125.60
  A 2.01 2.00 80.5 0 0 129.23 128.26
  Q 129.66 129.53 129.65 130.87
  A 0.71 0.70 -70.2 0 0 129.90 131.41
  L 130.36 131.79
  Q 130.68 132.05 130.80 132.45
  C 132.24 137.17 138.93 138.53 143.32 138.83
  Q 145.02 138.95 146.10 139.35
  C 148.67 140.30 149.57 142.41 152.20 143.18
  Q 152.86 143.37 152.87 142.68
  L 152.87 142.32
  Q 152.87 141.90 153.10 141.53"
/>
</g>
<path fill="#e1d0c8" d="
  M 116.76 8.27
  Q 120.66 11.52 125.75 12.65
  Q 129.24 13.42 132.51 14.72
  Q 138.63 17.14 139.09 17.28
  C 147.00 19.65 156.23 20.29 164.26 17.87
  C 166.60 17.16 168.26 16.93 170.64 15.71
  C 172.49 14.75 174.39 14.53 176.24 13.47
  Q 176.96 13.05 177.93 12.91
  C 180.30 12.55 182.41 11.27 184.42 10.74
  Q 191.92 8.76 199.50 6.20
  Q 206.28 5.62 213.74 7.28
  Q 213.70 7.52 212.93 7.98
  C 198.09 7.16 183.52 14.71 171.83 23.55
  Q 166.32 27.72 162.84 35.43
  C 160.55 41.17 157.45 48.66 158.70 54.32
  Q 158.75 54.51 158.86 54.63
  Q 158.97 54.73 159.08 54.80
  A 0.36 0.36 0.0 0 0 159.61 54.53
  Q 160.65 47.47 163.51 40.93
  Q 163.73 40.41 164.23 40.15
  C 165.69 39.36 166.69 37.85 167.69 37.12
  C 175.49 31.44 185.34 32.24 192.81 38.18
  Q 197.63 42.02 198.82 48.49
  Q 201.78 54.61 201.88 59.51
  Q 201.91 61.37 202.68 62.19
  Q 203.02 62.55 203.18 63.01
  L 203.84 64.90
  A 0.80 0.79 60.6 0 1 203.60 65.77
  C 202.87 66.38 202.35 66.68 201.86 67.53
  C 199.27 72.00 195.53 73.45 191.90 76.71
  Q 191.54 77.03 191.06 77.12
  Q 190.71 77.18 190.55 77.30
  Q 188.29 78.94 186.38 80.89
  Q 186.03 81.25 185.54 81.40
  Q 185.10 81.54 184.76 81.84
  C 181.08 85.06 173.62 86.32 168.07 87.18
  Q 167.59 87.26 167.15 87.06
  Q 166.80 86.90 166.41 86.99
  C 164.17 87.52 161.81 86.75 160.70 85.09
  Q 165.12 81.89 163.57 77.71
  C 158.84 64.96 145.91 65.70 142.21 78.20
  C 140.88 82.69 145.86 85.62 149.03 87.05
  Q 148.91 87.93 148.45 88.46
  Q 148.05 88.92 147.16 88.91
  Q 142.98 88.83 140.76 88.08
  Q 137.34 86.92 135.54 86.88
  Q 134.47 86.67 136.07 86.58
  A 0.21 0.20 -23.9 0 0 136.21 86.23
  Q 136.03 86.05 135.70 86.11
  Q 136.38 86.19 137.03 86.00
  Q 137.75 85.80 137.01 85.74
  L 134.98 85.59
  Q 134.29 85.53 134.85 85.13
  Q 135.48 84.68 136.37 84.92
  Q 136.38 84.92 136.38 84.89
  Q 136.39 84.87 136.37 84.89
  Q 135.34 84.74 134.27 84.51
  A 0.13 0.13 0.0 0 1 134.24 84.26
  Q 134.39 84.19 134.53 84.12
  Q 134.82 83.97 134.50 83.91
  Q 127.42 82.68 124.49 81.90
  Q 121.74 81.16 117.68 79.44
  C 115.94 78.70 113.61 78.28 111.69 77.16
  Q 111.62 77.12 111.56 77.18
  Q 111.46 77.29 111.36 77.39
  Q 111.22 77.52 111.04 77.44
  C 108.75 76.29 106.79 74.84 104.40 73.53
  Q 100.01 71.11 97.38 66.75
  Q 97.11 66.30 96.63 66.05
  Q 95.85 65.65 95.86 64.84
  Q 95.87 64.49 95.66 64.23
  C 94.89 63.24 95.64 61.94 95.07 60.55
  Q 94.89 60.09 94.96 59.61
  Q 95.21 58.04 96.09 56.86
  Q 96.38 56.46 96.43 55.96
  Q 96.66 53.67 98.17 52.00
  Q 98.53 51.60 98.65 51.08
  C 100.76 41.44 106.99 35.88 115.54 32.85
  L 119.24 31.97
  Q 124.10 31.81 128.72 33.47
  C 129.77 33.85 130.43 34.80 131.77 34.92
  Q 132.25 34.96 132.67 35.20
  C 135.50 36.83 138.98 39.25 140.63 42.14
  C 141.82 44.22 142.86 45.46 143.41 47.89
  Q 143.90 50.04 144.43 52.18
  Q 144.59 52.80 144.54 53.84
  Q 144.50 54.92 144.97 55.57
  Q 145.86 56.80 146.19 55.32
  Q 147.26 50.65 146.57 46.29
  C 144.86 36.16 141.44 28.33 132.77 22.48
  Q 114.51 10.15 93.01 5.18
  Q 86.88 3.76 66.86 2.46
  C 83.32 0.34 101.79 2.80 116.76 8.27
  Z
  M 140.4768 49.6922
  A 20.02 19.59 -14.9 0 0 116.0928 35.9087
  A 20.02 19.59 -14.9 0 0 101.7832 59.9878
  A 20.02 19.59 -14.9 0 0 126.1672 73.7713
  A 20.02 19.59 -14.9 0 0 140.4768 49.6922
  Z
  M 187.5913 73.2372
  A 19.25 17.46 68.8 0 0 196.9084 48.9760
  A 19.25 17.46 68.8 0 0 173.6687 37.3428
  A 19.25 17.46 68.8 0 0 164.3516 61.6040
  A 19.25 17.46 68.8 0 0 187.5913 73.2372
  Z"
/>
<path fill="#44291b" d="
  M 66.86 2.46
  Q 86.88 3.76 93.01 5.18
  Q 114.51 10.15 132.77 22.48
  C 141.44 28.33 144.86 36.16 146.57 46.29
  Q 146.65 48.17 146.34 48.94
  Q 145.34 51.39 144.81 48.76
  Q 143.17 40.53 138.30 33.72
  A 1.28 1.27 -9.9 0 0 137.61 33.24
  Q 137.16 33.12 136.90 32.79
  C 136.05 31.68 135.49 31.20 134.17 30.72
  Q 133.93 30.63 133.89 30.38
  Q 133.86 30.20 133.69 30.09
  C 132.08 29.11 130.64 29.55 129.13 29.07
  Q 122.00 26.78 115.49 25.94
  C 113.63 25.70 112.09 24.86 110.61 24.63
  C 101.13 23.15 94.21 27.63 87.76 33.89
  C 86.69 34.93 86.12 36.20 85.18 37.31
  C 83.89 38.84 83.37 40.75 82.21 42.22
  Q 81.32 43.35 80.44 44.49
  Q 80.38 44.57 80.37 44.48
  Q 80.34 44.32 80.51 44.24
  Q 80.61 44.20 80.62 44.10
  Q 80.69 43.19 81.50 41.75
  Q 83.35 38.48 85.33 35.28
  C 86.05 34.12 86.40 32.13 87.88 31.11
  Q 91.28 28.74 96.55 26.11
  Q 97.00 25.89 97.50 25.89
  Q 98.06 25.89 98.53 25.64
  C 102.13 23.72 105.37 24.12 108.91 24.12
  Q 110.94 24.13 113.96 24.93
  Q 117.28 25.83 120.76 25.68
  Q 122.86 27.12 124.54 27.01
  Q 125.38 26.96 124.67 26.51
  Q 123.08 25.50 120.76 25.68
  Q 117.05 24.98 113.40 24.08
  Q 108.97 22.98 105.99 23.18
  Q 101.78 23.46 97.71 24.71
  C 95.87 25.27 94.04 26.38 92.06 27.10
  Q 91.95 27.14 91.90 27.03
  L 91.90 27.02
  Q 91.86 26.91 91.97 26.86
  C 93.90 26.07 95.77 24.86 97.59 24.29
  Q 103.52 22.44 109.74 23.15
  Q 115.93 23.84 122.03 25.06
  C 123.77 25.40 125.43 26.47 127.52 26.64
  A 1.70 1.68 65.8 0 1 128.42 26.99
  Q 130.20 28.39 132.49 28.78
  Q 132.83 28.84 133.02 29.11
  Q 133.46 29.72 134.16 29.86
  Q 134.80 29.99 134.32 29.55
  C 133.27 28.57 132.55 27.59 131.26 26.92
  C 127.36 24.91 123.97 22.39 119.84 21.10
  C 112.03 18.64 101.10 15.90 93.09 20.21
  Q 92.22 20.67 88.86 23.85
  Q 85.95 26.60 82.31 27.45
  Q 82.89 26.02 80.98 25.70
  Q 75.60 24.80 68.73 25.03
  A 0.42 0.42 0.0 0 1 68.38 24.37
  C 70.77 21.09 76.95 18.44 80.44 16.56
  A 1.10 1.09 49.4 0 0 80.58 14.72
  Q 72.37 8.50 63.10 4.14
  Q 61.29 3.29 63.19 2.68
  Q 64.62 2.21 66.86 2.46
  Z"
/>
<path fill="#9c7456" d="
  M 199.50 6.20
  Q 191.92 8.76 184.42 10.74
  C 182.41 11.27 180.30 12.55 177.93 12.91
  Q 176.96 13.05 176.24 13.47
  C 174.39 14.53 172.49 14.75 170.64 15.71
  C 168.26 16.93 166.60 17.16 164.26 17.87
  C 156.23 20.29 147.00 19.65 139.09 17.28
  Q 138.63 17.14 132.51 14.72
  Q 129.24 13.42 125.75 12.65
  Q 120.66 11.52 116.76 8.27
  C 119.66 9.49 121.60 10.50 124.86 10.33
  C 140.64 9.48 158.58 9.36 174.00 13.21
  Q 174.80 13.42 176.11 12.59
  Q 186.51 6.05 199.50 6.20
  Z"
/>
<path fill="#9c7456" d="
  M 213.74 7.28
  Q 215.09 7.30 216.25 7.76
  Q 217.29 8.17 216.25 8.58
  L 215.58 8.84
  Q 214.46 8.02 212.93 7.98
  Q 213.70 7.52 213.74 7.28
  Z"
/>
<path fill="#44291b" d="
  M 212.93 7.98
  Q 214.46 8.02 215.58 8.84
  Q 205.62 12.72 196.71 17.91
  Q 195.00 18.91 196.26 20.43
  L 201.34 26.56
  A 0.83 0.82 44.1 0 1 201.36 27.59
  L 199.56 29.89
  Q 198.94 28.15 197.83 26.97
  A 1.12 1.11 67.7 0 0 197.03 26.63
  Q 196.18 26.62 195.55 26.07
  Q 195.16 25.73 194.68 25.57
  Q 189.22 23.68 186.00 24.75
  C 182.99 25.75 179.03 25.55 175.75 27.13
  Q 174.52 27.72 172.00 28.43
  C 168.46 29.42 165.55 33.48 163.61 36.57
  A 0.40 0.40 0.0 0 1 162.87 36.37
  L 162.84 35.43
  Q 166.32 27.72 171.83 23.55
  C 183.52 14.71 198.09 7.16 212.93 7.98
  Z"
/>
<path fill="#694f3f" d="
  M 120.76 25.68
  Q 117.28 25.83 113.96 24.93
  Q 110.94 24.13 108.91 24.12
  C 105.37 24.12 102.13 23.72 98.53 25.64
  Q 98.06 25.89 97.50 25.89
  Q 97.00 25.89 96.55 26.11
  Q 91.28 28.74 87.88 31.11
  C 86.40 32.13 86.05 34.12 85.33 35.28
  Q 83.35 38.48 81.50 41.75
  Q 80.69 43.19 80.62 44.10
  Q 80.61 44.20 80.51 44.24
  Q 80.34 44.32 80.37 44.48
  Q 80.38 44.57 80.44 44.49
  Q 81.32 43.35 82.21 42.22
  C 83.37 40.75 83.89 38.84 85.18 37.31
  C 86.12 36.20 86.69 34.93 87.76 33.89
  C 94.21 27.63 101.13 23.15 110.61 24.63
  C 112.09 24.86 113.63 25.70 115.49 25.94
  Q 122.00 26.78 129.13 29.07
  C 130.64 29.55 132.08 29.11 133.69 30.09
  Q 133.86 30.20 133.89 30.38
  Q 133.93 30.63 134.17 30.72
  C 135.49 31.20 136.05 31.68 136.90 32.79
  Q 137.16 33.12 137.61 33.24
  A 1.28 1.27 -9.9 0 1 138.30 33.72
  Q 143.17 40.53 144.81 48.76
  Q 145.34 51.39 146.34 48.94
  Q 146.65 48.17 146.57 46.29
  Q 147.26 50.65 146.19 55.32
  Q 145.86 56.80 144.97 55.57
  Q 144.50 54.92 144.54 53.84
  Q 144.59 52.80 144.43 52.18
  Q 143.90 50.04 143.41 47.89
  C 142.86 45.46 141.82 44.22 140.63 42.14
  C 138.98 39.25 135.50 36.83 132.67 35.20
  Q 132.25 34.96 131.77 34.92
  C 130.43 34.80 129.77 33.85 128.72 33.47
  Q 124.10 31.81 119.24 31.97
  Q 115.40 31.71 113.12 32.60
  C 111.45 33.25 109.64 33.60 108.38 34.24
  Q 106.13 35.39 104.00 36.82
  Q 103.95 36.86 103.97 36.80
  Q 103.98 36.72 104.04 36.56
  Q 104.14 36.28 103.91 36.46
  Q 102.27 37.76 100.38 37.73
  Q 101.55 35.18 105.24 34.80
  Q 105.75 34.74 106.11 34.40
  Q 106.91 33.63 108.00 33.48
  Q 108.51 33.41 108.85 33.02
  C 110.09 31.59 112.84 31.23 114.63 31.06
  Q 114.95 31.03 115.16 30.79
  Q 115.33 30.61 115.56 30.64
  C 119.46 31.16 123.75 30.55 127.87 31.03
  Q 127.97 31.05 128.02 30.96
  Q 128.08 30.84 128.14 30.72
  A 0.19 0.19 0.0 0 0 127.97 30.45
  Q 126.70 30.48 125.66 29.80
  Q 125.26 29.55 124.79 29.52
  Q 116.07 28.91 113.39 28.32
  Q 112.46 28.12 110.12 26.49
  Q 109.73 26.22 109.25 26.20
  Q 102.47 25.96 100.77 26.70
  C 95.94 28.81 90.29 32.50 87.75 37.30
  Q 87.54 37.71 87.73 38.12
  Q 87.95 38.57 87.42 38.99
  C 87.09 39.26 86.81 39.81 86.67 40.18
  Q 86.42 40.88 87.02 40.44
  Q 88.29 39.51 89.02 38.14
  Q 89.04 38.09 89.11 38.12
  Q 89.24 38.18 89.19 38.26
  L 84.72 45.75
  Q 84.42 46.41 83.11 48.13
  C 82.12 49.45 80.79 52.09 80.24 54.35
  C 79.35 58.02 78.62 61.02 78.82 66.13
  Q 77.82 65.01 78.27 67.34
  Q 78.35 67.75 78.55 67.38
  Q 78.73 67.04 78.61 66.63
  Q 78.61 66.63 78.62 66.63
  Q 78.62 66.63 78.62 66.62
  A 0.01 0.00 -38.0 0 1 78.63 66.62
  L 79.33 72.20
  Q 78.41 71.01 77.67 70.60
  Q 77.06 70.27 76.98 70.95
  Q 76.75 72.73 77.09 75.50
  Q 77.96 82.52 74.49 89.06
  C 72.76 70.30 69.45 43.26 82.31 27.45
  Q 85.95 26.60 88.86 23.85
  Q 92.22 20.67 93.09 20.21
  C 101.10 15.90 112.03 18.64 119.84 21.10
  C 123.97 22.39 127.36 24.91 131.26 26.92
  C 132.55 27.59 133.27 28.57 134.32 29.55
  Q 134.80 29.99 134.16 29.86
  Q 133.46 29.72 133.02 29.11
  Q 132.83 28.84 132.49 28.78
  Q 130.20 28.39 128.42 26.99
  A 1.70 1.68 65.8 0 0 127.52 26.64
  C 125.43 26.47 123.77 25.40 122.03 25.06
  Q 115.93 23.84 109.74 23.15
  Q 103.52 22.44 97.59 24.29
  C 95.77 24.86 93.90 26.07 91.97 26.86
  Q 91.86 26.91 91.90 27.02
  L 91.90 27.03
  Q 91.95 27.14 92.06 27.10
  C 94.04 26.38 95.87 25.27 97.71 24.71
  Q 101.78 23.46 105.99 23.18
  Q 108.97 22.98 113.40 24.08
  Q 117.05 24.98 120.76 25.68
  Z"
/>
<path fill="#9c7456" d="
  M 199.56 29.89
  C 206.68 39.90 209.94 53.50 211.06 65.40
  C 209.71 66.69 210.69 67.95 210.66 69.16
  Q 210.59 71.76 209.34 73.60
  Q 209.82 69.63 209.37 66.76
  Q 209.28 66.19 208.68 65.74
  Q 208.45 65.56 208.24 65.76
  L 207.88 66.12
  A 0.25 0.25 0.0 0 1 207.46 66.02
  L 206.23 62.22
  Q 206.09 61.80 205.78 61.49
  Q 204.03 59.71 202.96 57.45
  C 202.50 56.48 202.66 55.32 201.85 54.32
  Q 201.54 53.93 201.47 53.45
  Q 201.06 50.52 198.82 48.49
  Q 197.63 42.02 192.81 38.18
  C 185.34 32.24 175.49 31.44 167.69 37.12
  C 166.69 37.85 165.69 39.36 164.23 40.15
  Q 163.73 40.41 163.51 40.93
  Q 160.65 47.47 159.61 54.53
  A 0.36 0.36 0.0 0 1 159.08 54.80
  Q 158.97 54.73 158.86 54.63
  Q 158.75 54.51 158.70 54.32
  C 157.45 48.66 160.55 41.17 162.84 35.43
  L 162.87 36.37
  A 0.40 0.40 0.0 0 0 163.61 36.57
  C 165.55 33.48 168.46 29.42 172.00 28.43
  Q 174.52 27.72 175.75 27.13
  C 179.03 25.55 182.99 25.75 186.00 24.75
  Q 189.22 23.68 194.68 25.57
  Q 195.16 25.73 195.55 26.07
  Q 196.18 26.62 197.03 26.63
  A 1.12 1.11 67.7 0 1 197.83 26.97
  Q 198.94 28.15 199.56 29.89
  Z"
/>
<path fill="#694f3f" d="
  M 120.76 25.68
  Q 123.08 25.50 124.67 26.51
  Q 125.38 26.96 124.54 27.01
  Q 122.86 27.12 120.76 25.68
  Z"
/>
<path fill="#9c7456" d="
  M 100.38 37.73
  Q 98.50 38.28 97.97 36.28
  Q 97.84 35.80 97.37 35.63
  Q 95.58 34.98 93.77 36.17
  Q 90.85 38.09 88.92 40.55
  Q 88.88 40.60 87.54 42.81
  Q 86.53 44.48 84.72 45.75
  L 89.19 38.26
  Q 89.24 38.18 89.11 38.12
  Q 89.04 38.09 89.02 38.14
  Q 88.29 39.51 87.02 40.44
  Q 86.42 40.88 86.67 40.18
  C 86.81 39.81 87.09 39.26 87.42 38.99
  Q 87.95 38.57 87.73 38.12
  Q 87.54 37.71 87.75 37.30
  C 90.29 32.50 95.94 28.81 100.77 26.70
  Q 102.47 25.96 109.25 26.20
  Q 109.73 26.22 110.12 26.49
  Q 112.46 28.12 113.39 28.32
  Q 116.07 28.91 124.79 29.52
  Q 125.26 29.55 125.66 29.80
  Q 126.70 30.48 127.97 30.45
  A 0.19 0.19 0.0 0 1 128.14 30.72
  Q 128.08 30.84 128.02 30.96
  Q 127.97 31.05 127.87 31.03
  C 123.75 30.55 119.46 31.16 115.56 30.64
  Q 115.33 30.61 115.16 30.79
  Q 114.95 31.03 114.63 31.06
  C 112.84 31.23 110.09 31.59 108.85 33.02
  Q 108.51 33.41 108.00 33.48
  Q 106.91 33.63 106.11 34.40
  Q 105.75 34.74 105.24 34.80
  Q 101.55 35.18 100.38 37.73
  Z"
/>
<path fill="#e2bd8f" d="
  M 119.24 31.97
  L 115.54 32.85
  Q 114.39 32.72 113.30 32.95
  Q 112.82 33.05 112.46 33.38
  Q 112.07 33.73 111.13 34.11
  Q 104.75 36.75 98.76 42.74
  Q 98.32 43.18 98.64 43.64
  Q 98.84 43.92 98.60 44.17
  L 96.55 46.37
  Q 96.39 46.54 96.39 46.76
  Q 96.39 46.90 96.39 47.03
  Q 96.39 47.11 96.35 47.17
  L 92.26 52.77
  Q 92.00 53.14 92.38 53.39
  L 92.82 53.67
  Q 93.29 53.96 93.01 54.44
  Q 92.13 55.93 92.08 57.68
  Q 92.06 58.18 91.57 58.28
  Q 90.47 58.51 90.35 59.58
  Q 90.28 60.25 90.86 61.29
  Q 92.02 63.40 92.83 65.66
  C 93.19 66.65 94.22 67.51 94.46 68.27
  Q 95.22 70.60 96.24 71.65
  C 98.52 74.03 100.63 75.90 103.77 77.36
  C 107.55 79.11 110.13 81.27 114.00 81.72
  Q 114.28 81.75 114.46 81.89
  Q 114.68 82.06 114.87 82.28
  Q 115.18 82.66 115.67 82.75
  Q 121.77 83.82 127.75 85.37
  Q 128.03 85.45 128.11 85.65
  Q 128.20 85.91 128.48 85.95
  L 135.54 86.88
  Q 137.34 86.92 140.76 88.08
  Q 142.98 88.83 147.16 88.91
  Q 148.05 88.92 148.45 88.46
  Q 148.91 87.93 149.03 87.05
  L 151.68 87.75
  Q 152.06 88.65 153.00 88.62
  Q 153.79 88.60 155.57 87.79
  Q 158.67 86.85 160.70 85.09
  C 161.81 86.75 164.17 87.52 166.41 86.99
  Q 166.80 86.90 167.15 87.06
  Q 167.59 87.26 168.07 87.18
  C 173.62 86.32 181.08 85.06 184.76 81.84
  Q 185.10 81.54 185.54 81.40
  Q 186.03 81.25 186.38 80.89
  Q 188.29 78.94 190.55 77.30
  Q 190.71 77.18 191.06 77.12
  Q 191.54 77.03 191.90 76.71
  C 195.53 73.45 199.27 72.00 201.86 67.53
  C 202.35 66.68 202.87 66.38 203.60 65.77
  A 0.80 0.79 60.6 0 0 203.84 64.90
  L 203.18 63.01
  Q 203.02 62.55 202.68 62.19
  Q 201.91 61.37 201.88 59.51
  Q 201.78 54.61 198.82 48.49
  Q 201.06 50.52 201.47 53.45
  Q 201.54 53.93 201.85 54.32
  C 202.66 55.32 202.50 56.48 202.96 57.45
  Q 204.03 59.71 205.78 61.49
  Q 206.09 61.80 206.23 62.22
  L 207.46 66.02
  A 0.25 0.25 0.0 0 0 207.88 66.12
  L 208.24 65.76
  Q 208.45 65.56 208.68 65.74
  Q 209.28 66.19 209.37 66.76
  Q 209.82 69.63 209.34 73.60
  C 205.56 83.78 191.38 89.21 181.20 92.05
  Q 172.73 94.42 164.20 96.57
  C 151.89 99.67 138.25 94.80 125.76 92.37
  Q 109.59 89.22 94.74 82.20
  Q 84.56 76.87 80.89 66.02
  Q 80.83 65.85 80.81 66.02
  Q 80.75 66.40 80.65 66.37
  A 1.51 1.08 -84.2 0 1 79.87 65.00
  L 79.87 61.00
  Q 79.87 60.81 79.63 60.81
  L 79.62 60.81
  Q 79.45 60.81 79.44 60.98
  Q 79.32 63.05 79.39 65.13
  Q 79.40 65.13 79.38 65.13
  Q 79.37 65.13 79.37 65.13
  L 79.37 61.25
  Q 79.37 61.05 79.14 61.06
  L 79.14 61.06
  Q 78.98 61.06 78.98 61.23
  L 78.82 66.13
  C 78.62 61.02 79.35 58.02 80.24 54.35
  C 80.79 52.09 82.12 49.45 83.11 48.13
  Q 84.42 46.41 84.72 45.75
  Q 86.53 44.48 87.54 42.81
  Q 88.88 40.60 88.92 40.55
  Q 90.85 38.09 93.77 36.17
  Q 95.58 34.98 97.37 35.63
  Q 97.84 35.80 97.97 36.28
  Q 98.50 38.28 100.38 37.73
  Q 102.27 37.76 103.91 36.46
  Q 104.14 36.28 104.04 36.56
  Q 103.98 36.72 103.97 36.80
  Q 103.95 36.86 104.00 36.82
  Q 106.13 35.39 108.38 34.24
  C 109.64 33.60 111.45 33.25 113.12 32.60
  Q 115.40 31.71 119.24 31.97
  Z"
/>
<path fill="#c9b5aa" d="
  M 115.54 32.85
  C 106.99 35.88 100.76 41.44 98.65 51.08
  Q 98.53 51.60 98.17 52.00
  Q 96.66 53.67 96.43 55.96
  Q 96.38 56.46 96.09 56.86
  Q 95.21 58.04 94.96 59.61
  Q 94.89 60.09 95.07 60.55
  C 95.64 61.94 94.89 63.24 95.66 64.23
  Q 95.87 64.49 95.86 64.84
  Q 95.85 65.65 96.63 66.05
  Q 97.11 66.30 97.38 66.75
  Q 100.01 71.11 104.40 73.53
  C 106.79 74.84 108.75 76.29 111.04 77.44
  Q 111.22 77.52 111.36 77.39
  Q 111.46 77.29 111.56 77.18
  Q 111.62 77.12 111.69 77.16
  C 113.61 78.28 115.94 78.70 117.68 79.44
  Q 121.74 81.16 124.49 81.90
  Q 127.42 82.68 134.50 83.91
  Q 134.82 83.97 134.53 84.12
  Q 134.39 84.19 134.24 84.26
  A 0.13 0.13 0.0 0 0 134.27 84.51
  Q 135.34 84.74 136.37 84.89
  Q 136.39 84.87 136.38 84.89
  Q 136.38 84.92 136.37 84.92
  Q 135.48 84.68 134.85 85.13
  Q 134.29 85.53 134.98 85.59
  L 137.01 85.74
  Q 137.75 85.80 137.03 86.00
  Q 136.38 86.19 135.70 86.11
  Q 136.03 86.05 136.21 86.23
  A 0.21 0.20 -23.9 0 1 136.07 86.58
  Q 134.47 86.67 135.54 86.88
  L 128.48 85.95
  Q 128.20 85.91 128.11 85.65
  Q 128.03 85.45 127.75 85.37
  Q 121.77 83.82 115.67 82.75
  Q 115.18 82.66 114.87 82.28
  Q 114.68 82.06 114.46 81.89
  Q 114.28 81.75 114.00 81.72
  C 110.13 81.27 107.55 79.11 103.77 77.36
  C 100.63 75.90 98.52 74.03 96.24 71.65
  Q 95.22 70.60 94.46 68.27
  C 94.22 67.51 93.19 66.65 92.83 65.66
  Q 92.02 63.40 90.86 61.29
  Q 90.28 60.25 90.35 59.58
  Q 90.47 58.51 91.57 58.28
  Q 92.06 58.18 92.08 57.68
  Q 92.13 55.93 93.01 54.44
  Q 93.29 53.96 92.82 53.67
  L 92.38 53.39
  Q 92.00 53.14 92.26 52.77
  L 96.35 47.17
  Q 96.39 47.11 96.39 47.03
  Q 96.39 46.90 96.39 46.76
  Q 96.39 46.54 96.55 46.37
  L 98.60 44.17
  Q 98.84 43.92 98.64 43.64
  Q 98.32 43.18 98.76 42.74
  Q 104.75 36.75 111.13 34.11
  Q 112.07 33.73 112.46 33.38
  Q 112.82 33.05 113.30 32.95
  Q 114.39 32.72 115.54 32.85
  Z"
/>
<path fill="#141414" d="
  M 140.4768 49.6922
  A 20.02 19.59 -14.9 0 1 126.1672 73.7713
  A 20.02 19.59 -14.9 0 1 101.7832 59.9878
  A 20.02 19.59 -14.9 0 1 116.0928 35.9087
  A 20.02 19.59 -14.9 0 1 140.4768 49.6922
  Z
  M 139.59 54.81
  A 18.27 18.27 0.0 0 0 121.32 36.54
  A 18.27 18.27 0.0 0 0 103.05 54.81
  A 18.27 18.27 0.0 0 0 121.32 73.08
  A 18.27 18.27 0.0 0 0 139.59 54.81
  Z"
/>
<path fill="#141414" d="
  M 187.5913 73.2372
  A 19.25 17.46 68.8 0 1 164.3516 61.6040
  A 19.25 17.46 68.8 0 1 173.6687 37.3428
  A 19.25 17.46 68.8 0 1 196.9084 48.9760
  A 19.25 17.46 68.8 0 1 187.5913 73.2372
  Z
  M 185.0667 72.3859
  A 17.80 16.13 74.3 0 0 195.7782 50.8852
  A 17.80 16.13 74.3 0 0 175.4333 38.1141
  A 17.80 16.13 74.3 0 0 164.7218 59.6148
  A 17.80 16.13 74.3 0 0 185.0667 72.3859
  Z"
/>
<path fill="#fb9a2e" d="
  M 139.59 54.81
  A 18.27 18.27 0.0 0 1 121.32 73.08
  A 18.27 18.27 0.0 0 1 103.05 54.81
  A 18.27 18.27 0.0 0 1 121.32 36.54
  A 18.27 18.27 0.0 0 1 139.59 54.81
  Z
  M 135.79 54.55
  A 14.33 14.33 0.0 0 0 121.46 40.22
  A 14.33 14.33 0.0 0 0 107.13 54.55
  A 14.33 14.33 0.0 0 0 121.46 68.88
  A 14.33 14.33 0.0 0 0 135.79 54.55
  Z"
/>
<path fill="#fb9a2e" d="
  M 185.0667 72.3859
  A 17.80 16.13 74.3 0 1 164.7218 59.6148
  A 17.80 16.13 74.3 0 1 175.4333 38.1141
  A 17.80 16.13 74.3 0 1 195.7782 50.8852
  A 17.80 16.13 74.3 0 1 185.0667 72.3859
  Z
  M 185.5726 68.1151
  A 13.95 12.74 69.6 0 0 192.6510 50.5992
  A 13.95 12.74 69.6 0 0 175.8474 41.9649
  A 13.95 12.74 69.6 0 0 168.7690 59.4808
  A 13.95 12.74 69.6 0 0 185.5726 68.1151
  Z"
/>
<path fill="#141414" d="
  M 135.79 54.55
  A 14.33 14.33 0.0 0 1 121.46 68.88
  A 14.33 14.33 0.0 0 1 107.13 54.55
  A 14.33 14.33 0.0 0 1 121.46 40.22
  A 14.33 14.33 0.0 0 1 135.79 54.55
  Z
  M 126.5069 44.3600
  A 4.82 4.49 -15.4 0 0 120.6677 41.3112
  A 4.82 4.49 -15.4 0 0 117.2131 46.9200
  A 4.82 4.49 -15.4 0 0 123.0523 49.9688
  A 4.82 4.49 -15.4 0 0 126.5069 44.3600
  Z"
/>
<path fill="#141414" d="
  M 185.5726 68.1151
  A 13.95 12.74 69.6 0 1 168.7690 59.4808
  A 13.95 12.74 69.6 0 1 175.8474 41.9649
  A 13.95 12.74 69.6 0 1 192.6510 50.5992
  A 13.95 12.74 69.6 0 1 185.5726 68.1151
  Z
  M 183.8988 49.8783
  A 4.70 4.03 48.1 0 0 183.7596 43.6886
  A 4.70 4.03 48.1 0 0 177.6212 42.8817
  A 4.70 4.03 48.1 0 0 177.7604 49.0714
  A 4.70 4.03 48.1 0 0 183.8988 49.8783
  Z"
/>
<ellipse fill="#ffffff" cx="0.00" cy="0.00" transform="translate(121.86,45.64) rotate(-15.4)" rx="4.82" ry="4.49"/>
<ellipse fill="#ffffff" cx="0.00" cy="0.00" transform="translate(180.76,46.38) rotate(48.1)" rx="4.70" ry="4.03"/>
<path fill="#968376" d="
  M 94.74 82.20
  L 88.42 80.50
  A 2.02 2.02 0.0 0 0 85.89 82.27
  Q 85.74 83.84 84.49 83.25
  L 83.82 82.30
  L 80.93 76.24
  L 79.33 72.20
  L 78.63 66.62
  A 0.01 0.00 -38.0 0 0 78.62 66.62
  Q 78.62 66.63 78.62 66.63
  Q 78.61 66.63 78.61 66.63
  Q 78.73 67.04 78.55 67.38
  Q 78.35 67.75 78.27 67.34
  Q 77.82 65.01 78.82 66.13
  L 78.98 61.23
  Q 78.98 61.06 79.14 61.06
  L 79.14 61.06
  Q 79.37 61.05 79.37 61.25
  L 79.37 65.13
  Q 79.37 65.13 79.38 65.13
  Q 79.40 65.13 79.39 65.13
  Q 79.32 63.05 79.44 60.98
  Q 79.45 60.81 79.62 60.81
  L 79.63 60.81
  Q 79.87 60.81 79.87 61.00
  L 79.87 65.00
  A 1.51 1.08 -84.2 0 0 80.65 66.37
  Q 80.75 66.40 80.81 66.02
  Q 80.83 65.85 80.89 66.02
  Q 84.56 76.87 94.74 82.20
  Z"
/>
<path fill="#7a6c65" d="
  M 211.06 65.40
  Q 211.93 76.74 207.04 85.81
  Q 202.10 91.46 198.86 98.02
  Q 197.24 101.30 196.46 104.74
  L 195.90 107.41
  Q 195.70 104.85 193.60 105.79
  Q 192.28 106.39 191.46 106.47
  Q 187.08 106.89 184.76 107.42
  C 182.72 107.89 181.04 107.81 179.03 108.23
  C 175.61 108.95 171.86 109.13 168.37 109.19
  Q 168.24 109.19 168.23 109.31
  Q 168.23 109.38 168.24 109.43
  Q 168.26 109.56 168.19 109.57
  Q 157.21 111.09 146.26 109.70
  Q 145.62 109.62 141.30 108.70
  C 139.16 108.25 136.22 108.51 134.36 107.42
  Q 133.42 106.87 132.52 106.67
  C 128.57 105.81 125.19 104.22 121.40 103.00
  C 119.31 102.33 117.47 101.41 115.38 101.03
  Q 110.73 100.17 106.09 99.22
  C 104.54 98.90 103.44 98.01 101.89 97.52
  Q 101.41 97.37 100.95 97.57
  Q 100.41 97.80 99.85 97.93
  Q 99.39 98.04 99.25 98.25
  Q 99.04 98.57 99.27 99.03
  L 97.67 97.98
  Q 90.78 92.89 85.84 85.38
  Q 84.90 84.46 84.49 83.25
  Q 85.74 83.84 85.89 82.27
  A 2.02 2.02 0.0 0 1 88.42 80.50
  L 94.74 82.20
  Q 109.59 89.22 125.76 92.37
  C 138.25 94.80 151.89 99.67 164.20 96.57
  Q 172.73 94.42 181.20 92.05
  C 191.38 89.21 205.56 83.78 209.34 73.60
  Q 210.59 71.76 210.66 69.16
  C 210.69 67.95 209.71 66.69 211.06 65.40
  Z"
/>
<path fill="#553721" d="
  M 160.70 85.09
  Q 158.67 86.85 155.57 87.79
  L 151.68 87.75
  L 149.03 87.05
  C 145.86 85.62 140.88 82.69 142.21 78.20
  C 145.91 65.70 158.84 64.96 163.57 77.71
  Q 165.12 81.89 160.70 85.09
  Z
  M 157.96 83.51
  Q 158.82 83.01 158.95 82.00
  C 159.36 78.82 160.47 73.05 155.95 71.99
  Q 154.07 71.55 152.16 72.58
  Q 151.70 72.83 151.66 73.35
  Q 151.55 74.72 151.60 76.08
  C 151.68 78.18 153.08 79.43 153.68 81.51
  C 154.33 83.79 155.76 84.81 157.96 83.51
  Z"
/>
<path fill="#7e5f46" d="
  M 79.33 72.20
  L 80.93 76.24
  Q 80.01 75.73 79.62 74.54
  A 0.34 0.32 79.8 0 0 79.31 74.31
  L 78.94 74.31
  Q 78.44 74.31 78.41 74.81
  L 77.72 85.86
  Q 77.69 86.28 77.28 86.41
  Q 76.97 86.51 76.74 86.73
  Q 76.51 86.94 76.44 87.37
  Q 76.07 89.52 76.12 91.76
  Q 76.13 92.23 75.87 92.63
  C 75.20 93.68 75.45 94.53 74.77 95.47
  C 73.29 97.51 71.43 98.28 70.08 100.95
  L 64.38 113.27
  Q 64.17 113.71 64.11 114.20
  Q 63.96 115.32 63.36 116.21
  Q 62.15 118.00 61.97 118.50
  C 59.88 124.19 58.63 130.04 56.81 135.79
  C 56.32 137.33 56.21 139.10 55.74 140.75
  C 53.84 147.43 52.66 154.55 51.72 161.43
  C 51.20 165.24 48.75 174.20 50.48 177.77
  Q 51.89 180.70 51.90 184.00
  Q 51.91 185.93 54.63 190.62
  Q 55.58 192.26 56.24 197.69
  Q 56.25 197.81 57.20 202.20
  Q 58.26 207.12 54.96 212.96
  Q 53.13 214.44 50.11 215.20
  A 1.40 1.39 50.4 0 1 49.18 215.11
  C 46.00 213.64 44.93 209.15 44.88 206.00
  C 44.28 168.29 47.41 124.49 72.92 94.92
  Q 74.59 92.99 74.49 89.06
  Q 77.96 82.52 77.09 75.50
  Q 76.75 72.73 76.98 70.95
  Q 77.06 70.27 77.67 70.60
  Q 78.41 71.01 79.33 72.20
  Z"
/>
<path fill="#694f3f" d="
  M 157.96 83.51
  C 155.76 84.81 154.33 83.79 153.68 81.51
  C 153.08 79.43 151.68 78.18 151.60 76.08
  Q 151.55 74.72 151.66 73.35
  Q 151.70 72.83 152.16 72.58
  Q 154.07 71.55 155.95 71.99
  C 160.47 73.05 159.36 78.82 158.95 82.00
  Q 158.82 83.01 157.96 83.51
  Z
  M 154.15 75.94
  Q 153.90 77.49 154.42 78.60
  Q 154.87 79.54 154.87 78.50
  L 154.87 76.74
  Q 154.87 76.29 155.29 76.12
  Q 156.27 75.70 156.77 76.60
  Q 154.60 74.86 155.20 79.34
  Q 155.27 79.85 155.78 79.86
  L 156.52 79.88
  L 155.40 79.98
  Q 154.70 80.04 155.15 80.58
  Q 155.50 80.99 156.06 80.95
  Q 156.49 80.92 156.82 80.52
  Q 158.06 79.05 157.78 76.96
  C 157.78 74.98 156.47 73.86 154.48 74.64
  Q 154.23 74.47 154.19 74.45
  A 0.60 0.59 -77.2 0 0 153.38 74.97
  Q 153.21 77.68 154.23 80.13
  Q 154.32 80.35 154.54 80.26
  L 154.55 80.26
  Q 154.77 80.17 154.67 79.96
  Q 153.76 78.05 154.15 75.94
  Z"
/>
<path fill="#694f3f" d="
  M 80.93 76.24
  L 83.82 82.30
  Q 83.14 82.24 82.71 81.63
  Q 82.66 81.56 82.01 81.39
  Q 81.88 81.36 81.76 81.38
  Q 81.47 81.43 81.41 81.72
  L 79.57 90.59
  Q 79.47 91.08 79.63 91.55
  Q 80.48 93.94 78.28 94.76
  Q 78.13 94.82 78.12 94.75
  Q 78.11 94.61 78.11 94.47
  A 0.20 0.19 63.8 0 0 77.76 94.35
  Q 75.48 97.31 74.46 97.72
  Q 72.44 98.54 70.08 100.95
  C 71.43 98.28 73.29 97.51 74.77 95.47
  C 75.45 94.53 75.20 93.68 75.87 92.63
  Q 76.13 92.23 76.12 91.76
  Q 76.07 89.52 76.44 87.37
  Q 76.51 86.94 76.74 86.73
  Q 76.97 86.51 77.28 86.41
  Q 77.69 86.28 77.72 85.86
  L 78.41 74.81
  Q 78.44 74.31 78.94 74.31
  L 79.31 74.31
  A 0.34 0.32 79.8 0 1 79.62 74.54
  Q 80.01 75.73 80.93 76.24
  Z"
/>
<path fill="#7e5f46" d="
  M 154.48 74.64
  Q 154.81 74.74 154.24 75.72
  Q 154.20 75.83 154.15 75.94
  Q 153.76 78.05 154.67 79.96
  Q 154.77 80.17 154.55 80.26
  L 154.54 80.26
  Q 154.32 80.35 154.23 80.13
  Q 153.21 77.68 153.38 74.97
  A 0.60 0.59 -77.2 0 1 154.19 74.45
  Q 154.23 74.47 154.48 74.64
  Z"
/>
<path fill="#9c7456" d="
  M 154.48 74.64
  C 156.47 73.86 157.78 74.98 157.78 76.96
  C 157.03 75.30 156.04 74.27 154.24 75.72
  Q 154.81 74.74 154.48 74.64
  Z"
/>
<path fill="#867263" d="
  M 157.78 76.96
  Q 158.06 79.05 156.82 80.52
  Q 156.49 80.92 156.06 80.95
  Q 155.50 80.99 155.15 80.58
  Q 154.70 80.04 155.40 79.98
  L 156.52 79.88
  Q 157.92 78.92 156.77 76.60
  Q 156.27 75.70 155.29 76.12
  Q 154.87 76.29 154.87 76.74
  L 154.87 78.50
  Q 154.87 79.54 154.42 78.60
  Q 153.90 77.49 154.15 75.94
  Q 154.20 75.83 154.24 75.72
  C 156.04 74.27 157.03 75.30 157.78 76.96
  Z"
/>
<path fill="#968376" d="
  M 156.77 76.60
  Q 157.92 78.92 156.52 79.88
  L 155.78 79.86
  Q 155.27 79.85 155.20 79.34
  Q 154.60 74.86 156.77 76.60
  Z"
/>
<path fill="#60412a" d="
  M 83.82 82.30
  L 84.49 83.25
  Q 84.90 84.46 85.84 85.38
  Q 83.43 84.98 83.59 87.02
  Q 83.81 89.72 83.66 92.48
  Q 83.63 93.04 84.15 93.24
  L 90.41 95.68
  Q 90.86 95.86 91.34 95.95
  Q 94.09 96.45 96.56 98.31
  C 93.67 98.04 91.58 97.97 89.15 99.81
  Q 86.75 101.63 86.23 102.50
  Q 83.13 107.79 83.35 115.24
  C 83.48 119.39 84.90 123.78 86.15 127.93
  Q 87.04 130.92 88.70 132.35
  C 91.01 134.36 92.84 136.50 94.90 138.75
  A 1.00 0.00 34.0 0 1 95.70 139.29
  Q 96.10 139.55 96.15 140.15
  Q 96.21 140.68 96.63 140.99
  L 108.94 149.89
  A 1.13 1.11 -28.8 0 0 109.68 150.10
  Q 110.74 150.03 111.38 150.86
  A 0.77 0.76 62.5 0 0 112.23 151.13
  Q 113.11 150.86 113.45 151.33
  Q 113.69 151.66 114.09 151.69
  L 119.37 152.06
  C 117.51 163.82 111.90 173.42 104.81 183.29
  Q 101.01 188.56 95.38 191.72
  Q 93.88 192.56 92.51 193.63
  Q 92.21 193.86 91.83 193.90
  C 91.30 193.95 90.65 195.36 89.66 195.66
  Q 89.12 195.82 88.86 196.32
  Q 88.47 197.06 87.64 196.90
  Q 87.12 196.79 86.66 197.03
  Q 84.37 198.19 82.33 199.75
  Q 81.94 200.04 81.48 200.19
  Q 80.21 200.58 78.99 201.10
  C 77.29 201.82 75.69 201.89 73.98 202.28
  A 0.89 0.88 -71.9 0 0 73.59 202.48
  L 71.35 204.35
  Q 71.13 204.53 70.89 204.40
  Q 70.71 204.30 70.50 204.38
  Q 67.85 205.30 64.74 205.76
  Q 60.78 207.39 54.96 212.96
  Q 58.26 207.12 57.20 202.20
  Q 56.25 197.81 56.24 197.69
  Q 55.58 192.26 54.63 190.62
  Q 51.91 185.93 51.90 184.00
  Q 51.89 180.70 50.48 177.77
  C 48.75 174.20 51.20 165.24 51.72 161.43
  C 52.66 154.55 53.84 147.43 55.74 140.75
  C 56.21 139.10 56.32 137.33 56.81 135.79
  C 58.63 130.04 59.88 124.19 61.97 118.50
  Q 62.15 118.00 63.36 116.21
  Q 63.96 115.32 64.11 114.20
  Q 64.17 113.71 64.38 113.27
  L 70.08 100.95
  Q 72.44 98.54 74.46 97.72
  Q 75.48 97.31 77.76 94.35
  A 0.20 0.19 63.8 0 1 78.11 94.47
  Q 78.11 94.61 78.12 94.75
  Q 78.13 94.82 78.28 94.76
  Q 80.48 93.94 79.63 91.55
  Q 79.47 91.08 79.57 90.59
  L 81.41 81.72
  Q 81.47 81.43 81.76 81.38
  Q 81.88 81.36 82.01 81.39
  Q 82.66 81.56 82.71 81.63
  Q 83.14 82.24 83.82 82.30
  Z"
/>
<path fill="#553721" d="
  M 85.84 85.38
  Q 90.78 92.89 97.67 97.98
  Q 97.93 99.17 96.56 98.31
  Q 94.09 96.45 91.34 95.95
  Q 90.86 95.86 90.41 95.68
  L 84.15 93.24
  Q 83.63 93.04 83.66 92.48
  Q 83.81 89.72 83.59 87.02
  Q 83.43 84.98 85.84 85.38
  Z"
/>
<path fill="#553721" d="
  M 207.04 85.81
  C 203.83 92.45 197.38 101.36 198.57 108.84
  Q 199.00 111.53 198.67 113.11
  Q 193.76 121.58 194.66 131.25
  Q 194.96 134.54 196.25 138.99
  Q 196.40 139.53 196.96 139.64
  L 199.57 140.15
  C 198.80 154.54 192.10 165.61 181.72 175.16
  L 182.28 171.97
  L 184.84 167.71
  Q 191.72 154.37 191.50 138.22
  Q 191.78 137.37 191.55 137.47
  Q 191.73 137.57 191.84 137.62
  Q 192.15 137.78 192.16 137.43
  L 192.46 124.54
  L 193.08 118.92
  L 195.24 109.72
  Q 197.22 107.68 196.46 104.74
  Q 197.24 101.30 198.86 98.02
  Q 202.10 91.46 207.04 85.81
  Z"
/>
<path fill="#c9b5aa" d="
  M 151.68 87.75
  L 155.57 87.79
  Q 153.79 88.60 153.00 88.62
  Q 152.06 88.65 151.68 87.75
  Z"
/>
<path fill="#968376" d="
  M 195.90 107.41
  L 195.24 109.72
  L 193.08 118.92
  C 192.13 116.16 189.38 116.12 187.01 116.52
  Q 183.65 117.09 180.24 117.30
  Q 173.47 117.70 166.69 118.05
  C 164.95 118.13 162.95 118.90 161.00 118.91
  Q 154.12 118.93 147.25 119.18
  Q 144.86 119.27 137.48 117.33
  Q 137.39 117.31 137.36 117.23
  Q 137.30 117.11 137.25 117.00
  Q 137.20 116.89 137.09 116.87
  Q 131.28 115.86 125.59 114.31
  Q 125.19 114.20 124.90 113.90
  L 124.63 113.64
  A 0.86 0.85 -21.6 0 0 124.05 113.39
  Q 123.24 113.37 122.74 112.71
  A 1.07 1.01 -8.5 0 0 122.25 112.37
  Q 119.97 111.65 118.00 110.34
  C 116.76 109.52 115.85 109.19 114.58 108.61
  Q 113.78 108.25 113.36 108.51
  Q 112.79 108.86 112.90 109.98
  C 109.08 105.43 105.17 103.07 99.27 99.03
  Q 99.04 98.57 99.25 98.25
  Q 99.39 98.04 99.85 97.93
  Q 100.41 97.80 100.95 97.57
  Q 101.41 97.37 101.89 97.52
  C 103.44 98.01 104.54 98.90 106.09 99.22
  Q 110.73 100.17 115.38 101.03
  C 117.47 101.41 119.31 102.33 121.40 103.00
  C 125.19 104.22 128.57 105.81 132.52 106.67
  Q 133.42 106.87 134.36 107.42
  C 136.22 108.51 139.16 108.25 141.30 108.70
  Q 145.62 109.62 146.26 109.70
  Q 157.21 111.09 168.19 109.57
  Q 168.26 109.56 168.24 109.43
  Q 168.23 109.38 168.23 109.31
  Q 168.24 109.19 168.37 109.19
  C 171.86 109.13 175.61 108.95 179.03 108.23
  C 181.04 107.81 182.72 107.89 184.76 107.42
  Q 187.08 106.89 191.46 106.47
  Q 192.28 106.39 193.60 105.79
  Q 195.70 104.85 195.90 107.41
  Z"
/>
<path fill="#956434" d="
  M 97.67 97.98
  L 99.27 99.03
  C 105.17 103.07 109.08 105.43 112.90 109.98
  Q 117.63 116.93 119.88 124.58
  Q 121.86 131.66 122.13 138.22
  L 121.62 137.12
  Q 121.22 136.26 120.96 137.16
  Q 120.76 137.83 120.83 138.82
  Q 120.65 138.37 120.64 137.89
  Q 120.64 137.87 120.63 137.87
  Q 120.54 137.86 120.66 137.88
  Q 120.68 137.88 120.67 137.90
  L 119.37 152.06
  L 114.09 151.69
  Q 113.69 151.66 113.45 151.33
  Q 113.11 150.86 112.23 151.13
  A 0.77 0.76 62.5 0 1 111.38 150.86
  Q 110.74 150.03 109.68 150.10
  A 1.13 1.11 -28.8 0 1 108.94 149.89
  L 96.63 140.99
  Q 96.21 140.68 96.15 140.15
  Q 96.10 139.55 95.70 139.29
  A 1.00 0.00 34.0 0 0 94.90 138.75
  C 92.84 136.50 91.01 134.36 88.70 132.35
  Q 87.04 130.92 86.15 127.93
  C 84.90 123.78 83.48 119.39 83.35 115.24
  Q 83.13 107.79 86.23 102.50
  Q 86.75 101.63 89.15 99.81
  C 91.58 97.97 93.67 98.04 96.56 98.31
  Q 97.93 99.17 97.67 97.98
  Z"
/>
<path fill="#694f3f" d="
  M 196.46 104.74
  Q 197.22 107.68 195.24 109.72
  L 195.90 107.41
  L 196.46 104.74
  Z"
/>
<path fill="#c9b5aa" d="
  M 193.08 118.92
  L 192.46 124.54
  L 191.55 137.47
  Q 191.78 137.37 191.50 138.22
  Q 191.14 138.73 191.08 139.29
  A 1.48 1.45 70.1 0 1 190.69 140.15
  C 188.78 142.24 187.63 143.94 185.01 145.43
  Q 182.90 146.64 181.03 148.22
  C 177.15 151.49 170.70 152.01 165.80 153.16
  C 163.38 153.73 160.96 153.66 158.48 153.96
  C 151.56 154.80 144.06 153.43 137.38 151.63
  C 133.02 150.46 126.73 147.51 125.73 142.56
  Q 125.36 140.74 124.18 138.00
  Q 123.05 135.38 122.34 130.01
  C 122.08 127.96 120.93 126.32 119.88 124.58
  Q 117.63 116.93 112.90 109.98
  Q 112.79 108.86 113.36 108.51
  Q 113.78 108.25 114.58 108.61
  C 115.85 109.19 116.76 109.52 118.00 110.34
  Q 119.97 111.65 122.25 112.37
  A 1.07 1.01 -8.5 0 1 122.74 112.71
  Q 123.24 113.37 124.05 113.39
  A 0.86 0.85 -21.6 0 1 124.63 113.64
  L 124.90 113.90
  Q 125.19 114.20 125.59 114.31
  Q 131.28 115.86 137.09 116.87
  Q 137.20 116.89 137.25 117.00
  Q 137.30 117.11 137.36 117.23
  Q 137.39 117.31 137.48 117.33
  Q 144.86 119.27 147.25 119.18
  Q 154.12 118.93 161.00 118.91
  C 162.95 118.90 164.95 118.13 166.69 118.05
  Q 173.47 117.70 180.24 117.30
  Q 183.65 117.09 187.01 116.52
  C 189.38 116.12 192.13 116.16 193.08 118.92
  Z
  M 153.10 141.53
  Q 153.91 140.23 155.42 140.68
  Q 155.83 140.80 156.04 141.17
  C 157.29 143.46 159.19 145.37 161.61 144.58
  Q 164.39 143.68 165.17 140.83
  Q 165.31 140.34 165.72 140.04
  Q 169.92 136.91 175.25 137.70
  C 178.31 138.15 179.65 132.99 180.17 130.92
  A 1.20 1.20 0.0 0 0 179.17 129.43
  C 177.81 129.25 176.96 128.50 175.56 128.42
  Q 170.66 128.14 165.75 127.87
  C 163.28 127.73 161.33 128.67 159.40 128.58
  Q 156.53 128.46 153.79 127.46
  Q 153.31 127.28 152.83 127.46
  Q 148.35 129.14 145.51 128.14
  Q 138.34 125.61 131.12 125.60
  A 2.01 2.00 80.5 0 0 129.23 128.26
  Q 129.66 129.53 129.65 130.87
  A 0.71 0.70 -70.2 0 0 129.90 131.41
  L 130.36 131.79
  Q 130.68 132.05 130.80 132.45
  C 132.24 137.17 138.93 138.53 143.32 138.83
  Q 145.02 138.95 146.10 139.35
  C 148.67 140.30 149.57 142.41 152.20 143.18
  Q 152.86 143.37 152.87 142.68
  L 152.87 142.32
  Q 152.87 141.90 153.10 141.53
  Z"
/>
<path fill="#956434" d="
  M 198.67 113.11
  Q 200.65 127.56 199.57 140.15
  L 196.96 139.64
  Q 196.40 139.53 196.25 138.99
  Q 194.96 134.54 194.66 131.25
  Q 193.76 121.58 198.67 113.11
  Z"
/>
<path fill="#694f3f" d="
  M 192.46 124.54
  L 192.16 137.43
  Q 192.15 137.78 191.84 137.62
  Q 191.73 137.57 191.55 137.47
  L 192.46 124.54
  Z"
/>
<path fill="#968376" d="
  M 119.88 124.58
  C 120.93 126.32 122.08 127.96 122.34 130.01
  Q 123.05 135.38 124.18 138.00
  Q 125.36 140.74 125.73 142.56
  C 126.73 147.51 133.02 150.46 137.38 151.63
  C 144.06 153.43 151.56 154.80 158.48 153.96
  C 160.96 153.66 163.38 153.73 165.80 153.16
  C 170.70 152.01 177.15 151.49 181.03 148.22
  Q 182.90 146.64 185.01 145.43
  C 187.63 143.94 188.78 142.24 190.69 140.15
  A 1.48 1.45 70.1 0 0 191.08 139.29
  Q 191.14 138.73 191.50 138.22
  Q 191.72 154.37 184.84 167.71
  C 181.09 170.90 177.17 173.22 173.37 175.98
  Q 171.63 177.24 169.00 177.88
  C 158.23 180.49 150.09 182.60 140.00 180.96
  C 139.13 180.82 138.77 180.21 137.62 180.38
  Q 137.23 180.44 136.88 180.27
  L 132.05 177.97
  Q 131.65 177.78 131.43 177.39
  Q 130.96 176.57 130.07 176.30
  Q 129.59 176.15 129.21 175.82
  C 127.31 174.17 125.33 173.44 124.56 170.76
  C 123.85 168.31 123.48 166.64 123.41 163.70
  Q 123.35 160.79 121.83 158.23
  Q 121.59 157.83 121.60 157.35
  L 121.74 152.38
  Q 121.60 152.13 121.80 151.47
  Q 123.25 145.94 122.25 140.48
  L 122.13 138.22
  Q 121.86 131.66 119.88 124.58
  Z"
/>
<path fill="#e1d0c8" d="
  M 152.87 142.32
  L 152.87 142.68
  Q 152.86 143.37 152.20 143.18
  C 149.57 142.41 148.67 140.30 146.10 139.35
  Q 145.02 138.95 143.32 138.83
  C 138.93 138.53 132.24 137.17 130.80 132.45
  Q 130.68 132.05 130.36 131.79
  L 129.90 131.41
  A 0.71 0.70 -70.2 0 1 129.65 130.87
  Q 129.66 129.53 129.23 128.26
  A 2.01 2.00 80.5 0 1 131.12 125.60
  Q 138.34 125.61 145.51 128.14
  Q 148.35 129.14 152.83 127.46
  Q 153.31 127.28 153.79 127.46
  Q 156.53 128.46 159.40 128.58
  C 161.33 128.67 163.28 127.73 165.75 127.87
  Q 170.66 128.14 175.56 128.42
  C 176.96 128.50 177.81 129.25 179.17 129.43
  A 1.20 1.20 0.0 0 1 180.17 130.92
  C 179.65 132.99 178.31 138.15 175.25 137.70
  Q 169.92 136.91 165.72 140.04
  Q 165.31 140.34 165.17 140.83
  Q 164.39 143.68 161.61 144.58
  C 159.19 145.37 157.29 143.46 156.04 141.17
  Q 155.83 140.80 155.42 140.68
  Q 153.91 140.23 153.10 141.53
  Q 152.87 141.90 152.87 142.32
  Z"
/>
<path fill="#694f3f" d="
  M 122.13 138.22
  L 122.25 140.48
  Q 121.47 140.31 121.62 139.42
  A 0.09 0.09 0.0 0 0 121.48 139.34
  L 121.10 139.62
  A 0.27 0.27 0.0 0 1 120.67 139.43
  Q 120.65 139.10 120.83 138.82
  Q 120.76 137.83 120.96 137.16
  Q 121.22 136.26 121.62 137.12
  L 122.13 138.22
  Z"
/>
<path fill="#553721" d="
  M 120.83 138.82
  Q 120.65 139.10 120.67 139.43
  A 0.27 0.27 0.0 0 0 121.10 139.62
  L 121.48 139.34
  A 0.09 0.09 0.0 0 1 121.62 139.42
  Q 121.47 140.31 122.25 140.48
  L 121.80 151.47
  Q 121.60 152.13 121.74 152.38
  L 120.46 157.19
  C 119.26 160.99 117.85 164.72 117.26 168.72
  Q 116.90 171.17 116.46 173.66
  Q 116.38 174.11 116.01 174.36
  Q 115.45 174.76 115.62 175.42
  Q 115.74 175.92 115.53 176.39
  Q 113.84 180.00 113.92 184.00
  Q 113.97 186.23 114.87 187.11
  Q 118.60 190.78 124.79 192.05
  Q 125.23 192.14 125.46 192.52
  Q 125.79 193.04 127.19 193.38
  A 0.97 0.96 -77.5 0 1 127.90 194.51
  Q 127.76 195.18 128.03 195.74
  Q 128.37 196.43 128.53 196.55
  Q 129.32 197.16 129.93 197.96
  C 131.09 199.46 132.35 200.20 134.00 200.97
  Q 134.33 201.13 133.97 201.13
  L 133.35 201.13
  Q 132.78 201.13 133.06 201.63
  Q 133.19 201.88 133.53 201.98
  Q 139.29 203.71 145.36 201.99
  Q 145.86 201.84 146.39 201.86
  C 148.88 201.96 151.10 200.90 153.67 200.85
  Q 155.56 200.81 156.73 200.34
  Q 158.21 199.74 159.61 199.00
  Q 156.65 209.17 148.49 214.63
  C 146.28 216.12 143.17 217.08 140.57 218.21
  A 1.12 1.09 -5.2 0 0 139.93 218.96
  C 138.61 223.97 138.22 228.83 142.56 232.33
  Q 141.74 234.17 142.34 235.84
  Q 142.49 236.23 142.88 236.40
  Q 144.65 237.16 145.16 238.93
  Q 145.32 239.51 144.80 239.80
  Q 142.71 240.98 142.09 242.74
  Q 140.98 242.88 139.48 243.71
  A 1.10 1.09 -47.7 0 1 138.52 243.76
  C 135.17 242.30 134.06 243.46 130.93 244.31
  C 132.39 240.57 130.76 239.60 128.83 237.11
  Q 128.11 236.18 127.33 235.82
  C 129.98 232.72 131.72 228.29 129.95 224.26
  C 128.92 221.93 126.20 216.50 123.25 216.50
  C 115.77 216.51 107.45 219.18 107.33 228.12
  Q 106.07 225.87 103.26 224.12
  Q 102.72 223.78 101.03 223.64
  Q 100.55 223.59 100.13 223.35
  L 96.37 221.14
  Q 94.65 220.38 89.14 219.15
  Q 83.18 217.81 78.93 211.46
  Q 77.47 209.28 76.41 206.83
  A 0.74 0.72 -10.4 0 0 75.75 206.39
  Q 75.46 206.38 75.21 206.25
  Q 75.37 205.47 75.17 205.32
  A 2.11 2.09 51.9 0 0 73.09 205.06
  Q 69.64 206.51 64.74 205.76
  Q 67.85 205.30 70.50 204.38
  Q 70.71 204.30 70.89 204.40
  Q 71.13 204.53 71.35 204.35
  L 73.59 202.48
  A 0.89 0.88 -71.9 0 1 73.98 202.28
  C 75.69 201.89 77.29 201.82 78.99 201.10
  Q 80.21 200.58 81.48 200.19
  Q 81.94 200.04 82.33 199.75
  Q 84.37 198.19 86.66 197.03
  Q 87.12 196.79 87.64 196.90
  Q 88.47 197.06 88.86 196.32
  Q 89.12 195.82 89.66 195.66
  C 90.65 195.36 91.30 193.95 91.83 193.90
  Q 92.21 193.86 92.51 193.63
  Q 93.88 192.56 95.38 191.72
  Q 101.01 188.56 104.81 183.29
  C 111.90 173.42 117.51 163.82 119.37 152.06
  L 120.67 137.90
  Q 120.68 137.88 120.66 137.88
  Q 120.54 137.86 120.63 137.87
  Q 120.64 137.87 120.64 137.89
  Q 120.65 138.37 120.83 138.82
  Z"
/>
<path fill="#7e5f46" d="
  M 122.25 140.48
  Q 123.25 145.94 121.80 151.47
  L 122.25 140.48
  Z"
/>
<path fill="#867263" d="
  M 121.74 152.38
  L 121.60 157.35
  Q 121.59 157.83 121.83 158.23
  Q 123.35 160.79 123.41 163.70
  C 123.48 166.64 123.85 168.31 124.56 170.76
  C 125.33 173.44 127.31 174.17 129.21 175.82
  Q 129.59 176.15 130.07 176.30
  Q 130.96 176.57 131.43 177.39
  Q 131.65 177.78 132.05 177.97
  L 136.88 180.27
  Q 137.23 180.44 137.62 180.38
  C 138.77 180.21 139.13 180.82 140.00 180.96
  C 150.09 182.60 158.23 180.49 169.00 177.88
  Q 171.63 177.24 173.37 175.98
  C 177.17 173.22 181.09 170.90 184.84 167.71
  L 182.28 171.97
  C 181.11 173.74 180.34 175.44 178.45 176.56
  Q 168.78 182.30 158.50 183.87
  Q 151.53 184.93 148.47 185.47
  Q 147.83 185.59 146.51 185.56
  C 143.65 185.50 141.39 185.66 137.87 184.64
  Q 135.63 183.98 132.05 182.23
  Q 131.96 182.19 127.52 180.45
  C 124.93 179.44 122.37 177.63 121.80 174.69
  C 121.28 172.01 121.58 168.59 121.63 165.81
  Q 121.66 164.32 120.91 161.80
  Q 120.24 159.58 120.46 157.19
  L 121.74 152.38
  Z"
/>
<path fill="#694f3f" d="
  M 120.46 157.19
  Q 120.24 159.58 120.91 161.80
  Q 121.66 164.32 121.63 165.81
  C 121.58 168.59 121.28 172.01 121.80 174.69
  C 122.37 177.63 124.93 179.44 127.52 180.45
  Q 131.96 182.19 132.05 182.23
  Q 135.63 183.98 137.87 184.64
  C 141.39 185.66 143.65 185.50 146.51 185.56
  Q 147.83 185.59 148.47 185.47
  Q 151.53 184.93 158.50 183.87
  Q 168.78 182.30 178.45 176.56
  C 180.34 175.44 181.11 173.74 182.28 171.97
  L 181.72 175.16
  C 178.81 178.14 175.63 181.01 172.92 184.12
  Q 166.26 191.78 159.61 199.00
  Q 158.21 199.74 156.73 200.34
  Q 155.56 200.81 153.67 200.85
  C 151.10 200.90 148.88 201.96 146.39 201.86
  Q 145.86 201.84 145.36 201.99
  Q 139.29 203.71 133.53 201.98
  Q 133.19 201.88 133.06 201.63
  Q 132.78 201.13 133.35 201.13
  L 133.97 201.13
  Q 134.33 201.13 134.00 200.97
  C 132.35 200.20 131.09 199.46 129.93 197.96
  Q 129.32 197.16 128.53 196.55
  Q 128.37 196.43 128.03 195.74
  Q 127.76 195.18 127.90 194.51
  A 0.97 0.96 -77.5 0 0 127.19 193.38
  Q 125.79 193.04 125.46 192.52
  Q 125.23 192.14 124.79 192.05
  Q 118.60 190.78 114.87 187.11
  Q 113.97 186.23 113.92 184.00
  Q 113.84 180.00 115.53 176.39
  Q 115.74 175.92 115.62 175.42
  Q 115.45 174.76 116.01 174.36
  Q 116.38 174.11 116.46 173.66
  Q 116.90 171.17 117.26 168.72
  C 117.85 164.72 119.26 160.99 120.46 157.19
  Z"
/>
<path fill="#867263" d="
  M 75.21 206.25
  Q 75.46 206.38 75.75 206.39
  A 0.74 0.72 -10.4 0 1 76.41 206.83
  Q 77.47 209.28 78.93 211.46
  Q 83.18 217.81 89.14 219.15
  Q 94.65 220.38 96.37 221.14
  L 97.68 223.31
  A 1.35 1.32 32.5 0 1 97.86 224.08
  C 97.75 225.67 98.69 227.05 98.64 228.93
  C 98.61 229.98 97.90 230.79 97.90 231.99
  Q 97.90 232.44 97.72 232.85
  Q 97.00 234.40 96.85 236.11
  A 1.00 0.98 23.9 0 0 97.17 236.92
  Q 98.36 238.02 99.98 237.87
  Q 100.37 237.83 100.70 238.06
  Q 102.61 239.42 104.97 239.36
  Q 105.43 239.34 105.80 239.62
  C 108.41 241.53 110.87 240.14 113.30 240.16
  C 116.07 240.19 120.47 240.57 122.33 238.02
  Q 125.36 238.24 127.33 235.82
  Q 128.11 236.18 128.83 237.11
  C 130.76 239.60 132.39 240.57 130.93 244.31
  C 126.21 246.82 122.82 244.93 118.58 245.01
  Q 115.48 245.06 112.59 245.47
  A 2.17 2.17 0.0 0 0 110.78 248.04
  L 111.73 252.78
  Q 111.83 253.27 111.36 253.09
  Q 110.43 252.74 109.76 251.71
  Q 110.07 250.77 108.69 250.08
  Q 108.27 249.87 108.09 249.43
  Q 107.49 248.02 106.52 246.88
  Q 106.24 246.56 106.13 246.14
  L 105.91 245.29
  Q 105.78 244.80 105.29 244.64
  Q 104.76 244.48 104.48 244.78
  Q 104.12 245.15 104.19 245.67
  Q 104.24 246.14 104.01 246.49
  Q 103.76 246.87 103.69 246.42
  C 103.15 242.65 107.11 243.57 108.97 244.51
  Q 109.39 244.71 109.70 244.37
  Q 110.24 243.77 109.72 243.25
  Q 107.98 241.55 105.47 240.65
  A 1.12 1.12 0.0 0 0 104.10 241.17
  Q 103.51 242.25 102.24 242.14
  Q 101.76 242.09 101.83 241.61
  Q 102.03 240.26 101.63 239.76
  Q 100.60 238.48 100.00 238.57
  A 2.59 2.30 -88.2 0 0 98.02 240.66
  L 96.98 246.66
  C 92.67 246.82 88.28 245.94 84.03 246.62
  C 81.12 247.08 78.08 247.27 75.47 245.77
  Q 75.07 241.98 76.00 238.34
  Q 80.37 237.94 86.99 239.53
  Q 88.58 239.91 90.45 238.89
  Q 98.36 234.56 96.81 226.14
  Q 96.14 225.00 95.99 223.20
  A 2.31 2.30 -89.2 0 0 93.97 221.12
  C 85.17 220.10 79.80 215.31 74.39 207.84
  L 75.21 206.25
  Z"
/>
<path fill="#553721" d="
  M 74.39 207.84
  C 79.80 215.31 85.17 220.10 93.97 221.12
  A 2.31 2.30 -89.2 0 1 95.99 223.20
  Q 96.14 225.00 96.81 226.14
  Q 85.08 227.96 73.76 224.67
  C 72.28 224.24 70.99 223.72 70.38 222.17
  C 67.94 215.98 70.67 212.40 74.39 207.84
  Z"
/>
<path fill="#694f3f" d="
  M 96.37 221.14
  L 100.13 223.35
  Q 100.55 223.59 101.03 223.64
  Q 102.72 223.78 103.26 224.12
  Q 106.07 225.87 107.33 228.12
  C 106.93 236.18 115.77 238.81 122.33 238.02
  C 120.47 240.57 116.07 240.19 113.30 240.16
  C 110.87 240.14 108.41 241.53 105.80 239.62
  Q 105.43 239.34 104.97 239.36
  Q 102.61 239.42 100.70 238.06
  Q 100.37 237.83 99.98 237.87
  Q 98.36 238.02 97.17 236.92
  A 1.00 0.98 23.9 0 1 96.85 236.11
  Q 97.00 234.40 97.72 232.85
  Q 97.90 232.44 97.90 231.99
  C 97.90 230.79 98.61 229.98 98.64 228.93
  C 98.69 227.05 97.75 225.67 97.86 224.08
  A 1.35 1.32 32.5 0 0 97.68 223.31
  L 96.37 221.14
  Z"
/>
<path fill="#968376" d="
  M 142.56 232.33
  Q 150.01 235.86 158.52 236.16
  C 160.51 236.23 162.95 235.57 165.43 235.94
  Q 165.00 238.15 165.79 239.59
  Q 166.35 241.72 169.61 243.59
  Q 166.29 248.29 161.00 247.03
  Q 151.79 244.85 142.09 242.74
  Q 142.71 240.98 144.80 239.80
  Q 145.32 239.51 145.16 238.93
  Q 144.65 237.16 142.88 236.40
  Q 142.49 236.23 142.34 235.84
  Q 141.74 234.17 142.56 232.33
  Z"
/>
<path fill="#867263" d="
  M 179.08 234.34
  L 180.61 237.45
  L 178.90 241.58
  Q 173.11 240.20 166.93 237.13
  Q 166.26 236.80 165.89 237.44
  Q 165.51 238.10 165.79 239.59
  Q 165.00 238.15 165.43 235.94
  C 170.27 235.19 174.23 232.49 179.08 234.34
  Z"
/>
<path fill="#694f3f" d="
  M 179.08 234.34
  C 182.25 233.92 188.91 235.06 188.97 238.97
  Q 188.97 239.58 188.44 239.28
  Q 184.39 237.02 180.61 237.45
  L 179.08 234.34
  Z"
/>
<path fill="#553721" d="
  M 178.90 241.58
  Q 178.75 242.21 177.55 242.68
  Q 176.89 242.94 175.90 242.89
  Q 172.08 242.67 169.61 243.59
  Q 166.35 241.72 165.79 239.59
  Q 165.51 238.10 165.89 237.44
  Q 166.26 236.80 166.93 237.13
  Q 173.11 240.20 178.90 241.58
  Z"
/>
<path fill="#c9b5aa" d="
  M 76.00 238.34
  Q 75.07 241.98 75.47 245.77
  Q 74.03 244.85 73.06 243.36
  Q 72.78 241.17 73.42 239.67
  L 76.00 238.34
  Z"
/>
<path fill="#968376" d="
  M 109.76 251.71
  Q 105.01 254.27 100.99 252.96
  C 98.35 252.10 98.39 248.71 96.98 246.66
  L 98.02 240.66
  A 2.59 2.30 -88.2 0 1 100.00 238.57
  Q 100.60 238.48 101.63 239.76
  Q 102.03 240.26 101.83 241.61
  Q 101.76 242.09 102.24 242.14
  Q 103.51 242.25 104.10 241.17
  A 1.12 1.12 0.0 0 1 105.47 240.65
  Q 107.98 241.55 109.72 243.25
  Q 110.24 243.77 109.70 244.37
  Q 109.39 244.71 108.97 244.51
  C 107.11 243.57 103.15 242.65 103.69 246.42
  Q 103.76 246.87 104.01 246.49
  Q 104.24 246.14 104.19 245.67
  Q 104.12 245.15 104.48 244.78
  Q 104.76 244.48 105.29 244.64
  Q 105.78 244.80 105.91 245.29
  L 106.13 246.14
  Q 106.24 246.56 106.52 246.88
  Q 107.49 248.02 108.09 249.43
  Q 108.27 249.87 108.69 250.08
  Q 110.07 250.77 109.76 251.71
  Z"
/>
<path fill="#694f3f" d="
  M 73.42 239.67
  Q 72.78 241.17 73.06 243.36
  C 69.64 242.24 66.71 243.37 63.48 244.57
  Q 60.87 245.55 62.94 243.68
  Q 67.80 239.29 73.42 239.67
  Z"
/>
</svg>
