<svg xmlns="http://www.w3.org/2000/svg" version="1.1" width="1000" height="343" viewBox="0 0 1000 343"><g transform="matrix(1,0,0,1,-0.6060606060606233,-0.316388665695456)"><svg viewBox="0 0 396 136" data-background-color="#161618" preserveAspectRatio="xMidYMid meet" height="343" width="1000" xmlns="http://www.w3.org/2000/svg" xmlns:xlink="http://www.w3.org/1999/xlink"><g id="tight-bounds" transform="matrix(1,0,0,1,0.2400000000000091,0.12544856715621222)"><svg viewBox="0 0 395.52 135.74910286568758" height="135.74910286568758" width="395.52"><g><svg viewBox="0 0 395.52 135.74910286568758" height="135.74910286568758" width="395.52"><g><svg viewBox="0 0 395.52 135.74910286568758" height="135.74910286568758" width="395.52"><g><svg viewBox="0 0 395.52 135.74910286568758" height="135.74910286568758" width="395.52"><g><rect width="395.52" height="101.93331054739652" fill="none" stroke-width="9.018103199999999" stroke="#ffffff" data-fill-palette-color="none" data-stroke-palette-color="tertiary"></rect><rect width="395.52" height="33.81579231829105" y="101.93331054739652" fill="#ffffff" data-fill-palette-color="tertiary"></rect></g><g><svg viewBox="0 0 395.52 101.93331054739652" height="101.93331054739652" width="395.52"><g transform="matrix(1,0,0,1,23.607599999999998,23.607599999999998)"><svg width="348.3048" viewBox="1.3 -34.75 224.67999999999998 35.3" height="54.71811054739652" data-palette-color="#ffffff"><path d="M15.9-2.75L24.35-34.75 27.5-34.75 18.2 0 10.65 0 1.3-34.75 4.5-34.75 12.95-2.75 15.9-2.75ZM47.5-2.5L47.5-2.5 49-2.65 49.1-0.2Q43.45 0.5 39.55 0.5L39.55 0.5Q34.15 0.45 32-2.7 29.85-5.85 29.85-12.4L29.85-12.4Q29.85-25.5 40.15-25.5L40.15-25.5Q45.1-25.5 47.55-22.68 50-19.85 50-13.65L50-13.65 49.9-11.25 32.9-11.25Q32.9-6.65 34.47-4.42 36.05-2.2 39.87-2.2 43.7-2.2 47.5-2.5ZM32.9-13.75L32.9-13.75 47-13.75Q47-18.7 45.37-20.8 43.75-22.9 40.17-22.9 36.6-22.9 34.75-20.73 32.9-18.55 32.9-13.75ZM59.1-20.7L59.1 0 56.15 0 56.15-25 59.1-25 59.1-23.15Q63.3-25.5 67.25-25.5L67.25-25.5Q72.25-25.5 73.92-22.85 75.6-20.2 75.6-13.15L75.6-13.15 75.6 0 72.6 0 72.6-13Q72.6-18.75 71.5-20.78 70.4-22.8 66.8-22.8L66.8-22.8Q65.05-22.8 63.12-22.28 61.2-21.75 60.15-21.2L60.15-21.2 59.1-20.7ZM95.24-25L95.24-22.35 86.89-22.35 86.89-10Q86.89-5.15 87.59-3.65 88.29-2.15 90.89-2.15L90.89-2.15 95.49-2.5 95.69 0.05Q92.39 0.55 90.64 0.55L90.64 0.55Q86.84 0.55 85.37-1.33 83.89-3.2 83.89-8.5L83.89-8.5 83.89-22.35 80.19-22.35 80.19-25 83.89-25 83.89-32.85 86.89-32.85 86.89-25 95.24-25ZM115.74-4.3L115.74-25 118.69-25 118.69 0 115.74 0 115.74-1.85Q111.89 0.5 108.04 0.5L108.04 0.5Q102.94 0.5 101.32-2.1 99.69-4.7 99.69-11.95L99.69-11.95 99.69-25 102.64-25 102.64-12Q102.64-6.2 103.72-4.2 104.79-2.2 108.39-2.2L108.39-2.2Q110.14-2.2 111.99-2.73 113.84-3.25 114.79-3.8L114.79-3.8 115.74-4.3ZM129.14 0L126.19 0 126.19-25 129.14-25 129.14-21.4Q130.99-22.7 133.66-23.9 136.34-25.1 138.59-25.5L138.59-25.5 138.59-22.5Q136.44-22.05 134.09-21.13 131.74-20.2 130.44-19.5L130.44-19.5 129.14-18.75 129.14 0ZM158.94-4.3L158.94-25 161.89-25 161.89 0 158.94 0 158.94-1.85Q155.09 0.5 151.24 0.5L151.24 0.5Q146.14 0.5 144.51-2.1 142.89-4.7 142.89-11.95L142.89-11.95 142.89-25 145.84-25 145.84-12Q145.84-6.2 146.91-4.2 147.99-2.2 151.59-2.2L151.59-2.2Q153.34-2.2 155.19-2.73 157.04-3.25 157.99-3.8L157.99-3.8 158.94-4.3ZM176.93-22.75L176.93-22.75Q171.03-22.75 171.03-18.5L171.03-18.5Q171.03-16.55 172.33-15.75 173.63-14.95 178.21-14.18 182.78-13.4 184.66-12.05 186.53-10.7 186.53-6.88 186.53-3.05 184.08-1.28 181.63 0.5 176.88 0.5L176.88 0.5Q174.13 0.5 169.78-0.2L169.78-0.2 168.33-0.4 168.53-3.05Q174.13-2.2 177.13-2.2 180.13-2.2 181.81-3.25 183.48-4.3 183.48-6.8 183.48-9.3 182.11-10.13 180.73-10.95 176.21-11.65 171.68-12.35 169.83-13.65 167.98-14.95 167.98-18.55 167.98-22.15 170.53-23.8 173.08-25.45 176.83-25.45L176.83-25.45Q179.83-25.45 184.33-24.8L184.33-24.8 185.68-24.6 185.58-21.95Q180.23-22.75 176.93-22.75ZM193.18 0L190.08 0 200.08-34.75 207.33-34.75 217.28 0 214.23 0 211.43-9.6 195.93-9.6 193.18 0ZM205.03-32.05L202.33-32.05 196.68-12.35 210.68-12.35 205.03-32.05ZM225.98 0L222.88 0 222.88-34.75 225.98-34.75 225.98 0Z" opacity="1" transform="matrix(1,0,0,1,0,0)" fill="#ffffff" class="undefined-text-0" data-fill-palette-color="primary" id="text-0"></path></svg></g></svg></g></svg></g></svg></g></svg></g><defs></defs></svg><rect width="395.52" height="135.74910286568758" fill="none" stroke="none" visibility="hidden"></rect></g></svg></g></svg>
